<?xml version="1.0" encoding="utf-8"?>
<!-- Generator: Adobe Illustrator 16.0.3, SVG Export Plug-In . SVG Version: 6.00 Build 0)  -->
<svg version="1.1" xmlns="http://www.w3.org/2000/svg" xmlns:xlink="http://www.w3.org/1999/xlink" x="0px" y="0px"
	 width="545px" height="271px" viewBox="0 0 545 271" enable-background="new 0 0 545 271" xml:space="preserve">
<rect fill="#FB0102" width="545" height="271"/>
<rect x="24.5" y="30.5" fill="none" stroke="#FEFE00" stroke-width="5" width="496" height="210"/>
<path fill="#FEFE00" d="M74.325,203.391c-0.814-0.088-1.454-0.418-1.398-1.632c0.06-1.276,0.687-1.848,1.735-2.509
	c0.665-0.419,1.564-0.799,2.121-1.355c1.208-1.207-0.885-1.375-0.885-1.375c-4.865,0.15-3.899,4.053-5.717,6.568
	c-0.08,0.109-1.458,0.27-2.804,0.621c-1.133,0.296-2.658-0.253-3.906-0.911c-0.438-0.438,0.262-1.901,1.845-3.944
	c1.583-2.041-0.417-2.332-0.417-2.332c-1.73,1.604-3.325,4.133-4.396,6.396c-2.141,0.408-5.145,0.896-6.937,0.229
	c-0.917-0.342-0.972-1.688-0.607-2.644c0.971-2.542,5.232-6.231,5.232-6.231c1.572-1.537,7.221-4.324,13.133-5.051
	c8.359-1.027,18.31-1.779,24.069-1.779c10.196,0,21.168-7.748,30.199-11.314c2.871-1.135,5.875-1.958,8.915-2.445
	c6.529-1.051,13.171-0.252,19.685-1.568c3.576-0.723,7.277-2.053,10.879-0.9c0.483,0.155,0.947,0.361,1.429,0.518
	c-0.363-1.935,5.857-2.207,8.398-7.207c-3.926-1.525-7.649,5.102-12,4c0-9.226-13.374-18.625,0.897-25.229
	c5.271-1.729,9.103-6.771,9.103-6.771c-4.351-0.684-5.535,1.799-7,4c0.146-0.219-0.281-1.528-0.318-1.834
	c-0.074-0.6-0.114-1.203-0.079-1.806c0.071-1.232,0.452-2.401,1.018-3.492c1.257-2.423,3.232-4.611,5.498-6.128
	c1.741-1.166,4.042-1.875,5.949-2.753c1.491-0.687,3.002-1.352,4.445-2.139c0.779-0.426,2.654-1.304,2.597-2.46
	c-0.001-0.024-0.035-0.408-0.108-0.389c-2.395,0.605-4.563,1.438-8,1c3.958-12.125,21.876-11.708,23.376-11.708s5.5,0,3.667-1.833
	s-5.042-1.458-5.042-1.458c3.458-5.792,20.209-11.542,33.709-9.708s26.792-2.292,26.792-2.292
	c-1.126-6.375,6.813-6.688,10.205-10.689c1.063,8.063-1.453,8.898,2.795,12.876c4.5-1.125,10.499-0.187,10.499-0.187
	c15.752,3.187,14.438,8.562,13.252,8.937c-1.188,0.375-3.973,0.143-3.973,0.143c-1.315-0.025-2.555-0.441-3.756-0.947
	c-2.55-1.076-5.001-2.399-7.861-1.847c-1.41,0.271-3.67,0.463-4.492,1.834c-0.516,0.859-0.203,1.772,0.203,2.591
	c0.451,0.906,0.389,1.516-0.373,2.29c3.836-5.172,9.058,3.049,12.625-1c2.146-2.146,7.906-1.531,7.906-1.531
	c8.834,1,16.219,0.365,16.219,0.365c1.949-0.287,4.891,0.182,6.555,1.254c1.064,0.687,1.704,1.85,1.488,3.117
	c-0.243,1.447-1.358,2.221-2.541,2.921c-0.766,0.454-1.848,0.781-2.494,1.388c-0.836,0.785-0.863,2.108-1.369,3.082
	c-0.673,1.295-0.997,2.518-2.673,2.44c-1.306-0.061-2.62-0.263-3.917-0.419c-1.454-0.176-2.904-0.392-4.354-0.609
	c-2.504-0.375-6.988-0.555-9.516-0.223c-1.047,0.137-1.889,0.338-2.484,1.314c-0.949,1.546,1.078,2.96,2.355,3.167
	c1.135,0.183,2.277-0.037,3.404-0.285c0.513-0.113,1.021-0.231,1.522-0.32c1.802-0.318,3.62-0.555,5.438-0.745
	c5.584-0.583,6.041,2.042,4.582,3.5s-9,2.646-9,2.646c-16.563-1.917-26.5,7.688-26.5,7.688c-4.624-4.14-11.336-5.396-17.313-5.734
	c-3.461-0.197-7.019-0.244-10.421,0.506c-4.206,0.927-10.223,2.055-12.58,6.145c-1.292,2.24-1.957,5.187-0.399,7.441
	c1.364,1.975,3.532,3.501,5.528,4.78c3.616,2.317,7.919,3.558,12.093,4.401c10.045,2.031,21.609,2.676,32.119,1.742
	c1.516-0.133,3.01-0.301,4.475-0.502c1.763-0.242,6.887-0.545,7.994-2.408c0.14-0.233,0.354-2.219,0.006-1.873
	c2.125-2.125,18.25-6.248,18.25-6.248c16.135-3.791,33.766-6.607,50.791-5.496c5.818,0.379,11.598,1.232,17.252,2.656
	c12.967,3.266,26.101,10.455,36.837,18.31c4.017,2.938,7.855,6.093,11.497,9.487c0,0,0.771,1.729-8.063,1.729
	s-18.991-21.033-42.229-21.699c0,0-12.54-0.529-11.707,5.305c0.832,5.832,12.422,11.968,44,15.666
	c12.167,1.424,15.624,3.25,15.624,3.25c5.531-5.26,10.736,3.707,13.626,5.416c0,0,6.875,5.625,22,7.625
	c3.114,0.412,5.865,1.74,8.699,2.877c1.215,0.488,2.444,0.94,3.727,1.271c3.742,0.967,7.601,1.504,11.441,1.896
	c1.702,0.175,3.418,0.33,5.133,0.33c2.146,0,5.012,0.166,4.303,3.14c-0.619,2.599-2.662,4.108-4.265,6.048
	c-0.962,1.164-1.558,2.674-1.664,4.186c0,0-3.675,0.367-5.596,0.061c-0.185-0.029-1.741-0.205-1.748-0.4
	c-0.156-5.022,3.428-3.906,5.344-5.656c0,0,0.334-2.875-3.916-0.459c-2.093,1.189-3.724,3.027-4.671,5.232
	c-0.104,0.244-0.083,0.68-0.272,0.872c-0.05,0.052-0.098,0.08-0.145,0.095c-0.139,0.041-0.271-0.052-0.457-0.082
	c-1.398-0.238-2.817,0.094-4.218-0.209c-0.196-0.043-1.265-0.242-1.321-0.449c-1.756-6.297,7.548-2.92,7.543-6
	c-0.009-6.162-25.342,2.065-39.001-3.543c-6.175-2.535-8.602-10.717-15.292-12.488c-2.626-0.693-4.63,0.115-7.23,0.549
	c-3.004,0.502-6.009,0.994-9.019,1.457c-5.988,0.92-11.998,1.715-18.039,2.193c-7.715,0.611-15.527,0.871-23.233,0.006
	c-9.438-1.061-18.591-4.268-27.452-7.619c-4.943-1.869-9.121-5.078-14.363-6.293c-12.649-2.932-21.926,6.867-32.711,11.336
	c-13.299,5.512-27.524,7.512-41.715,9.203c-13.971,1.841-32.138,1.091-39.578-0.411c-10.119-2.043-24.186-5.623-25.909-6.39
	c0,0-1.322-1.76,1.632-2.369c1.383-0.284,3.018-0.782,7.161-1.672c8.18-1.608,8.555-4.775,8.208-5.959
	c-9.943,3.791-21.135,7.248-32,8c-7.472,0.519-16.399-0.381-23.187-1.813c-2.53-0.533-9.555-2.439-11.982-1.865
	c-8.164,1.936-6.705,5.303-23.151,8.715c-4.5,0.935-12.809,1.612-17.179,3.053c-4.841,1.597-6.643,2.212-10.92,5.164
	c-0.576,0.396-1.197,0.625-1.646,1.188c-0.55,0.688-0.662,1.756-1.269,2.363c-1.129,1.129-2.753,1.242-4.254,1.26
	c-0.738,0.01-1.456-0.088-2.188-0.146C75.556,203.395,74.897,203.451,74.325,203.391z M278.93,208.781
	c0.563,0.164,0.471,0.171,2.625,0.334c2.209,0.167,2.375-0.959,2.375-0.959s0.082-9.916,23.729-6.521
	c5.57,0.801,11.223,0.696,16.22-2.484c2.498-1.592,4.491-3.299,7.433-4.11c2.931-0.812,6.006-0.968,9.035-0.968
	c6.045,0.576,12.153,1.173,18.223,0.634c1.789-0.159,3.683-0.204,5.328-1.006c0.479-0.231,4.192-3.13,2.699-3.628c0,0-15-5-20-5
	c0.018,0-0.544,0.689-0.582,0.727c-0.678,0.645-1.697,1.043-2.543,1.391c-5.587,2.299-11.714,2.752-17.688,2.758
	c-4.48,0.004-8.959-0.896-13.441-0.531c-2.918,0.236-6.494,1.855-6.494,5.242c0,1.061-11.021,0.227-11.83,0.199
	c-6.816-0.211-13.733-0.535-20.49,0.619c-1.375,0.235-3.075,0.598-4.409,1.015c-0.859,0.271-12.653,5.922-13.241,10.021
	c-0.101,0.704,0.379,1.391,1.053,1.938c0,0,2.582,0.299,4.51-0.367c0.623-0.216,0.748-0.411,1.219-0.883
	c1.042-1.041,0.71-1.752,1.438-2.479c0.892-0.892,2.797-2.505,4.234-1.88c0.688,0.3-1.006,1.285-1.773,2.345
	c-0.55,0.76-0.766,1.898-0.523,2.766c0.443,1.583,4.479,0.792,5.104,0.792s1.833-0.917,1.833-0.917
	c0.436-0.436,0.61-0.883,1.223-1.568c0.785-0.876,1.379-1.332,2.484-1.763c0.307-0.118,1.004-0.265,1.438-0.36
	c0.606-0.135,1.552-0.223,1.979,0.205c0.571,0.572-0.533,1.223-0.88,1.699C278.283,207.318,278.529,208.664,278.93,208.781z
	 M463.385,204.773c0.25,0.67,1.832,0.642,2.452,0.729c1.454,0.206,4.258,0.635,4.645-0.73c0.771-2.729,3.333-5.141,2.488-5.574
	c-2.065-1.061-3.799,1.056-4.736,1.889c-1.101,0.975-2.062,0.596-3.231,1.445c-0.568,0.408-1.789,1.316-1.651,2.113
	C463.356,204.688,463.368,204.73,463.385,204.773z M133.49,186.822c0,1.314,0.75,14.5,1.25,15s2.625,0,4.125,0
	s0.294-12.814,0.188-14.813C138.937,184.827,133.49,185.512,133.49,186.822z M132.845,170.072c0,0,3.938,1.25,3.938-1.063
	s-1.438-28.688-1.438-28.688s-0.708-4.25-0.708-6.042c0-1.792-1.375-2.375-1.375-7.042c0,0,1-3.084,1-5.417s-1-6.75-1.833-7.583
	s-2.042-0.5-2.042,0.375s0.208,8.833-0.667,8.833s-2.25-0.771-2.25,0c0,0-0.438,0.5,1.938,1.896c0,0,1.354-0.438,1.771,3.979
	s1.083,5.5,1.417,7.833c0.333,2.332-0.25,11.166-0.25,13.916S132.845,168.137,132.845,170.072z M97.897,202.371
	c0.813,0.302,1.734,0.191,2.571,0.391c1.199,0.283,2.278,0.521,3.123-0.101c0.507-0.373,0.929-0.897,1.243-1.562
	c0.322-0.683,0.167-1.436,0.427-2.137c0.436-1.172,1.442-1.419,2.367-2.203c0.394-0.334,2.272-2.563,2.59-1.313
	c0.319,1.26-1.26,2.975-2.18,3.68c-1.016,0.779-2.465,2.027-1.593,3.217c0.35,0.479,0.853,0.689,1.43,0.79
	c0.714,0.124,1.527,0.035,2.218-0.187c1.687-0.541,2.372-1.76,3.101-2.664c1.067-1.324,2.064-2.271,2.523-3.086
	c0.459-0.815,0.381-1.5,1.125-1.5c2.563,0,1.066,2.748,0.316,3.498s-2.504,3.063-1.816,3.752c0.688,0.688,1.375,0.438,2.875,0.438
	c1.021,0,2.129,0.016,3.265-0.813c0.533-0.389,1.071-1.336,1.61-1.875c1.688-1.688,1.625-7.25,0.5-10.125s-3.25,0-3.25,0
	s-0.125,2.5-8.875,1.875c-6.878-0.491-11.227,3.511-13.341,6.191c-0.354,0.448-0.659,0.952-0.838,1.498
	c-0.331,1.012-0.611,1.727,0.492,2.188C97.819,202.341,97.857,202.355,97.897,202.371z M48.182,214.906c10,0,422,3.334,442,3.334
	s11.334-6,11.334-6l-456.667-2.668C44.849,209.572,38.182,214.906,48.182,214.906z M159.345,168.072c0,0,1.375-9.625-5.5-11
	s-14.173-2.957-14.301,0.103c0,0-1.949,5.897-0.199,5.897s9.5,0,12.75,3.25S159.345,168.072,159.345,168.072z M129.354,164.104
	c0,0,0.24-6.953-2.877-6.953s-6.474,3.117-9.59,3.117c0,0-3.677,1.758-2.478,8.631c1.199,6.873-1.598,7.834,2.798,7.354
	c4.395-0.479,7.392-3.557,7.672-3.836c0.28-0.279-1.418-4.216,0.28-5.914C126.856,164.803,128.954,164.502,129.354,164.104z
	 M361.032,109.386c5.926,2.239,12.817,3.33,18.892,0.99c8.788-3.386,14.748-12.843,14.047-22.177
	c-1.25-16.625-21.25-21.875-21.25-21.875s15.822,13.447,8.75,27.5C373.537,109.584,361.032,109.386,361.032,109.386z
	 M131.136,54.469c-0.292,0.707-0.328,6.229,0.132,6.729s1.325,0.73,2.015-0.02c0.69-0.75,0.899-5.759,0.324-6.384
	C133.032,54.169,131.473,53.657,131.136,54.469z M167.345,64.073c0,0,0.5,1.333-7.167,1.333c-8.724,0-7.234,2.807-7.261,5.737
	l-0.25,27.5c0,0,1.5-1,1.5,15.5s1.25,23,1.25,25s0,3.75,0,3.75s-3.25-5.5-5.5-5.5s-5.5-3.75-5.5-6.5s-2.375-7.625-5.583-8.584
	c0,0,2.542-2.166,2.833-3.333c0.292-1.167-5.917-3.833-8.833-15.833c0,0-9.25,10.667-9.25,16.25c0,0-0.333,2.416,2.417,3
	c0,0-3,4.416-5.375,5.375c-2.375,0.958-1.083,11.875-0.583,11.875s-8.25,8.375-9.625,9.75s0.417-13.666,0.417-13.666
	s-3.167-10.834-1.667-12.334c0,0-1.5-46.75-1.5-49.5s-1.584-5.792-3.042-5.792S93,67.227,92.334,67.227s-3.333-3.654,3.833-3.654
	c6.716,0,6.929,0.219,6.93,0.246c0,0.002-0.001,0.003-0.001,0.003s0.001-0.001,0.001-0.003c0.009-0.031,1.613-5.667,9.248-6.759
	c6.93-0.991,15.323-11.987,16.489-13.154s1.833-0.5,1.833-0.5s5.5,9.321,18.5,15.154c0,0,4.177,3.679,7.511,3.679
	C160.012,62.239,168.178,60.407,167.345,64.073z M125.657,86.573c0-1.063-0.188-12.313-0.188-13.625c0-1.312-1.938,0-1.938,0
	s0.25,11.875-0.063,12.188c-0.313,0.313-3.375-0.313-3.375-0.313s-0.25-7.375-0.25-8.25s-1.875,0-1.875,0l0.188,10.125
	C118.157,86.698,125.657,87.636,125.657,86.573z M132.657,89.261c0,0-12.5-0.563-13.063,0c-0.563,0.563-0.25,1.813-0.063,2
	c0.187,0.187,3-0.375,3.875-0.375s5.25,0.063,5.625,0.063s0.375,2.188,0.375,2.688s-0.625,1.563-2.188,1.563
	s-5.156-1.344-5.438-1.625c-0.282-0.281-0.938,1-0.75,1.188s-1.125,0.5,1.688,1.188c1.1,0.269,2.211,0.649,3.326,0.841
	c1.266,0.217,2.417-0.278,3.673-0.279c0.688,0,1.594-0.5,1.594-0.906c0-0.406,0.594-1.844,0.594-1.844l-0.25-2.625
	C131.657,91.136,132.657,91.136,132.657,89.261z M136.282,80.261c1.875,0,3.875,0,4.563,0s0.313-2,0.313-2s-10-0.313-10.875,0
	c-0.875,0.313-0.563-2.5-0.375-2.688c0.188-0.188,0.563-0.563,1.125-0.563s3.125,0,4.063,0s5.063,0.313,4.875-0.688l-0.188-0.188
	c0,0-4.375-1.938-10.75-0.625c0,0-1.473,2.39-0.75,6.125C128.39,80.157,135.795,80.261,136.282,80.261z M141.157,83.636
	c0-0.313-5.25-0.938-7.063-0.313c-0.822,0.284-0.561,3.374-0.563,3.981c-0.006,2.214,0.106,4.429,0.241,6.639
	c0.042,0.693-0.188,1.986,0.155,2.599c0.192,0.344,1.354,0.432,1.354-0.093c0-0.25,0.25-8.625,0.25-9.438c0-0.813-0.188-2,0.5-2
	s3.688-1,3.688,1s-0.406,6.469,0.5,7.375c0,0,0.875-0.688,1.063-0.875C141.47,92.324,141.157,83.948,141.157,83.636z M149.345,62.74
	c-9.042-3.125-18.167-13.333-18.833-13.333s-1.708,0.208-1.708,0.208s-11.917,10.542-18.667,11.667c0,0-2.792,0.875-2.5,2.5
	c0.292,1.625,37.5,0.167,39.375,0.167S150.292,63.067,149.345,62.74z"/>
<path opacity="0.37" fill="#FB0102" d="M280.926,107.086c0.469,0.134,2.9,1.114,4.499,1.548
	c1.599,0.434,2.449-0.521,3.687-1.578c1.236-1.057,4.525-1.143,5.027-1.143s7.248,0.556,8.586,0.556
	c1.336,0,9.082,0.108,9.892,0.313c0.761,0.192-0.374,1.563-1.354,2.542s-8.501,2.167-12.167,2.167
	c-3.665,0-12.378,1.289-15.995,3.579c-2.496,1.58-6.255,2.505-10.088-1.328s2.646-4.979,2.646-4.979
	C278.012,105.74,280.458,106.952,280.926,107.086z M428.819,170.197c0,0-0.428-2.625-17.906-14.911
	c-19.151-13.462-40.074-15.545-40.074-15.545s-14.077-3-41.8,1.491c-27.288,4.422-34.393,9.537-34.393,9.537s1.606,2.896-4.48,3.879
	c-7.354,1.188-35.488,4.092-52.205-5.24c0,0-12.116-0.336-3.116,8.664s65,9.703,65,0c0,0,20-13,48-13c0,0,8.5-3.665,17.291-2.957
	C369.871,142.496,394.23,141.627,428.819,170.197 M368.073,156.945c0,0-26.063,14.461,34.271,19.127c0,0,24.229,3.271,27.5,0
	c3.271-3.27,16.5,16,27.5,16s32.067,3.813,32.837,3.043c0.771-0.77,0.288-1.967-0.712-2.037s-11.128-0.953-14.688-2.191
	c-3.561-1.24-9.66-3.804-10.58-3.804s-11.357-1.821-13.92-3.071c-2.563-1.25-8.459-2.791-13.198-8.053s-7.911-3.813-9.356-2.912
	c-1.444,0.9-1.102,0.559-1.102,0.559s-7.781-2.719-16.469-3.281S372.71,165.063,368.073,156.945z M361.032,109.386
	c14.063,0.354,15.903-0.938,21.161-7.063c5.238-6.104,8.516-17.956,3.709-25.19c-1.368-2.059-6.271-6.563-13.184-10.81
	c9.709,9.083,13.274,20.105,8.211,28.534C376.096,102.907,370.762,108.657,361.032,109.386z M214.345,106.323
	c-13,16.25-20.568,4.693-18.583,12.75c2.076,8.427-13.604,14.313-13.604,14.313s1,2.875-0.063,7.625
	c-1.819,8.131-16.75,13.895-16.75,13.895c-1.333-3.165-7.629-0.822-7.629-0.822c-0.754-3.146-0.699-3.322-0.123-5.25
	c0.538-1.797,2.205-3.104,2.977-3.686c0.657-0.496,2.932-1.807,3.424-1.926c0.324-0.08,1.443-0.594,1.443-0.594
	c1.029-0.256,3.8-2.439,3.8-2.439c8.642-3.967,6.025-7.659,6.025-7.659c-2.875-2.042-9.631,3.327-9.631,3.327
	c0-0.458,0.597-1.865,0.597-1.865c0.19-0.592,1.138-2.042,1.138-2.042s0.295-0.457,1.323-1.739c1.842-2.297,4.301-3.463,4.445-3.607
	s5.24-2.284,5.24-2.284s2.581-1.06,5.275-2.651c2.694-1.591,3.571-5.013,3.571-5.013s-1.844-2.146-8.955,0.918
	c0,0,0.317-0.802,2.459-2.944c4.788-4.787,13.871-5.386,14.211-5.541c0.34-0.155,4.675-0.393,5.925-0.282
	c1.25,0.111,2.869-0.337,2.869-0.337c0.73-0.183,0.67-0.78,0.67-0.78c-0.851-2.322-5.501-2.172-5.501-2.172
	c1.053-1.897,4.258-3.875,4.258-3.875c2.138-1.523,5.382-2.639,10.831-4.408c5.449-1.769,13.687-1.771,13.687-1.771
	c0.422-0.123,5.828,0.357,6.184,0.499s3.99,0.28,3.99,0.28c9.132,0.756,21.551-2.726,21.551-2.726s-0.429-1.446,0.44-3.45
	c0.869-2.004,6.458-4.708,6.458-4.708s-3.951,8.712-0.951,11.712s-16.5,5.375-20.25,5.375
	C245.095,102.448,221.406,97.497,214.345,106.323z M279.001,95.178c0,0-7.063-0.511-9.844,2.27
	c-2.781,2.781-2.469,3.438-2.469,3.438s1.969-3.781,8.844-3.781s2.883-1.538,11.332-0.644
	C286.864,96.46,282.352,95.135,279.001,95.178z M188.529,185.15c0,0,19.065,4.422,23.065-4.078s-5.166-5.442-7.609-3
	c0,0,0.07,0.832-0.316,1.488c0,0-0.908,1.471-2.783,2.262c-1.875,0.793-3.708,1.355-4.313,1.48
	C195.968,183.428,188.744,185.102,188.529,185.15z M125.22,48.026c0,0.203-3.961,3.914-3.961,3.914
	c-0.653,0.862-4.581,3.508-5.81,4.154c-1.229,0.646-4.037,1.13-4.037,1.13c-7.599,1.818-8.042,6.906-8.302,6.646
	c-0.26-0.26-3.031-0.281-3.563-0.281c-0.532,0-2.047,0.047-3.031-0.016c-0.984-0.063-2.8,0.194-2.8,0.194
	c-0.336,0-0.914,0.765-0.414,0.765s3.167-0.042,5.5-0.042s3.771-0.104,4.146-0.104s0.979-0.979,1.396-1.396
	c0.417-0.417,0.438-0.813,2-2.375c1.563-1.562,2.792-2.125,3.875-2.333c1.083-0.208,3.208-0.875,5.75-1.667
	c2.542-0.792,4.479-2.646,6.083-4.25c1.604-1.604,4.003-3.706,5.003-4.706s2.419-2.419,3.062-3.609
	c0.643-1.19-0.643-0.643-0.643-0.643s-0.527,0.379-0.642,0.5C128.717,44.028,125.22,48.026,125.22,48.026z M168.296,169.932
	c-2.236,1.106-1.796,1.797-1.796,1.797c-6.283-2.847-8.655,1.283-20.655,1.283s-12.25,1.446-15.091,1.446
	c-2.841,0-12.348,4.985-16.114,6.873s-10.128,4.241-11.878,5.075c-1.75,0.832-8.333,1.166-10.333,1.166s-12.583,0.834-13.75,0.834
	s-7.966,0.898-9.898,1.251c-1.932,0.353-5.269,1.749-4.352,1.749s2.25-0.084,7.167-1.084s19-1.416,23.25-1.416
	s11.167-1.499,23.333-7.082s22.667-5.252,22.667-5.252c19.75,0.449,33.688-2.125,39.75-6.313s-1.875-8.125-1.875-7.063
	c0,1.062-4.313,2.164-4.313,2.164C173.187,167.434,170.532,168.822,168.296,169.932z M270.157,198.572
	c2.165,0,4.329,0.066,6.489,0.186c2.181,0.119,3.947-0.589,6.047-1.023c6.685-1.387,13.558-0.738,20.322-1.243
	c10.078-0.753,4.006-2.769,9.328-4.188c7.5-2,6.5,0.521,21-1.313s14.5-5.84,14.5-5.84l-1.25-0.078c0,0-0.66,0.955-1.193,1.195
	c-0.508,0.229-3.057,1.836-9.541,2.978c0,0-6.221,0.952-10.655,0.696s-3.687-0.193-4.222-0.237
	c-0.533-0.044-3.795-0.347-4.889-0.347s-4.217-0.049-5.686,0.404c-1.143,0.354-4.564,1.342-4.564,4.895
	c0,0.826-7.469,0.511-8.313,0.416c-0.844-0.094-9.672-0.358-9.672-0.358c-1.047-0.077-5.767,0.017-6.672,0.017
	c-0.906,0-5.151,0.383-5.151,0.383c-3.219,0.295-6.026,0.992-7.926,1.818c-1.789,0.776-7.813,4.021-6.991,3.963
	C265.396,200.589,265.595,198.572,270.157,198.572z M121.428,158.74c-0.75,0.167-3.649,1.441-4.542,1.527
	c-0.893,0.086-1.931,2.193-2.361,3.334c-0.43,1.142-0.652,5.389,0,6.041c0.652,0.651,1.819-0.652,2.403-2.486
	c0.584-1.834,1.542-3.959,2.667-5.084s3.542-0.707,5.833-3c2.291-2.291-0.585-1.672-0.585-1.672S122.178,158.572,121.428,158.74z
	 M139.247,159.539c0,0,0.015-2.432,6.932-1.217c6.917,1.217,8.5,0.084,7.417-1c-1.083-1.082-5.864-1.414-7.262-1.579
	s-5.064-0.755-6.15,0.331C139.098,157.159,139.247,159.539,139.247,159.539z M156.678,62.24c1.708,0,5.23-0.396,6.73-0.457
	s2.124,0.728,1.499,0.728s-2.875,0.625-5.188,0.625c-2.313,0-2.5,0.375-5.375,0.875s-4.333,1.563-4.333,1.563
	c-0.667,0.667-1.333,0-2.167,1.583c-0.834,1.583-2.602,6.737-2.602,6.737c0.362,1.738,0.602,3.859,0.602,6.43
	c0,10.5-1.5,18.5-1.5,21c0,0.976-0.737,1.234-2.124,1.187c0,0-1.96,7.396,0.54,10.813c2.366,3.234,2.375,6.125,1.667,6.833
	c-0.708,0.708-0.958,1.292-0.25,2c0.708,0.708,1.667,0.583,2.167,2.833s0.25,2.417,0.833,4.167s2.083,2.833,2.417,4.667
	c0.334,1.834,2.412,4.193,2.412,4.681c0,0-0.933-1.11-2.089-1.11s-3.725-2.17-4.276-3.12c-0.551-0.949-1.547-3.534-1.547-5.367
	s-3.458-6.597-5.261-6.597c0,0,3.161-2.583,2.796-3.612c0,0-0.991-1.345-1.149-1.345s-4.908-5.051-5.993-9.036l-1.147-6.66
	c-0.653-0.028-1.333-0.044-2.036-0.044c-8.21,0-8.21,3.46-9.94,1.73c-1.73-1.73-0.02-5.77,5.73-5.77s7.25,0,14,0
	c0,0,1.75-11.25,1.75-14.75s-5.25-16-1-16c0,0,1.513,1.591,0.898,0.977c-1.688-1.688,0.278-3.738,1.077-3.763
	c0.799-0.025,3.467,0.966,4.731-0.298C148.884,63.407,154.97,62.24,156.678,62.24z M117.47,93.948c0.813-0.813,0-2.875-1.5-4.375
	s-4.25-11-4.25-11c0-10-1.313-8.688-0.125-9.875c1.188-1.187,3.875-0.75,8-0.75s13.5-0.25,18-0.25s2.768-2.318,1.375-2.875
	c-1.875-0.75-25.788-0.344-29.221-0.526s-2.367,7.48-2.194,8.303c0.173,0.823,1.613,50.794,1.613,50.794
	c-0.927,3.196-0.08,4.866,0.701,8.644c0.781,3.778,0.798,5.183,0.798,5.183l-0.739,7.061c0,0,0,1.836,0.918,0.918
	s-0.431-5.542,0.625-8.25c1.056-2.708,0-7.625,0-10.875s1.625-11.25,1.625-19.625s-0.625-6-0.625-9.25
	c0-0.655-0.68-1.644-0.079-2.245C112.849,94.496,116.657,94.761,117.47,93.948z M131.345,80.032c-0.792,0-2.542,0-2.875-0.333
	c-0.333-0.333-0.379-1.747-0.379-1.747s-0.787-0.128-0.787,0.956s0,1.958,0.333,2.292s3,0.375,8.208,0.375s4.063,0.188,4.5-0.25
	s-0.219-0.885-0.219-0.885C139.657,80.344,132.137,80.032,131.345,80.032z"/>
</svg>
