<?xml version="1.0" encoding="UTF-8" standalone="no"?>
<!-- Created with Inkscape (http://www.inkscape.org/) -->

<svg
   xmlns:dc="http://purl.org/dc/elements/1.1/"
   xmlns:cc="http://creativecommons.org/ns#"
   xmlns:rdf="http://www.w3.org/1999/02/22-rdf-syntax-ns#"
   xmlns:svg="http://www.w3.org/2000/svg"
   xmlns="http://www.w3.org/2000/svg"
   xmlns:sodipodi="http://sodipodi.sourceforge.net/DTD/sodipodi-0.dtd"
   xmlns:inkscape="http://www.inkscape.org/namespaces/inkscape"
   width="1199.9998"
   height="599.99988"
   id="svg3074"
   version="1.1"
   inkscape:version="0.48.2 r9819"
   sodipodi:docname="New document 3">
  <defs
     id="defs3076" />
  <sodipodi:namedview
     id="base"
     pagecolor="#ffffff"
     bordercolor="#666666"
     borderopacity="1.0"
     inkscape:pageopacity="0.0"
     inkscape:pageshadow="2"
     inkscape:zoom="0.35"
     inkscape:cx="599.99987"
     inkscape:cy="299.99994"
     inkscape:document-units="px"
     inkscape:current-layer="layer1"
     showgrid="false"
     fit-margin-top="0"
     fit-margin-left="0"
     fit-margin-right="0"
     fit-margin-bottom="0"
     inkscape:window-width="1280"
     inkscape:window-height="748"
     inkscape:window-x="-8"
     inkscape:window-y="-8"
     inkscape:window-maximized="1" />
  <metadata
     id="metadata3079">
    <rdf:RDF>
      <cc:Work
         rdf:about="">
        <dc:format>image/svg+xml</dc:format>
        <dc:type
           rdf:resource="http://purl.org/dc/dcmitype/StillImage" />
        <dc:title></dc:title>
      </cc:Work>
    </rdf:RDF>
  </metadata>
  <g
     inkscape:label="Layer 1"
     inkscape:groupmode="layer"
     id="layer1"
     transform="translate(224.99987,-232.36225)">
    <g
       transform="matrix(1.25,0,0,-1.25,-224.99987,832.36212)"
       inkscape:label="Rovinj grad grb i zastava"
       id="g3090">
      <path
         id="path3092"
         style="fill:#0000cc;fill-opacity:1;fill-rule:evenodd;stroke:none"
         d="m 0,479.9999 959.9998,0 L 959.9998,0 0,0 0,479.9999 z"
         inkscape:connector-curvature="0" />
      <path
         id="path3094"
         style="fill:#000000;fill-opacity:1;fill-rule:evenodd;stroke:none"
         d="m 393.6183,323.623 34.7491,-10.1889 c 16.9722,5.2589 34.2298,9.6163 51.6322,13.184 17.4022,-3.5677 34.6604,-7.9251 51.632,-13.184 l 34.7485,10.1889 0.5683,-0.1919 0.002,-9e-4 c 0.0958,-0.0382 0.1922,-0.0705 0.2885,-0.0972 l 0.0817,-0.0278 0.002,0.006 c 1.2303,-0.2925 2.439,0.3858 2.9336,1.5849 0.4255,1.1409 -0.0281,2.3998 -1.029,3.0248 l 4.9964,12.0921 c 1.2251,-0.29 2.4412,0.3875 2.9364,1.5874 0.4252,1.1409 -0.0278,2.4018 -1.0284,3.0274 l 15.0142,36.3379 c -3.4149,1.2016 -6.8366,2.3624 -10.2857,3.4633 -3.3262,1.0616 -6.6566,2.0679 -9.9871,3.0113 -3.3641,1.3705 -7.5186,-0.142 -11.5191,-3.7009 -3.9351,-3.5002 -7.7474,-9.0003 -10.5027,-15.6688 -0.1941,-0.4536 -0.3764,-0.9292 -0.5527,-1.3918 -3.9016,0.8867 -7.8316,1.6982 -11.7885,2.4344 l 5.9426,25.0115 c -3.5527,0.6684 -7.1082,1.2914 -10.679,1.8527 -3.4546,0.5431 -6.8981,1.0304 -10.3263,1.4556 -3.4912,0.8164 -7.3134,-1.3425 -10.6707,-5.495 -3.2996,-4.0805 -6.1731,-10.1089 -7.8384,-17.1161 -0.1063,-0.4479 -0.2067,-0.8949 -0.3008,-1.34 -3.9265,0.2866 -7.8738,0.4986 -11.8394,0.6358 l 0,25.6913 c -3.5989,0.1076 -7.197,0.191 -10.7984,0.191 -3.6011,0 -7.1991,-0.0834 -10.7986,-0.1905 l 0,-25.6913 c -3.9656,-0.1372 -7.9129,-0.3492 -11.8394,-0.6358 -0.0941,0.4451 -0.1942,0.8921 -0.3008,1.34 -1.6651,7.0072 -4.5388,13.0356 -7.8383,17.1161 -3.3574,4.1525 -7.1796,6.3114 -10.6708,5.495 -3.4279,-0.4252 -6.8717,-0.9125 -10.326,-1.4556 -3.5711,-0.5613 -7.1266,-1.184 -10.6787,-1.8527 l 5.942,-25.0115 c -3.9566,-0.7359 -7.8866,-1.5477 -11.7885,-2.4344 -0.1763,0.4626 -0.3583,0.9382 -0.5527,1.3918 -2.8126,6.806 -12.6647,23.1817 -22.0159,19.3711 -3.3329,-0.9436 -6.6651,-1.9508 -9.9929,-3.0127 -3.4487,-1.1006 -6.8712,-2.2609 -10.2853,-3.4633 l 15.0137,-36.3376 c -1.0003,-0.6259 -1.4539,-1.8868 -1.0287,-3.0277 0.4953,-1.1999 1.711,-1.8774 2.9362,-1.5874 l 4.9966,-12.0915 c -1.0015,-0.6247 -1.4553,-1.8842 -1.0301,-3.0254 0.4952,-1.1996 1.7045,-1.8777 2.935,-1.5846 l 0.002,-0.007 0.0876,0.0295 c 0.0924,0.0258 0.1846,0.057 0.277,0.0938 l 0.007,0.003 0.5675,0.1919 z"
         inkscape:connector-curvature="0" />
      <path
         id="path3096"
         style="fill:#ffcc00;fill-opacity:1;fill-rule:evenodd;stroke:none"
         d="m 479.9996,331.9637 c -41.9459,-8.523 -81.9856,-21.2846 -119.4783,-39.7024 0,-128.2983 25.8922,-160.7712 119.4783,-212.2614 93.5861,51.4902 119.4786,83.9631 119.4786,212.2614 -37.493,18.4178 -77.5323,31.1794 -119.4786,39.7024"
         inkscape:connector-curvature="0" />
      <path
         id="path3098"
         style="fill:#ffffff;fill-opacity:1;fill-rule:nonzero;stroke:none"
         d="m 479.9996,326.6181 c -39.3562,-8.0683 -77.9734,-20.1731 -114.213,-37.62 0.3926,-111.6445 16.3769,-148.8135 114.213,-203.0009 97.8364,54.1874 113.8207,91.3564 114.2133,203.0009 -36.2395,17.4469 -74.8571,29.5517 -114.2133,37.62"
         inkscape:connector-curvature="0" />
      <path
         id="path3100"
         style="fill:#cc0000;fill-opacity:1;fill-rule:nonzero;stroke:none"
         d="m 427.6327,119.4698 c 6.4241,28.9987 15.0054,57.1862 25.5642,84.3869 -26.6859,-0.9015 -52.9894,-3.3081 -78.8332,-7.1266 -2.9781,11.2547 -5.0017,23.5856 -6.3329,37.3453 33.1969,4.9399 67.1148,7.6689 101.6054,8.0118 12.6464,26.7279 27.263,52.3421 43.6623,76.6542 12.7692,-3.4435 25.4075,-7.3646 37.8575,-11.8091 -14.6948,-20.84 -27.966,-42.7552 -39.6768,-65.6028 27.2143,-1.2594 54.0411,-4.0016 80.4042,-8.1405 -1.3666,-13.7543 -3.441,-26.0697 -6.4809,-37.3144 -29.8437,4.6599 -60.3127,7.4327 -91.2844,8.1796 -14.3713,-34.1844 -25.3627,-70.1404 -32.555,-107.4498 -12.939,7.7624 -24.1801,15.2856 -33.9304,22.8654"
         inkscape:connector-curvature="0" />
      <path
         id="path3102"
         style="fill:#ffffff;fill-opacity:1;fill-rule:nonzero;stroke:none"
         d="m 479.9988,338.5437 c 30.5178,0 59.8626,-5.038 87.2441,-14.3263 0.8501,-0.352 1.8408,0.0695 2.2057,0.9148 0.3549,0.8611 -0.0536,1.8507 -0.9153,2.2064 -27.7796,9.4482 -57.5589,14.571 -88.534,14.571 -30.975,0 -60.7544,-5.1228 -88.5342,-14.571 -0.8614,-0.3557 -1.2702,-1.3453 -0.915,-2.2064 0.3648,-0.8453 1.3555,-1.2668 2.2054,-0.9148 27.3818,9.2883 56.7258,14.3263 87.2433,14.3263"
         inkscape:connector-curvature="0" />
      <path
         id="path3104"
         style="fill:#ffffff;fill-opacity:1;fill-rule:nonzero;stroke:none"
         d="m 479.9996,359.9476 c -33.4148,0 -65.5203,-5.6019 -95.4343,-15.9089 -0.8611,-0.3558 -1.2625,-1.3621 -0.9073,-2.223 0.3648,-0.8455 1.3436,-1.241 2.1943,-0.8903 29.516,10.1466 61.1878,15.6569 94.1473,15.6569 32.9596,0 64.6314,-5.5103 94.1474,-15.6569 0.8507,-0.3507 1.8298,0.0448 2.1946,0.8903 0.3549,0.8609 -0.0462,1.8672 -0.9077,2.223 -29.914,10.307 -62.0195,15.9089 -95.4343,15.9089"
         inkscape:connector-curvature="0" />
      <path
         id="path3106"
         style="fill:#ffcc00;fill-opacity:1;fill-rule:nonzero;stroke:none"
         d="m 403.7834,350.7803 -14.7728,35.7545 c -3.2474,-0.9235 -6.4528,-1.8932 -9.6182,-2.9038 -3.1425,-1.0029 -6.2853,-2.0599 -9.4255,-3.1629 l 14.6772,-35.5232 c 3.1298,1.0735 6.3063,2.1022 9.5267,3.0833 3.1946,0.9731 6.3995,1.8909 9.6126,2.7521"
         inkscape:connector-curvature="0" />
      <path
         id="path3108"
         style="fill:#ffcc00;fill-opacity:1;fill-rule:nonzero;stroke:none"
         d="m 447.2348,358.9605 -8.9317,37.5945 c -3.3616,-0.4209 -6.6781,-0.8909 -9.9496,-1.4051 -3.2644,-0.5128 -6.527,-1.0766 -9.7852,-1.6863 l 8.8801,-37.3757 c 3.2771,0.5913 6.5582,1.1254 9.8402,1.6013 3.2944,0.4779 6.6101,0.9011 9.9462,1.2713"
         inkscape:connector-curvature="0" />
      <path
         id="path3110"
         style="fill:#ffcc00;fill-opacity:1;fill-rule:nonzero;stroke:none"
         d="m 489.9572,360.5992 0,38.3965 c -3.3188,0.0992 -6.6368,0.1629 -9.9576,0.1629 -3.3202,0 -6.6379,-0.0637 -9.957,-0.1629 l 0,-38.3965 c 3.3174,0.1114 6.6377,0.1897 9.957,0.1897 3.3197,0 6.6399,-0.0783 9.9576,-0.1897"
         inkscape:connector-curvature="0" />
      <path
         id="path3112"
         style="fill:#ffcc00;fill-opacity:1;fill-rule:nonzero;stroke:none"
         d="m 556.2164,350.7803 14.7728,35.7545 c 3.2474,-0.9235 6.4528,-1.8932 9.6185,-2.9038 3.1422,-1.0029 6.285,-2.0599 9.4252,-3.1629 l -14.6772,-35.5232 c -3.1297,1.0735 -6.306,2.1022 -9.5267,3.0833 -3.1946,0.9731 -6.3995,1.8909 -9.6126,2.7521"
         inkscape:connector-curvature="0" />
      <path
         id="path3114"
         style="fill:#ffcc00;fill-opacity:1;fill-rule:nonzero;stroke:none"
         d="m 512.765,358.9605 8.9317,37.5945 c 3.3616,-0.4209 6.6781,-0.8909 9.9496,-1.4051 3.2644,-0.5128 6.5271,-1.0766 9.7852,-1.6863 l -8.8801,-37.3757 c -3.2771,0.5913 -6.5582,1.1254 -9.8402,1.6013 -3.2944,0.4779 -6.6101,0.9011 -9.9462,1.2713"
         inkscape:connector-curvature="0" />
      <path
         id="path3116"
         style="fill:#ffcc00;fill-opacity:1;fill-rule:nonzero;stroke:none"
         d="m 395.0606,329.4122 c -1.1758,-0.3804 -2.3488,-0.7679 -3.5175,-1.1639 l -4.9697,12.0305 c 2.2481,0.7688 4.5076,1.51 6.7799,2.2241 -1.2852,-1.4894 -1.7487,-3.6119 -1.0279,-5.5902 l 2.7352,-7.5005 z"
         inkscape:connector-curvature="0" />
      <path
         id="path3118"
         style="fill:#ffcc00;fill-opacity:1;fill-rule:nonzero;stroke:none"
         d="m 405.0085,332.424 c -0.5647,-0.159 -1.1282,-0.32 -1.6917,-0.483 l -2.8894,7.9242 c -0.5697,1.5639 -2.3006,2.3709 -3.8644,1.8003 -1.5636,-0.5703 -2.3704,-2.2992 -1.8003,-3.8639 l 2.7723,-7.6019 c -0.5593,-0.1749 -1.1172,-0.3518 -1.6745,-0.5301 l -5e-4,8e-4 -2.7451,7.5283 c -0.8923,2.4474 0.3512,5.1622 2.7771,6.0888 l 0.654,0.1981 c 2.304,0.5213 4.6989,-0.7404 5.5292,-3.0177 l 2.9333,-8.0439 z"
         inkscape:connector-curvature="0" />
      <path
         id="path3120"
         style="fill:#ffcc00;fill-opacity:1;fill-rule:nonzero;stroke:none"
         d="m 434.893,339.0769 c -9.8776,-1.6265 -19.5786,-3.7786 -29.0732,-6.4256 l -6e-4,6e-4 -2.9545,8.102 c -0.6455,1.7699 -2.0906,3.0183 -3.7786,3.4855 11.8063,3.4421 23.9247,6.1497 36.3036,8.0716 -1.4607,-1.2452 -2.2451,-3.2077 -1.8922,-5.2347 l 1.3955,-7.9994 z"
         inkscape:connector-curvature="0" />
      <path
         id="path3122"
         style="fill:#ffcc00;fill-opacity:1;fill-rule:nonzero;stroke:none"
         d="m 445.1666,340.5696 c -0.5811,-0.0737 -1.1616,-0.1482 -1.7413,-0.225 l -1.432,8.2102 c -0.2855,1.6399 -1.8587,2.7372 -3.4988,2.4512 -1.6328,-0.29 -2.7247,-1.8482 -2.4415,-3.4818 l 1.4014,-8.038 c -0.578,-0.0895 -1.1551,-0.1808 -1.7319,-0.2744 l 0,6e-4 -1.397,8.0053 c -0.4484,2.5719 1.2521,5.023 3.8101,5.506 l 0.3994,0.0584 c 2.4698,0.256 4.7531,-1.4388 5.186,-3.9225 l 1.4456,-8.29 z"
         inkscape:connector-curvature="0" />
      <path
         id="path3124"
         style="fill:#ffcc00;fill-opacity:1;fill-rule:nonzero;stroke:none"
         d="m 474.3893,342.6945 c -9.591,-0.1916 -19.0619,-0.8734 -28.3879,-2.0205 l -1.4524,8.3267 c -0.3331,1.9131 -1.6007,3.4305 -3.2522,4.1653 11.7003,1.5686 23.6231,2.4372 35.7242,2.5596 -1.5798,-0.9927 -2.6309,-2.7504 -2.6309,-4.7528 l -8e-4,-8.2783 z"
         inkscape:connector-curvature="0" />
      <path
         id="path3126"
         style="fill:#ffcc00;fill-opacity:1;fill-rule:nonzero;stroke:none"
         d="m 484.7698,342.7098 c -0.5843,0.0102 -1.169,0.0184 -1.7547,0.0247 l 0,8.2383 c 0,1.6651 -1.3501,3.0152 -3.0155,3.0152 -1.665,0 -3.0152,-1.3501 -3.0152,-3.0152 l 0,-8.2383 c -0.5848,-0.006 -1.1687,-0.0142 -1.7527,-0.0244 l 0,8.2627 c 0,2.6345 2.1334,4.7679 4.7679,4.7679 2.6351,0 4.7682,-2.1331 4.7682,-4.7679 l 0.002,-8.263 z"
         inkscape:connector-curvature="0" />
      <path
         id="path3128"
         style="fill:#ffcc00;fill-opacity:1;fill-rule:nonzero;stroke:none"
         d="m 564.9386,329.4122 c 1.1761,-0.3804 2.3491,-0.7679 3.5178,-1.1639 l 4.9695,12.0305 c -2.2479,0.7688 -4.5074,1.51 -6.7799,2.2241 1.2855,-1.4894 1.7489,-3.6119 1.0278,-5.5902 l -2.7352,-7.5005 z"
         inkscape:connector-curvature="0" />
      <path
         id="path3130"
         style="fill:#ffcc00;fill-opacity:1;fill-rule:nonzero;stroke:none"
         d="m 554.9907,332.424 c 0.5647,-0.159 1.1285,-0.32 1.6918,-0.483 l 2.8896,7.9242 c 0.5698,1.5639 2.3006,2.3709 3.8642,1.8003 1.5639,-0.5703 2.3703,-2.2992 1.8003,-3.8639 l -2.772,-7.6019 c 0.559,-0.1749 1.1168,-0.3518 1.6744,-0.5301 l 3e-4,8e-4 2.7453,7.5283 c 0.8924,2.4474 -0.3512,5.1622 -2.7771,6.0888 l -0.6539,0.1981 c -2.3043,0.5213 -4.699,-0.7404 -5.5296,-3.0177 l -2.9333,-8.0439 z"
         inkscape:connector-curvature="0" />
      <path
         id="path3132"
         style="fill:#ffcc00;fill-opacity:1;fill-rule:nonzero;stroke:none"
         d="m 525.1062,339.0769 c 9.8779,-1.6265 19.5786,-3.7786 29.0735,-6.4256 l 3e-4,6e-4 2.9549,8.102 c 0.6454,1.7699 2.0905,3.0183 3.7785,3.4855 -11.8063,3.4421 -23.9246,6.1497 -36.3035,8.0716 1.4607,-1.2452 2.245,-3.2077 1.8918,-5.2347 l -1.3955,-7.9994 z"
         inkscape:connector-curvature="0" />
      <path
         id="path3134"
         style="fill:#ffcc00;fill-opacity:1;fill-rule:nonzero;stroke:none"
         d="m 514.8329,340.5696 c 0.5808,-0.0737 1.1613,-0.1482 1.7413,-0.225 l 1.4321,8.2102 c 0.2851,1.6399 1.8586,2.7372 3.4988,2.4512 1.6327,-0.29 2.7243,-1.8482 2.4412,-3.4818 l -1.4012,-8.038 c 0.578,-0.0895 1.1551,-0.1808 1.732,-0.2744 l 0,6e-4 1.3969,8.0053 c 0.4484,2.5719 -1.2521,5.023 -3.8101,5.506 l -0.3994,0.0584 c -2.4701,0.256 -4.7531,-1.4388 -5.1862,-3.9225 l -1.4454,-8.29 z"
         inkscape:connector-curvature="0" />
      <path
         id="path3136"
         style="fill:#ffcc00;fill-opacity:1;fill-rule:nonzero;stroke:none"
         d="m 485.61,342.6945 c 9.5913,-0.1916 19.0621,-0.8734 28.3881,-2.0205 l 1.4522,8.3267 c 0.3333,1.9131 1.601,3.4305 3.2522,4.1653 -11.7,1.5686 -23.6228,2.4372 -35.7239,2.5596 1.5797,-0.9927 2.6305,-2.7504 2.6305,-4.7528 l 9e-4,-8.2783 z"
         inkscape:connector-curvature="0" />
      <path
         id="path3138"
         style="fill:#ffcc00;fill-opacity:1;fill-rule:nonzero;stroke:none"
         d="m 423.6831,368.2959 c -6.0154,-1.1183 -11.969,-2.4126 -17.8554,-3.8767 l 3.6057,-12.147 0.005,-0.017 c 5.6633,1.3972 11.3916,2.6294 17.1791,3.6921 l -2.9342,12.3486 z"
         inkscape:connector-curvature="0" />
      <path
         id="path3140"
         style="fill:#ffcc00;fill-opacity:1;fill-rule:nonzero;stroke:none"
         d="m 469.201,360.5936 0,12.6827 c -6.0128,-0.2083 -11.9812,-0.5898 -17.8999,-1.14 l 1.4153,-12.5918 9e-4,-0.007 c 5.453,0.5023 10.9488,0.856 16.4837,1.0562"
         inkscape:connector-curvature="0" />
      <path
         id="path3142"
         style="fill:#ffcc00;fill-opacity:1;fill-rule:nonzero;stroke:none"
         d="m 536.3167,368.2959 c 6.0156,-1.1183 11.9693,-2.4126 17.8554,-3.8767 l -3.6054,-12.147 -0.005,-0.017 c -5.6633,1.3972 -11.3916,2.6294 -17.1788,3.6921 l 2.9339,12.3486 z"
         inkscape:connector-curvature="0" />
      <path
         id="path3144"
         style="fill:#ffcc00;fill-opacity:1;fill-rule:nonzero;stroke:none"
         d="m 490.7988,360.5936 0,12.6827 c 6.0128,-0.2083 11.9812,-0.5898 17.8999,-1.14 l -1.4153,-12.5918 -9e-4,-0.007 c -5.453,0.5023 -10.9488,0.856 -16.4837,1.0562"
         inkscape:connector-curvature="0" />
      <path
         id="path3146"
         style="fill:#ffcc00;fill-opacity:1;fill-rule:evenodd;stroke:none"
         d="m 644.9332,468 c 7.6496,-37.7334 -2.0821,-64.8164 -25.6714,-83.5345 -8.5575,34.7718 1.6299,65.062 25.6714,83.5345"
         inkscape:connector-curvature="0" />
      <path
         id="path3148"
         style="fill:#ffcc00;fill-opacity:1;fill-rule:evenodd;stroke:none"
         d="M 675.7061,467.0892 C 672.4145,433.5718 658.8,411.751 636.6702,399.4671 c 4.0073,5.7611 7.1359,12.0608 9.3345,18.9311 3.0574,9.5531 4.3047,20.1875 3.6042,31.9904 7.2851,7.3137 16.0824,12.9629 26.0972,16.7006"
         inkscape:connector-curvature="0" />
      <path
         id="path3150"
         style="fill:#ffcc00;fill-opacity:1;fill-rule:evenodd;stroke:none"
         d="m 702.6001,465.8669 c -4.8271,-38.1974 -22.7137,-60.7416 -51.0523,-70.9276 0.4244,5.0164 1.1739,9.8285 2.2252,14.4249 4.366,4.3158 8.1961,9.2342 11.4645,14.7872 4.2236,7.1754 7.5007,15.4001 9.773,24.7397 7.6909,7.6056 17.0028,13.3563 27.5896,16.9758"
         inkscape:connector-curvature="0" />
      <path
         id="path3152"
         style="fill:#ffcc00;fill-opacity:1;fill-rule:nonzero;stroke:none"
         d="m 623.8446,452.6558 c 3.7533,0 6.7872,3.0336 6.7872,6.7873 0,3.7539 -3.0367,6.7872 -6.7872,6.7872 -3.7531,0 -6.7873,-3.0342 -6.7873,-6.7872 0,-3.7506 3.0333,-6.7873 6.7873,-6.7873"
         inkscape:connector-curvature="0" />
      <path
         id="path3154"
         style="fill:#ffcc00;fill-opacity:1;fill-rule:evenodd;stroke:none"
         d="m 701.6202,383.8541 c -26.695,-27.7435 -54.5083,-35.1326 -83.3176,-26.3659 23.7424,26.8061 54.4535,35.6443 83.3176,26.3659"
         inkscape:connector-curvature="0" />
      <path
         id="path3156"
         style="fill:#ffcc00;fill-opacity:1;fill-rule:evenodd;stroke:none"
         d="m 703.7286,399.8211 c -2.7034,-4.3013 -5.4981,-8.2562 -8.3818,-11.8808 -12.8534,2.8547 -25.9254,2.2878 -38.5002,-1.6915 -2.4582,-0.7781 -4.8977,-1.6866 -7.3125,-2.7258 15.6762,12.7755 34.5345,18.3889 54.1945,16.2981"
         inkscape:connector-curvature="0" />
      <path
         id="path3158"
         style="fill:#ffcc00;fill-opacity:1;fill-rule:nonzero;stroke:none"
         d="m 623.8446,366.8255 c 4.0093,0 7.2493,3.2398 7.2493,7.2494 0,4.0062 -3.2431,7.2493 -7.2493,7.2493 -4.0031,0 -7.2494,-3.2462 -7.2494,-7.2493 0,-4.0062 3.2432,-7.2494 7.2494,-7.2494"
         inkscape:connector-curvature="0" />
      <path
         id="path3160"
         style="fill:#ffcc00;fill-opacity:1;fill-rule:nonzero;stroke:none"
         d="m 645.2374,382.9212 c 4.0093,0 7.2493,3.24 7.2493,7.2494 0,4.0062 -3.2431,7.249 -7.2493,7.249 -4.0031,0 -7.2491,-3.246 -7.2491,-7.249 0,-4.0063 3.2428,-7.2494 7.2491,-7.2494"
         inkscape:connector-curvature="0" />
      <path
         id="path3162"
         style="fill:#ffcc00;fill-opacity:1;fill-rule:nonzero;stroke:none"
         d="m 694.5432,404.314 c 4.0096,0 7.2493,3.24 7.2493,7.2493 0,4.0062 -3.2428,7.2494 -7.2493,7.2494 -4.0028,0 -7.2491,-3.2463 -7.2491,-7.2494 0,-4.0062 3.2429,-7.2493 7.2491,-7.2493"
         inkscape:connector-curvature="0" />
      <path
         id="path3164"
         style="fill:#ffcc00;fill-opacity:1;fill-rule:evenodd;stroke:none"
         d="m 644.9332,353.9996 c 7.6496,-37.7334 -2.0821,-64.8161 -25.6714,-83.5344 -8.5575,34.772 1.6299,65.0622 25.6714,83.5344"
         inkscape:connector-curvature="0" />
      <path
         id="path3166"
         style="fill:#ffcc00;fill-opacity:1;fill-rule:evenodd;stroke:none"
         d="m 675.7061,353.0889 c -3.2916,-33.5172 -16.9061,-55.338 -39.0359,-67.6219 4.0073,5.7608 7.1359,12.0608 9.3345,18.9311 3.0574,9.5528 4.3047,20.1875 3.6042,31.9904 7.2851,7.3134 16.0824,12.9626 26.0972,16.7004"
         inkscape:connector-curvature="0" />
      <path
         id="path3168"
         style="fill:#ffcc00;fill-opacity:1;fill-rule:evenodd;stroke:none"
         d="m 702.6001,351.8666 c -4.8271,-38.1972 -22.7137,-60.7417 -51.0523,-70.9274 0.4244,5.0165 1.1739,9.8285 2.2252,14.4246 4.366,4.3161 8.1961,9.2345 11.4645,14.7875 4.2236,7.1754 7.5007,15.3998 9.773,24.7397 7.6909,7.6056 17.0028,13.356 27.5896,16.9756"
         inkscape:connector-curvature="0" />
      <path
         id="path3170"
         style="fill:#ffcc00;fill-opacity:1;fill-rule:nonzero;stroke:none"
         d="m 623.8446,338.6557 c 3.7533,0 6.7872,3.0336 6.7872,6.7873 0,3.7539 -3.0367,6.7872 -6.7872,6.7872 -3.7531,0 -6.7873,-3.0342 -6.7873,-6.7872 0,-3.7508 3.0333,-6.7873 6.7873,-6.7873"
         inkscape:connector-curvature="0" />
      <path
         id="path3172"
         style="fill:#ffcc00;fill-opacity:1;fill-rule:evenodd;stroke:none"
         d="m 701.6202,269.854 c -26.695,-27.7432 -54.5086,-35.1326 -83.3179,-26.3662 23.7427,26.8067 54.4538,35.6446 83.3179,26.3662"
         inkscape:connector-curvature="0" />
      <path
         id="path3174"
         style="fill:#ffcc00;fill-opacity:1;fill-rule:evenodd;stroke:none"
         d="m 703.7286,285.8207 c -2.7034,-4.301 -5.4981,-8.2559 -8.3818,-11.8805 -12.8534,2.8547 -25.9254,2.2875 -38.5002,-1.6915 -2.4582,-0.7781 -4.8977,-1.6869 -7.3125,-2.7261 15.6762,12.7755 34.5345,18.3892 54.1945,16.2981"
         inkscape:connector-curvature="0" />
      <path
         id="path3176"
         style="fill:#ffcc00;fill-opacity:1;fill-rule:nonzero;stroke:none"
         d="m 623.8446,252.8254 c 4.0093,0 7.2493,3.2398 7.2493,7.2494 0,4.0062 -3.2431,7.2493 -7.2493,7.2493 -4.0031,0 -7.2494,-3.2465 -7.2494,-7.2493 0,-4.0065 3.2432,-7.2494 7.2494,-7.2494"
         inkscape:connector-curvature="0" />
      <path
         id="path3178"
         style="fill:#ffcc00;fill-opacity:1;fill-rule:nonzero;stroke:none"
         d="m 645.2374,268.9211 c 4.0093,0 7.2493,3.24 7.2493,7.2494 0,4.0062 -3.2431,7.249 -7.2493,7.249 -4.0031,0 -7.2491,-3.246 -7.2491,-7.249 0,-4.0062 3.2428,-7.2494 7.2491,-7.2494"
         inkscape:connector-curvature="0" />
      <path
         id="path3180"
         style="fill:#ffcc00;fill-opacity:1;fill-rule:nonzero;stroke:none"
         d="m 694.5432,290.3139 c 4.0096,0 7.2493,3.2397 7.2493,7.2493 0,4.0062 -3.2428,7.2494 -7.2493,7.2494 -4.0028,0 -7.2491,-3.2463 -7.2491,-7.2494 0,-4.0062 3.2429,-7.2493 7.2491,-7.2493"
         inkscape:connector-curvature="0" />
      <path
         id="path3182"
         style="fill:#ffcc00;fill-opacity:1;fill-rule:evenodd;stroke:none"
         d="m 644.9332,239.9995 c 7.6496,-37.7334 -2.0821,-64.8161 -25.6714,-83.5344 -8.5575,34.772 1.6299,65.0622 25.6714,83.5344"
         inkscape:connector-curvature="0" />
      <path
         id="path3184"
         style="fill:#ffcc00;fill-opacity:1;fill-rule:evenodd;stroke:none"
         d="m 675.7061,239.0888 c -3.2916,-33.5175 -16.9061,-55.338 -39.0359,-67.6219 4.0073,5.7608 7.1359,12.0605 9.3345,18.9311 3.0574,9.5528 4.3047,20.1873 3.6042,31.9904 7.2851,7.3134 16.0824,12.9626 26.0972,16.7004"
         inkscape:connector-curvature="0" />
      <path
         id="path3186"
         style="fill:#ffcc00;fill-opacity:1;fill-rule:evenodd;stroke:none"
         d="m 702.6001,237.8665 c -4.8271,-38.1975 -22.7137,-60.7417 -51.0523,-70.9277 0.4244,5.0168 1.1739,9.8289 2.2252,14.4249 4.366,4.3161 8.1961,9.2345 11.4645,14.7875 4.2236,7.1751 7.5007,15.3998 9.773,24.7397 7.6909,7.6056 17.0028,13.356 27.5896,16.9756"
         inkscape:connector-curvature="0" />
      <path
         id="path3188"
         style="fill:#ffcc00;fill-opacity:1;fill-rule:nonzero;stroke:none"
         d="m 623.8446,224.6556 c 3.7533,0 6.7872,3.0336 6.7872,6.7873 0,3.7539 -3.0367,6.7872 -6.7872,6.7872 -3.7531,0 -6.7873,-3.0342 -6.7873,-6.7872 0,-3.7508 3.0333,-6.7873 6.7873,-6.7873"
         inkscape:connector-curvature="0" />
      <path
         id="path3190"
         style="fill:#ffcc00;fill-opacity:1;fill-rule:evenodd;stroke:none"
         d="m 701.6202,155.8539 c -26.695,-27.7432 -54.5086,-35.1326 -83.3179,-26.3662 23.7427,26.8067 54.4538,35.6446 83.3179,26.3662"
         inkscape:connector-curvature="0" />
      <path
         id="path3192"
         style="fill:#ffcc00;fill-opacity:1;fill-rule:evenodd;stroke:none"
         d="m 703.7286,171.8206 c -2.7034,-4.301 -5.4981,-8.2559 -8.3818,-11.8805 -12.8534,2.8547 -25.9254,2.2875 -38.5002,-1.6915 -2.4582,-0.7784 -4.8977,-1.6869 -7.3125,-2.726 15.6762,12.7754 34.5345,18.3891 54.1945,16.298"
         inkscape:connector-curvature="0" />
      <path
         id="path3194"
         style="fill:#ffcc00;fill-opacity:1;fill-rule:nonzero;stroke:none"
         d="m 623.8446,138.8251 c 4.0093,0 7.2493,3.24 7.2493,7.2493 0,4.0065 -3.2431,7.2493 -7.2493,7.2493 -4.0031,0 -7.2494,-3.2462 -7.2494,-7.2493 0,-4.0062 3.2432,-7.2493 7.2494,-7.2493"
         inkscape:connector-curvature="0" />
      <path
         id="path3196"
         style="fill:#ffcc00;fill-opacity:1;fill-rule:nonzero;stroke:none"
         d="m 645.2374,154.921 c 4.0093,0 7.2493,3.2398 7.2493,7.2494 0,4.0062 -3.2431,7.249 -7.2493,7.249 -4.0031,0 -7.2491,-3.246 -7.2491,-7.249 0,-4.0062 3.2428,-7.2494 7.2491,-7.2494"
         inkscape:connector-curvature="0" />
      <path
         id="path3198"
         style="fill:#ffcc00;fill-opacity:1;fill-rule:nonzero;stroke:none"
         d="m 694.5432,176.3138 c 4.0096,0 7.2493,3.2397 7.2493,7.2493 0,4.0063 -3.2428,7.2494 -7.2493,7.2494 -4.0028,0 -7.2491,-3.2463 -7.2491,-7.2494 0,-4.0062 3.2429,-7.2493 7.2491,-7.2493"
         inkscape:connector-curvature="0" />
      <path
         id="path3200"
         style="fill:#ffcc00;fill-opacity:1;fill-rule:evenodd;stroke:none"
         d="M 644.9332,125.9994 C 652.5828,88.266 642.8511,61.183 619.2618,42.465 c -8.5575,34.772 1.6299,65.0622 25.6714,83.5344"
         inkscape:connector-curvature="0" />
      <path
         id="path3202"
         style="fill:#ffcc00;fill-opacity:1;fill-rule:evenodd;stroke:none"
         d="M 675.7061,125.0887 C 672.4145,91.5712 658.8,69.7507 636.6702,57.4665 c 4.0073,5.7611 7.1359,12.0608 9.3345,18.9312 3.0574,9.553 4.3047,20.1875 3.6042,31.9906 7.2851,7.3134 16.0824,12.9626 26.0972,16.7004"
         inkscape:connector-curvature="0" />
      <path
         id="path3204"
         style="fill:#ffcc00;fill-opacity:1;fill-rule:evenodd;stroke:none"
         d="M 702.6001,123.8664 C 697.773,85.6689 679.8864,63.1247 651.5478,52.9387 c 0.4244,5.0168 1.1739,9.8286 2.2252,14.425 4.366,4.316 8.1961,9.2341 11.4645,14.7872 4.2236,7.1753 7.5007,15.4 9.773,24.7399 7.6909,7.6056 17.0028,13.356 27.5896,16.9756"
         inkscape:connector-curvature="0" />
      <path
         id="path3206"
         style="fill:#ffcc00;fill-opacity:1;fill-rule:nonzero;stroke:none"
         d="m 623.8446,110.6555 c 3.7533,0 6.7872,3.0336 6.7872,6.7873 0,3.7539 -3.0367,6.787 -6.7872,6.787 -3.7531,0 -6.7873,-3.034 -6.7873,-6.787 0,-3.7508 3.0333,-6.7873 6.7873,-6.7873"
         inkscape:connector-curvature="0" />
      <path
         id="path3208"
         style="fill:#ffcc00;fill-opacity:1;fill-rule:evenodd;stroke:none"
         d="M 701.6202,41.8535 C 674.9252,14.1106 647.1116,6.7212 618.3023,15.4877 c 23.7427,26.8066 54.4538,35.6445 83.3179,26.3658"
         inkscape:connector-curvature="0" />
      <path
         id="path3210"
         style="fill:#ffcc00;fill-opacity:1;fill-rule:evenodd;stroke:none"
         d="m 703.7286,57.8205 c -2.7034,-4.3013 -5.4981,-8.2559 -8.3818,-11.8805 -12.8534,2.8547 -25.9254,2.2875 -38.5002,-1.6915 -2.4582,-0.7784 -4.8977,-1.6869 -7.3125,-2.726 15.6762,12.7754 34.5345,18.3892 54.1945,16.298"
         inkscape:connector-curvature="0" />
      <path
         id="path3212"
         style="fill:#ffcc00;fill-opacity:1;fill-rule:nonzero;stroke:none"
         d="m 623.8446,24.825 c 4.0093,0 7.2493,3.24 7.2493,7.2493 0,4.0062 -3.2431,7.2493 -7.2493,7.2493 -4.0031,0 -7.2494,-3.2462 -7.2494,-7.2493 0,-4.0062 3.2432,-7.2493 7.2494,-7.2493"
         inkscape:connector-curvature="0" />
      <path
         id="path3214"
         style="fill:#ffcc00;fill-opacity:1;fill-rule:nonzero;stroke:none"
         d="m 645.2374,40.9209 c 4.0093,0 7.2493,3.2398 7.2493,7.2494 0,4.0062 -3.2431,7.249 -7.2493,7.249 -4.0031,0 -7.2491,-3.2462 -7.2491,-7.249 0,-4.0065 3.2428,-7.2494 7.2491,-7.2494"
         inkscape:connector-curvature="0" />
      <path
         id="path3216"
         style="fill:#ffcc00;fill-opacity:1;fill-rule:nonzero;stroke:none"
         d="m 694.5432,62.3137 c 4.0096,0 7.2493,3.2397 7.2493,7.2494 0,4.0062 -3.2428,7.2493 -7.2493,7.2493 -4.0028,0 -7.2491,-3.2465 -7.2491,-7.2493 0,-4.0065 3.2429,-7.2494 7.2491,-7.2494"
         inkscape:connector-curvature="0" />
      <path
         id="path3218"
         style="fill:#ffcc00;fill-opacity:1;fill-rule:evenodd;stroke:none"
         d="m 330.08,366.8491 c 3.1218,0 5.6526,-2.5308 5.6526,-5.6526 0,-3.1218 -2.5308,-5.6526 -5.6526,-5.6526 -3.1218,0 -5.6525,2.5308 -5.6525,5.6526 0,3.1218 2.5307,5.6526 5.6525,5.6526"
         inkscape:connector-curvature="0" />
      <path
         id="path3220"
         style="fill:#ffcc00;fill-opacity:1;fill-rule:evenodd;stroke:none"
         d="m 336.1365,371.8962 c 3.1218,0 5.6526,-2.5308 5.6526,-5.6526 0,-2.4627 -1.5755,-4.5576 -3.7729,-5.3323 0.003,0.0941 0.005,0.1902 0.005,0.2852 0,2.1861 -0.8893,4.1695 -2.3261,5.6069 l -0.008,0.008 c -1.181,1.1801 -2.7287,1.9908 -4.4555,2.2431 0.9751,1.6977 2.8063,2.8412 4.905,2.8412"
         inkscape:connector-curvature="0" />
      <path
         id="path3222"
         style="fill:#ffcc00;fill-opacity:1;fill-rule:evenodd;stroke:none"
         d="m 310.0927,396.3246 c -9.7183,-4.3549 -8.517,-11.5121 3.3012,-23.6722 -3.9093,-1.1641 -4.0014,-9.7871 -2.6955,-15.2923 1.4525,7.537 11.4339,15.1753 28.7691,22.7123 0.9131,4.1729 -3.9285,5.0139 -3.3188,8.2786 7.7786,6.1563 8.0652,11.8896 1.5767,17.2386 7.5591,4.3512 6.904,7.723 -3.5717,9.921 3.3486,10.1956 3.3778,16.2113 -0.5411,17.2545 -6.7629,-2.3037 -10.6654,-6.1949 -12.5833,-11.1909 -8.4691,3.6201 -10.0826,-0.2699 -7.2462,-9.0335 -6.5231,-2.7592 -7.3982,-8.3418 -3.6904,-16.2161"
         inkscape:connector-curvature="0" />
      <path
         id="path3224"
         style="fill:#ffcc00;fill-opacity:1;fill-rule:evenodd;stroke:none"
         d="m 299.1334,378.1553 c -0.5417,5.2053 -4.5298,6.9639 -12.7423,4.4972 -0.3802,12.9257 -3.5272,13.8132 -9.2906,3.3194 -13.0246,9.2355 -18.3427,8.657 -15.6189,-2.1631 0.6514,-2.3897 0.7651,-4.8311 0.0695,-7.2205 -6.2451,-2.1554 -5.2881,-3.7941 3.5407,-5.1417 -1.3745,-5.0755 2.1988,-7.5595 12.1295,-6.7125 -5.8011,-7.821 0.324,-8.6025 16.865,-3.2334 1.6733,-3.4847 6.095,-5.9006 12.6139,-7.5011 -2.8755,2.4837 -2.5716,6.279 -4.3872,6.5418 -1.6226,6.1087 5.2979,12.2196 4.7489,15.4315 -0.5018,2.9345 -7.4146,-0.3557 -7.9285,2.1824"
         inkscape:connector-curvature="0" />
      <path
         id="path3226"
         style="fill:#ffcc00;fill-opacity:1;fill-rule:evenodd;stroke:none"
         d="m 304.1294,418.9354 c -3.7338,8.1411 -9.1253,6.0168 -10.0329,9.4124 2.8304,6.7199 -0.8209,10.0355 -8.7582,11.1025 0.4328,17.6343 -1.7467,23.4609 -7.5048,13.0992 -13.3296,24.0216 -18.549,18.6279 -15.9967,-14.9556 -7.3996,-1.6175 -5.6823,-6.224 3.3383,-13.2248 -3.7938,-3.4052 -1.6168,-7.7473 8.3178,-13.3072 -4.2058,-8.4535 -0.9774,-13.7353 15.0077,-13.574 0.3047,-2.5506 1.7342,-3.9762 4.193,-4.373 -0.0754,-3.2338 1.7025,-6.1747 6.7419,-8.6006 -2.8978,10.9332 -1.2912,22.4118 4.6939,34.4211"
         inkscape:connector-curvature="0" />
      <path
         id="path3228"
         style="fill:#ffcc00;fill-opacity:1;fill-rule:evenodd;stroke:none"
         d="m 306.8048,445.7866 c -10.6209,0.1655 -10.8372,-4.94 -1.27,-15.0027 -4.3948,-3.6022 -4.1938,-6.9259 0.296,-9.9895 6.3226,7.7711 12.8531,12.3094 19.4459,13.8889 4.9873,0.2613 7.293,2.6229 6.0897,7.7286 7.3984,3.2066 8.6516,6.0217 3.3987,8.4218 9.2243,18.3753 4.2684,22.0359 -15.0403,10.8005 -5.7325,4.7452 -8.9598,4.3796 -7.9625,-4.6046 -6.2504,-0.5419 -7.5898,-4.5082 -4.9575,-11.243"
         inkscape:connector-curvature="0" />
      <path
         id="path3230"
         style="fill:#ffcc00;fill-opacity:1;fill-rule:evenodd;stroke:none"
         d="m 330.08,252.849 c 3.1218,0 5.6526,-2.5308 5.6526,-5.6526 0,-3.1221 -2.5308,-5.6528 -5.6526,-5.6528 -3.1218,0 -5.6525,2.5307 -5.6525,5.6528 0,3.1218 2.5307,5.6526 5.6525,5.6526"
         inkscape:connector-curvature="0" />
      <path
         id="path3232"
         style="fill:#ffcc00;fill-opacity:1;fill-rule:evenodd;stroke:none"
         d="m 336.1365,257.8961 c 3.1218,0 5.6526,-2.5308 5.6526,-5.6526 0,-2.4627 -1.5755,-4.5575 -3.7729,-5.3323 0.003,0.0942 0.005,0.19 0.005,0.2852 0,2.1861 -0.8893,4.1695 -2.3261,5.6069 l -0.008,0.008 c -1.181,1.1801 -2.7287,1.9905 -4.4555,2.2431 0.9751,1.6974 2.8063,2.8412 4.905,2.8412"
         inkscape:connector-curvature="0" />
      <path
         id="path3234"
         style="fill:#ffcc00;fill-opacity:1;fill-rule:evenodd;stroke:none"
         d="m 310.0927,282.3242 c -9.7183,-4.3546 -8.517,-11.5118 3.3012,-23.6719 -3.9093,-1.1641 -4.0014,-9.7871 -2.6955,-15.2923 1.4525,7.537 11.4339,15.175 28.7691,22.7123 0.9131,4.1729 -3.9285,5.0139 -3.3188,8.2786 7.7786,6.1563 8.0652,11.8894 1.5767,17.2386 7.5591,4.3512 6.904,7.723 -3.5717,9.921 3.3486,10.1956 3.3778,16.2113 -0.5411,17.2542 -6.7629,-2.3034 -10.6654,-6.1946 -12.5833,-11.1906 -8.4691,3.6201 -10.0826,-0.2702 -7.2462,-9.0335 -6.5231,-2.7592 -7.3982,-8.342 -3.6904,-16.2164"
         inkscape:connector-curvature="0" />
      <path
         id="path3236"
         style="fill:#ffcc00;fill-opacity:1;fill-rule:evenodd;stroke:none"
         d="m 299.1334,264.1552 c -0.5417,5.205 -4.5298,6.9639 -12.7423,4.4972 -0.3802,12.9257 -3.5272,13.8132 -9.2906,3.3194 -13.0246,9.2355 -18.3427,8.6567 -15.6189,-2.1634 0.6514,-2.3893 0.7651,-4.8308 0.0695,-7.2201 -6.2451,-2.1555 -5.2881,-3.7945 3.5407,-5.1418 -1.3745,-5.0754 2.1988,-7.5594 12.1295,-6.7125 -5.8011,-7.821 0.324,-8.6025 16.865,-3.2337 1.6733,-3.4844 6.095,-5.9003 12.6139,-7.5008 -2.8755,2.4837 -2.5716,6.2791 -4.3872,6.5415 -1.6226,6.109 5.2979,12.2199 4.7489,15.4319 -0.5018,2.9341 -7.4146,-0.3558 -7.9285,2.1823"
         inkscape:connector-curvature="0" />
      <path
         id="path3238"
         style="fill:#ffcc00;fill-opacity:1;fill-rule:evenodd;stroke:none"
         d="m 304.1294,304.9353 c -3.7338,8.1411 -9.1253,6.0168 -10.0329,9.4124 2.8304,6.7199 -0.8209,10.0353 -8.7582,11.1025 0.4328,17.6343 -1.7467,23.4609 -7.5048,13.0992 -13.3296,24.0216 -18.549,18.6276 -15.9967,-14.9556 -7.3996,-1.6175 -5.6823,-6.2243 3.3383,-13.225 -3.7938,-3.405 -1.6168,-7.7471 8.3178,-13.307 -4.2058,-8.4535 -0.9774,-13.7356 15.0077,-13.5743 0.3047,-2.5503 1.7342,-3.9758 4.193,-4.373 -0.0754,-3.2335 1.7025,-6.1744 6.7419,-8.6006 -2.8978,10.9332 -1.2912,22.4121 4.6939,34.4214"
         inkscape:connector-curvature="0" />
      <path
         id="path3240"
         style="fill:#ffcc00;fill-opacity:1;fill-rule:evenodd;stroke:none"
         d="m 306.8048,331.7865 c -10.6209,0.1655 -10.8372,-4.9399 -1.27,-15.0029 -4.3948,-3.602 -4.1938,-6.9256 0.296,-9.9893 6.3226,7.7711 12.8531,12.3094 19.4459,13.8886 4.9873,0.2616 7.293,2.6229 6.0897,7.7289 7.3984,3.2066 8.6516,6.0217 3.3987,8.4218 9.2243,18.3753 4.2684,22.0359 -15.0403,10.8005 -5.7325,4.7452 -8.9598,4.3796 -7.9625,-4.6046 -6.2504,-0.5419 -7.5898,-4.5082 -4.9575,-11.243"
         inkscape:connector-curvature="0" />
      <path
         id="path3242"
         style="fill:#ffcc00;fill-opacity:1;fill-rule:evenodd;stroke:none"
         d="m 330.08,138.8489 c 3.1218,0 5.6526,-2.5308 5.6526,-5.6526 0,-3.1221 -2.5308,-5.6528 -5.6526,-5.6528 -3.1218,0 -5.6525,2.5307 -5.6525,5.6528 0,3.1218 2.5307,5.6526 5.6525,5.6526"
         inkscape:connector-curvature="0" />
      <path
         id="path3244"
         style="fill:#ffcc00;fill-opacity:1;fill-rule:evenodd;stroke:none"
         d="m 336.1365,143.896 c 3.1218,0 5.6526,-2.5308 5.6526,-5.6529 0,-2.4624 -1.5755,-4.5572 -3.7729,-5.3322 0.003,0.0944 0.005,0.1902 0.005,0.2854 0,2.1861 -0.8893,4.1692 -2.3261,5.6067 l -0.008,0.009 c -1.181,1.1801 -2.7287,1.9905 -4.4555,2.2428 0.9751,1.6977 2.8063,2.8415 4.905,2.8415"
         inkscape:connector-curvature="0" />
      <path
         id="path3246"
         style="fill:#ffcc00;fill-opacity:1;fill-rule:evenodd;stroke:none"
         d="m 310.0927,168.3241 c -9.7183,-4.3546 -8.517,-11.5118 3.3012,-23.6721 -3.9093,-1.1639 -4.0014,-9.7869 -2.6955,-15.2921 1.4525,7.5368 11.4339,15.175 28.7691,22.7123 0.9131,4.1729 -3.9285,5.0139 -3.3188,8.2786 7.7786,6.1563 8.0652,11.8894 1.5767,17.2386 7.5591,4.3512 6.904,7.723 -3.5717,9.921 3.3486,10.1956 3.3778,16.2113 -0.5411,17.2542 -6.7629,-2.3034 -10.6654,-6.1948 -12.5833,-11.1906 -8.4691,3.6201 -10.0826,-0.2702 -7.2462,-9.0337 -6.5231,-2.759 -7.3982,-8.3418 -3.6904,-16.2162"
         inkscape:connector-curvature="0" />
      <path
         id="path3248"
         style="fill:#ffcc00;fill-opacity:1;fill-rule:evenodd;stroke:none"
         d="m 299.1334,150.1551 c -0.5417,5.205 -4.5298,6.9639 -12.7423,4.4972 -0.3802,12.9257 -3.5272,13.8132 -9.2906,3.3191 -13.0246,9.2358 -18.3427,8.657 -15.6189,-2.1631 0.6514,-2.3893 0.7651,-4.8308 0.0695,-7.2201 -6.2451,-2.1555 -5.2881,-3.7945 3.5407,-5.1421 -1.3745,-5.0751 2.1988,-7.5591 12.1295,-6.7121 -5.8011,-7.8211 0.324,-8.6026 16.865,-3.2338 1.6733,-3.4844 6.095,-5.9003 12.6139,-7.5008 -2.8755,2.4837 -2.5716,6.2791 -4.3872,6.5415 -1.6226,6.109 5.2979,12.2196 4.7489,15.4319 -0.5018,2.9341 -7.4146,-0.3558 -7.9285,2.1823"
         inkscape:connector-curvature="0" />
      <path
         id="path3250"
         style="fill:#ffcc00;fill-opacity:1;fill-rule:evenodd;stroke:none"
         d="m 304.1294,190.9352 c -3.7338,8.1408 -9.1253,6.0168 -10.0329,9.4122 2.8304,6.7201 -0.8209,10.0355 -8.7582,11.1027 0.4328,17.6343 -1.7467,23.461 -7.5048,13.0992 -13.3296,24.0216 -18.549,18.6276 -15.9967,-14.9556 -7.3996,-1.6174 -5.6823,-6.2243 3.3383,-13.225 -3.7938,-3.4053 -1.6168,-7.7471 8.3178,-13.307 -4.2058,-8.4538 -0.9774,-13.7356 15.0077,-13.5743 0.3047,-2.5503 1.7342,-3.9761 4.193,-4.373 -0.0754,-3.2335 1.7025,-6.1744 6.7419,-8.6006 -2.8978,10.9333 -1.2912,22.4122 4.6939,34.4214"
         inkscape:connector-curvature="0" />
      <path
         id="path3252"
         style="fill:#ffcc00;fill-opacity:1;fill-rule:evenodd;stroke:none"
         d="m 306.8048,217.7861 c -10.6209,0.1658 -10.8372,-4.9396 -1.27,-15.0026 -4.3948,-3.602 -4.1938,-6.9256 0.296,-9.9893 6.3226,7.7712 12.8531,12.3091 19.4459,13.8886 4.9873,0.2614 7.293,2.6229 6.0897,7.7289 7.3984,3.2066 8.6516,6.0217 3.3987,8.4215 9.2243,18.3753 4.2684,22.0362 -15.0403,10.8008 -5.7325,4.7452 -8.9598,4.3796 -7.9625,-4.6046 -6.2504,-0.5419 -7.5898,-4.5082 -4.9575,-11.2433"
         inkscape:connector-curvature="0" />
      <path
         id="path3254"
         style="fill:#ffcc00;fill-opacity:1;fill-rule:evenodd;stroke:none"
         d="m 330.08,24.8488 c 3.1218,0 5.6526,-2.5308 5.6526,-5.6529 0,-3.1218 -2.5308,-5.6525 -5.6526,-5.6525 -3.1218,0 -5.6525,2.5307 -5.6525,5.6525 0,3.1221 2.5307,5.6529 5.6525,5.6529"
         inkscape:connector-curvature="0" />
      <path
         id="path3256"
         style="fill:#ffcc00;fill-opacity:1;fill-rule:evenodd;stroke:none"
         d="m 336.1365,29.8959 c 3.1218,0 5.6526,-2.5308 5.6526,-5.6529 0,-2.4627 -1.5755,-4.5575 -3.7729,-5.3322 0.003,0.0944 0.005,0.1902 0.005,0.2851 0,2.1861 -0.8893,4.1695 -2.3261,5.607 l -0.008,0.0088 c -1.181,1.18 -2.7287,1.9904 -4.4555,2.2427 0.9751,1.6977 2.8063,2.8415 4.905,2.8415"
         inkscape:connector-curvature="0" />
      <path
         id="path3258"
         style="fill:#ffcc00;fill-opacity:1;fill-rule:evenodd;stroke:none"
         d="m 310.0927,54.324 c -9.7183,-4.3549 -8.517,-11.5121 3.3012,-23.6721 -3.9093,-1.1642 -4.0014,-9.7872 -2.6955,-15.2921 1.4525,7.5368 11.4339,15.175 28.7691,22.712 0.9131,4.1732 -3.9285,5.0142 -3.3188,8.2786 7.7786,6.1563 8.0652,11.8897 1.5767,17.2389 7.5591,4.3512 6.904,7.723 -3.5717,9.921 3.3486,10.1957 3.3778,16.2113 -0.5411,17.2542 -6.7629,-2.3034 -10.6654,-6.1948 -12.5833,-11.1906 -8.4691,3.6201 -10.0826,-0.2702 -7.2462,-9.0337 -6.5231,-2.7593 -7.3982,-8.3418 -3.6904,-16.2162"
         inkscape:connector-curvature="0" />
      <path
         id="path3260"
         style="fill:#ffcc00;fill-opacity:1;fill-rule:evenodd;stroke:none"
         d="m 299.1334,36.1548 c -0.5417,5.2052 -4.5298,6.9638 -12.7423,4.4971 -0.3802,12.9257 -3.5272,13.8135 -9.2906,3.3194 -13.0246,9.2356 -18.3427,8.657 -15.6189,-2.1631 0.6514,-2.3896 0.7651,-4.8308 0.0695,-7.2204 -6.2451,-2.1552 -5.2881,-3.7942 3.5407,-5.1418 -1.3745,-5.0754 2.1988,-7.5591 12.1295,-6.7124 -5.8011,-7.8208 0.324,-8.6023 16.865,-3.2335 1.6733,-3.4844 6.095,-5.9006 12.6139,-7.5008 -2.8755,2.4835 -2.5716,6.2791 -4.3872,6.5416 -1.6226,6.1089 5.2979,12.2195 4.7489,15.4318 -0.5018,2.9341 -7.4146,-0.3558 -7.9285,2.1821"
         inkscape:connector-curvature="0" />
      <path
         id="path3262"
         style="fill:#ffcc00;fill-opacity:1;fill-rule:evenodd;stroke:none"
         d="m 304.1294,76.9351 c -3.7338,8.1408 -9.1253,6.0168 -10.0329,9.4122 2.8304,6.7198 -0.8209,10.0355 -8.7582,11.1027 0.4328,17.6341 -1.7467,23.461 -7.5048,13.0989 -13.3296,24.0217 -18.549,18.6279 -15.9967,-14.9556 -7.3996,-1.6171 -5.6823,-6.224 3.3383,-13.2247 -3.7938,-3.4053 -1.6168,-7.7474 8.3178,-13.307 -4.2058,-8.4538 -0.9774,-13.7356 15.0077,-13.5743 0.3047,-2.5506 1.7342,-3.9761 4.193,-4.373 -0.0754,-3.2337 1.7025,-6.1747 6.7419,-8.6006 -2.8978,10.9333 -1.2912,22.4119 4.6939,34.4214"
         inkscape:connector-curvature="0" />
      <path
         id="path3264"
         style="fill:#ffcc00;fill-opacity:1;fill-rule:evenodd;stroke:none"
         d="m 306.8048,103.786 c -10.6209,0.1656 -10.8372,-4.9399 -1.27,-15.0026 -4.3948,-3.602 -4.1938,-6.9256 0.296,-9.9893 6.3226,7.7712 12.8531,12.3091 19.4459,13.8886 4.9873,0.2614 7.293,2.6229 6.0897,7.729 7.3984,3.2062 8.6516,6.0216 3.3987,8.4214 9.2243,18.3753 4.2684,22.0363 -15.0403,10.8009 -5.7325,4.7451 -8.9598,4.3795 -7.9625,-4.6046 -6.2504,-0.5423 -7.5898,-4.5083 -4.9575,-11.2434"
         inkscape:connector-curvature="0" />
    </g>
  </g>
</svg>
