<?xml version="1.0" encoding="utf-8"?>
<!-- Generator: Adobe Illustrator 24.1.1, SVG Export Plug-In . SVG Version: 6.00 Build 0)  -->
<svg version="1.1" id="Layer_1" xmlns="http://www.w3.org/2000/svg" xmlns:xlink="http://www.w3.org/1999/xlink" x="0px" y="0px"
	 viewBox="0 0 1000 500" style="enable-background:new 0 0 1000 500;" xml:space="preserve">
<style type="text/css">
	.st0{fill:#FFFFFF;}
	.st1{fill:#008EB7;}
	.st2{fill:#209C3A;}
	.st3{fill:#DA251D;}
	.st4{fill:#F7BD29;}
</style>
<g>
	<rect y="0" class="st0" width="1000" height="500"/>
	<rect y="0" class="st1" width="1000" height="168"/>
	<rect y="332" class="st2" width="1000" height="168"/>
	<rect y="172" class="st3" width="1000" height="156"/>
	<rect y="182" class="st4" width="1000" height="136"/>
	<path class="st0" d="M140,122c-21,0-38-17-38-38s17-38,38-38c2.5,0,5,0.3,7.4,0.7c-6.8-4.3-14.8-6.7-23.4-6.7
		c-24.3,0-44,19.7-44,44s19.7,44,44,44c8.6,0,16.6-2.5,23.4-6.7C145,121.7,142.5,122,140,122z"/>
	<g>
		<polygon class="st0" points="192.5,97.8 188,84 183.5,97.8 169,97.8 180.7,106.4 176.2,120.2 188,111.6 199.8,120.2 195.3,106.4 
			207,97.8 		"/>
		<polygon class="st0" points="232.5,97.8 228,84 223.5,97.8 209,97.8 220.7,106.4 216.2,120.2 228,111.6 239.8,120.2 235.3,106.4 
			247,97.8 		"/>
		<polygon class="st0" points="275.3,106.4 287,97.8 272.5,97.8 268,84 263.5,97.8 249,97.8 260.7,106.4 256.2,120.2 268,111.6 
			279.8,120.2 		"/>
		<polygon class="st0" points="200.7,82.4 196.2,96.2 208,87.6 219.8,96.2 215.3,82.4 227,73.8 212.5,73.8 208,60 203.5,73.8 
			189,73.8 		"/>
		<polygon class="st0" points="240.7,82.4 236.2,96.2 248,87.6 259.8,96.2 255.3,82.4 267,73.8 252.5,73.8 248,60 243.5,73.8 
			229,73.8 		"/>
	</g>
</g>
</svg>
