<?xml version="1.0" encoding="UTF-8" standalone="no"?>
<!-- Created with Inkscape (http://www.inkscape.org/) -->

<svg
   xmlns:dc="http://purl.org/dc/elements/1.1/"
   xmlns:cc="http://creativecommons.org/ns#"
   xmlns:rdf="http://www.w3.org/1999/02/22-rdf-syntax-ns#"
   xmlns:svg="http://www.w3.org/2000/svg"
   xmlns="http://www.w3.org/2000/svg"
   xmlns:sodipodi="http://sodipodi.sourceforge.net/DTD/sodipodi-0.dtd"
   xmlns:inkscape="http://www.inkscape.org/namespaces/inkscape"
   version="1.1"
   id="svg5814"
   width="5253.3335"
   height="3152"
   viewBox="0 0 5253.3335 3152"
   sodipodi:docname="Kumukh(new).svg"
   inkscape:version="0.92.4 (5da689c313, 2019-01-14)">
  <metadata
     id="metadata5820">
    <rdf:RDF>
      <cc:Work
         rdf:about="">
        <dc:format>image/svg+xml</dc:format>
        <dc:type
           rdf:resource="http://purl.org/dc/dcmitype/StillImage" />
        <dc:title></dc:title>
      </cc:Work>
    </rdf:RDF>
  </metadata>
  <defs
     id="defs5818" />
  <sodipodi:namedview
     pagecolor="#ffffff"
     bordercolor="#666666"
     borderopacity="1"
     objecttolerance="10"
     gridtolerance="10"
     guidetolerance="10"
     inkscape:pageopacity="0"
     inkscape:pageshadow="2"
     inkscape:window-width="1366"
     inkscape:window-height="705"
     id="namedview5816"
     showgrid="false"
     inkscape:zoom="0.12019918"
     inkscape:cx="2693.6036"
     inkscape:cy="1049.8156"
     inkscape:window-x="-8"
     inkscape:window-y="-8"
     inkscape:window-maximized="1"
     inkscape:current-layer="svg5814" />
  <path
     style="fill:#009fe3;stroke-width:1.33333337;fill-opacity:1"
     d="M -1.9531251e-6,1576 V -2.5e-5 H 2626.6667 5253.3335 V 1576 3152 H 2626.6667 -1.9531251e-6 Z"
     id="path5843"
     inkscape:connector-curvature="0" />
  <path
     style="fill:#ffffff;stroke-width:1.33333337"
     d="m 3457.9158,2257.3653 3.4227,-1.3013 -0.3359,-341.6987 -0.3358,-341.6986 -71.3334,-0.6667 c -39.6917,-0.3709 -72.0726,-0.1507 -73,0.4965 -1.3238,0.9242 -1.6666,56.0876 -1.6666,268.2382 0,241.0176 -0.2044,267.2793 -2.0952,269.1701 -1.8836,1.8836 -19.8558,2.0952 -177.9048,2.0952 -158.0491,0 -176.0212,-0.2116 -177.9048,-2.0952 -1.8947,-1.8948 -2.1271,-43.4519 -2.4286,-434.3333 -0.1833,-237.731 -0.3333,-479.3382 -0.3333,-536.9048 0,-57.5667 -0.4673,-105.3875 -1.0385,-106.2685 -1.4579,-2.2483 -140.4226,-2.5053 -143.1224,-0.2647 -1.5576,1.2927 -1.8422,83.6966 -1.8595,538.363 -0.013,336.0126 -0.4933,537.585 -1.2847,538.8368 -1.1134,1.7614 -22.3556,2 -178.0282,2 -155.6727,0 -176.9149,-0.2386 -178.0283,-2 -0.7914,-1.2518 -1.2719,-202.786 -1.2847,-538.7333 -0.016,-415.6587 -0.3813,-537.0943 -1.6204,-538.3333 -2.3689,-2.369 -141.7869,-2.3041 -143.3213,0.067 -0.5932,0.9167 -1.0787,47.8667 -1.0787,104.3334 0,528.9214 -0.896,970.9649 -1.9717,972.6666 -1.1116,1.7587 -22.5479,2.0388 -177.6462,2.3214 -98.8426,0.18 -177.1841,-0.1906 -178.2064,-0.8428 -1.5328,-0.978 -1.8525,-44.0156 -2,-269.2098 -0.097,-147.425 -0.5066,-268.3768 -0.9112,-268.7816 -1.0474,-1.0481 -144.0189,-1.1773 -145.0652,-0.1306 -0.4762,0.4762 -1.0217,154.0674 -1.212,341.3136 -0.314,308.8826 -0.1505,340.6432 1.7619,342.5557 1.9172,1.9171 76.9697,2.1079 829.2592,2.1079 534.6363,0 828.3618,-0.4602 830.574,-1.3014 z"
     id="path5828" />
  <path
     style="fill:#f7b500;stroke-width:1.33333337;fill-opacity:1"
     d="m 2034.209,1330.6667 c 26.8253,-13.9334 49.0471,-25.3334 49.3817,-25.3334 0.3346,0 22.5284,11.4 49.3196,25.3334 26.7912,13.9333 49.2464,25.3333 49.9006,25.3333 1.8717,0 1.6809,-1.3716 -7.5495,-54.2615 -4.8063,-27.5398 -8.5563,-51.6472 -8.3333,-53.572 0.3009,-2.5982 10.3664,-13.1174 39.072,-40.8332 21.2666,-20.5333 38.8446,-38.0002 39.0622,-38.8154 0.4688,-1.7567 3.2318,-1.2826 -57.4718,-9.8618 -26.5414,-3.7511 -49.6002,-7.3672 -51.2416,-8.0358 -2.2094,-0.9 -9.3076,-13.8673 -27.3262,-49.9205 -13.3877,-26.7875 -24.9446,-48.5355 -25.682,-48.3287 -0.9841,0.276 -47.4173,90.1703 -50.2938,97.3684 -0.2358,0.59 -24.9975,4.6498 -55.0262,9.0216 -30.0285,4.3719 -55.1014,8.4531 -55.7177,9.0693 -0.6163,0.6162 16.606,18.1541 38.2716,38.9731 21.6656,20.8191 39.6631,38.5591 39.9943,39.4223 0.3313,0.8633 -3.5558,25.4656 -8.6379,54.6719 -5.0823,29.2063 -9.2457,53.5523 -9.2523,54.1023 -0.013,0.55 0.6111,1 1.3726,1 0.7613,0 23.3324,-11.4 50.1577,-25.3333 z"
     id="path5839" />
  <path
     style="fill:#f7b500;stroke-width:1.33333337;fill-opacity:1"
     d="m 3113.4578,1330.5485 49.1452,-25.4515 49.1344,25.4515 c 27.0239,13.9983 49.5382,25.4515 50.0319,25.4515 1.7231,0 0.8383,-6.3665 -7.7692,-55.8976 -4.7667,-27.4297 -8.6667,-50.9334 -8.6667,-52.2306 0,-1.3489 16.831,-18.5216 39.3166,-40.1152 21.6241,-20.7661 39.3241,-38.4398 39.3333,-39.2749 0.02,-1.8725 1.6288,-1.5947 -56.6499,-9.7848 -26.4,-3.7101 -49.3546,-7.0473 -51.0105,-7.416 -2.4388,-0.543 -7.6937,-10.034 -27.6701,-49.9756 C 3175.09,1074.1874 3163.3962,1052 3162.6668,1052 c -0.7295,0 -12.4232,22.1874 -25.986,49.3053 -20.0204,40.0294 -25.226,49.4282 -27.6702,49.9585 -1.6558,0.3593 -24.6105,3.6998 -51.0105,7.4235 -58.6683,8.2749 -56.6667,7.9271 -56.6667,9.8472 0,0.8641 17.7,18.5628 39.3334,39.3303 21.6333,20.7676 39.3126,38.7438 39.2873,39.9472 -0.025,1.2034 -4.1416,25.588 -9.1475,54.188 -5.006,28.6 -8.8498,52.45 -8.5421,53 0.3079,0.55 0.8945,1 1.3039,1 0.4093,0 22.8596,-11.4532 49.8894,-25.4515 z"
     id="path5837" />
  <path
     style="fill:#f7b500;stroke-width:1.33333337;fill-opacity:1"
     d="m 2583.1269,982.62923 48.8732,-25.37076 48.9435,25.4072 c 26.9189,13.97397 49.6722,25.12753 50.5632,24.78563 0.8908,-0.3418 1.3596,-1.7082 1.0418,-3.0364 -1.2278,-5.13179 -17.8818,-102.51465 -17.8818,-104.56295 0,-1.19118 17.7,-19.13468 39.3333,-39.87447 34.9572,-33.51331 42.1745,-41.31081 38.2372,-41.31081 -2.0076,0 -103.5208,-14.60926 -106.5811,-15.33859 -2.4237,-0.57767 -7.8164,-10.32657 -27.6701,-50.02279 C 2644.4233,726.18739 2632.7296,704 2632.0001,704 c -0.7295,0 -12.4232,22.18739 -25.986,49.30529 -19.8538,39.69622 -25.2464,49.44512 -27.6702,50.02279 -3.0602,0.72933 -104.5734,15.33859 -106.581,15.33859 -3.9671,0 3.316,7.87709 38.2372,41.35585 27.6289,26.48777 39.3157,38.54219 39.2741,40.50975 -0.032,1.54058 -4.1416,25.90106 -9.1312,54.1344 -4.9896,28.23333 -8.8275,51.78333 -8.5288,52.33333 0.2988,0.55 1.0149,1 1.5913,1 0.5764,0 23.041,-11.41684 49.9214,-25.37077 z"
     id="path5826" />
</svg>
