<!-- Created with Inkscape (http://www.inkscape.org/) -->
<svg xmlns:rdf="http://www.w3.org/1999/02/22-rdf-syntax-ns#" xmlns="http://www.w3.org/2000/svg" height="216" width="432" version="1.1" xmlns:cc="http://creativecommons.org/ns#" xmlns:dc="http://purl.org/dc/elements/1.1/">
 <metadata>
  <rdf:RDF>
   <cc:Work rdf:about="">
    <dc:format>image/svg+xml</dc:format>
    <dc:type rdf:resource="http://purl.org/dc/dcmitype/StillImage"/>
    <dc:title/>
   </cc:Work>
  </rdf:RDF>
 </metadata>
 <g transform="translate(0,-836.36219)">
  <rect opacity="0.96" height="72" width="432" y="908.36" x="0" fill="#FFF"/>
  <rect opacity="0.96" height="72" width="432" y="980.36" x="0" fill="#F00"/>
  <rect opacity="0.96" height="72" width="432" y="836.36" x="0" fill="#00C"/>
  <path style="enable-background:accumulate;color:#000000;" fill-rule="nonzero" fill="#F00" d="m215.67,912.8-3.5625,8.5312-6.1875-6.875-0.75,9.2188-8-4.625,2.125,8.9688-9.0312-1.9375,4.8125,7.9062-9.1875,0.9375,7,6.0312-8.4375,3.75,8.5,3.5625-6.875,6.1562,9.2188,0.75-4.625,8,8.9688-2.125-1.9375,9.0312,7.9062-4.8125,0.9375,9.2188,6.0312-7.0312,3.75,8.4688,3.5625-8.5312,6.1562,6.875,0.75-9.2188,8,4.6562-2.125-9,9.0312,1.9375-4.8125-7.9062,9.2188-0.9375-7.0312-6.0312,8.4688-3.7188-8.5312-3.5625,6.875-6.1875-9.2188-0.75,4.6562-8-9,2.125,1.9375-9.0312-7.9062,4.8125-0.9375-9.1875-6.0312,7-3.7188-8.4688zm-0.5625,12.562c0.53739-0.0252,1.0814-0.0213,1.625,0,1.2426,0.0487,2.496,0.22728,3.75,0.53125l0.4375,0.0937c10.143,2.7177,16.155,13.17,13.438,23.312-2.7177,10.143-13.139,16.155-23.281,13.438-10.143-2.7177-16.155-13.139-13.438-23.281,2.1916-8.1794,9.4078-13.715,17.469-14.094zm0.1875,3.9688c-6.376,0.29998-12.079,4.6852-13.812,11.156-2.1501,8.0243,2.6007,16.256,10.625,18.406,8.0243,2.1501,16.256-2.6007,18.406-10.625,2.1501-8.0243-2.6007-16.287-10.625-18.438l-0.34375-0.0937c-0.99211-0.24049-1.9857-0.36775-2.9688-0.40625-0.43009-0.0169-0.85619-0.02-1.2812,0z"/>
 </g>
</svg>
