<?xml version="1.0" encoding="UTF-8" standalone="no"?>
<svg
   xmlns:dc="http://purl.org/dc/elements/1.1/"
   xmlns:cc="http://creativecommons.org/ns#"
   xmlns:rdf="http://www.w3.org/1999/02/22-rdf-syntax-ns#"
   xmlns:svg="http://www.w3.org/2000/svg"
   xmlns="http://www.w3.org/2000/svg"
   xmlns:sodipodi="http://sodipodi.sourceforge.net/DTD/sodipodi-0.dtd"
   xmlns:inkscape="http://www.inkscape.org/namespaces/inkscape"
   xml:space="preserve"
   width="1050"
   height="700"
   style="shape-rendering:geometricPrecision; text-rendering:geometricPrecision; image-rendering:optimizeQuality; fill-rule:evenodd; clip-rule:evenodd"
   viewBox="0 0 297 198"
   id="svg2"
   sodipodi:version="0.32"
   inkscape:version="0.47pre4 r22446"
   sodipodi:docname="Flag_of_Sicily.svg"
   version="1.0"><metadata
     id="metadata71"><rdf:RDF><cc:Work
         rdf:about=""><dc:format>image/svg+xml</dc:format><dc:type
           rdf:resource="http://purl.org/dc/dcmitype/StillImage" /><dc:title>Flag of Sicily</dc:title><dc:date>December 1, 2005</dc:date><dc:creator><cc:Agent><dc:title>Angelo Romano</dc:title></cc:Agent></dc:creator><cc:license
           rdf:resource="http://web.resource.org/cc/PublicDomain" /></cc:Work><cc:License
         rdf:about="http://web.resource.org/cc/PublicDomain"><cc:permits
           rdf:resource="http://web.resource.org/cc/Reproduction" /><cc:permits
           rdf:resource="http://web.resource.org/cc/Distribution" /><cc:permits
           rdf:resource="http://web.resource.org/cc/DerivativeWorks" /></cc:License></rdf:RDF></metadata><sodipodi:namedview
     inkscape:window-height="712"
     inkscape:window-width="1024"
     inkscape:pageshadow="2"
     inkscape:pageopacity="0.0"
     borderopacity="1.0"
     bordercolor="#666666"
     pagecolor="#ffffff"
     id="base"
     inkscape:zoom="0.77857143"
     inkscape:cx="525"
     inkscape:cy="352.0246"
     inkscape:window-x="-4"
     inkscape:window-y="-4"
     inkscape:current-layer="layer3"
     showgrid="true"
     inkscape:grid-bbox="true"
     inkscape:grid-points="true"
     gridtolerance="25px"
     inkscape:window-maximized="0"><inkscape:grid
       id="GridFromPre046Settings"
       type="xygrid"
       originx="0px"
       originy="0px"
       spacingx="50px"
       spacingy="50px"
       color="#0000ff"
       empcolor="#0000ff"
       opacity="0.2"
       empopacity="0.4"
       empspacing="5" /></sodipodi:namedview><defs
     id="defs4"><inkscape:perspective
       sodipodi:type="inkscape:persp3d"
       inkscape:vp_x="0 : 350 : 1"
       inkscape:vp_y="0 : 1000 : 0"
       inkscape:vp_z="1050 : 350 : 1"
       inkscape:persp3d-origin="525 : 233.33333 : 1"
       id="perspective61" /><style
       type="text/css"
       id="style6">
   
    .str1 {stroke:#1F1A17;stroke-width:0.1764}
    .str2 {stroke:#1F1A17;stroke-width:0.3528}
    .str0 {stroke:#131516;stroke-width:0.3528}
    .str4 {stroke:#EEB300;stroke-width:0.3528}
    .str3 {stroke:#F5D300;stroke-width:0.3528}
    .fil6 {fill:none}
    .fil7 {fill:#1F1A17}
    .fil9 {fill:white}
    .fil12 {fill:#009F3C}
    .fil10 {fill:#00A03B}
    .fil5 {fill:#2DA638}
    .fil8 {fill:#4E9145}
    .fil11 {fill:#65B857}
    .fil1 {fill:#DA2724}
    .fil4 {fill:#E4A615}
    .fil3 {fill:#EFC899}
    .fil13 {fill:#F3E400}
    .fil0 {fill:#F5CB00}
    .fil2 {fill:#1F1A17;fill-rule:nonzero}
    .fil14 {fill:#EEB300;fill-rule:nonzero}
   
  </style><metadata
       id="ID_0-Layer" /><inkscape:perspective
       id="perspective2917"
       inkscape:persp3d-origin="0.5 : 0.33333333 : 1"
       inkscape:vp_z="1 : 0.5 : 1"
       inkscape:vp_y="0 : 1000 : 0"
       inkscape:vp_x="0 : 0.5 : 1"
       sodipodi:type="inkscape:persp3d" /></defs><g
     inkscape:groupmode="layer"
     id="layer3"
     inkscape:label="Face"><rect
       style="opacity:1;fill:#da272f;fill-opacity:1;fill-rule:nonzero;stroke:none;stroke-width:0.25;stroke-linecap:round;stroke-linejoin:round;stroke-miterlimit:4;stroke-dasharray:none;stroke-dashoffset:0.99999998;stroke-opacity:1"
       id="rect1939"
       width="297"
       height="198"
       x="0"
       y="0" /><path
       style="fill:#f5ca00;fill-opacity:1;fill-rule:evenodd;stroke:none;stroke-width:1px;stroke-linecap:butt;stroke-linejoin:miter;stroke-opacity:1"
       d="M 0,0 L 0,198 L 297,198 L 0,0 z "
       id="path2815"
       sodipodi:nodetypes="cccc" /><g
       transform="matrix(0.44505073,0,0,0.44505073,-29.492086,-19.610076)"
       id="g3000"><path
         style="fill:#000000;stroke:#000000;stroke-width:0.09375"
         id="path8"
         d="m 389.4,99.2 c 5,-1.4 10.3,-1.3 15.5,-0.9 2.8,0.2 4.4,2.9 6,4.9 1.7,2.2 4,4.1 4.6,6.9 3.9,14.6 12.6,27.7 13.8,43 0.6,7.8 2.1,15.5 4.1,23.1 0.8,6.9 0.5,13.9 0.6,20.9 0.1,3.6 -1.3,7 -1.6,10.6 1.6,4.5 5.4,7.7 8,11.6 1.8,-0.7 3.8,-1.2 5.3,-2.6 1.2,-1.7 1.7,-3.8 2.5,-5.8 0.4,0.6 0.9,1.2 1.3,1.8 0.2,-2 0.4,-4 1,-6 1.4,-0.9 3,-1.5 4.5,-2.1 -0.5,-5.3 0.3,-11.1 -2.8,-15.8 -2.5,-4 -5.6,-8 -6,-12.8 -0.6,-8.1 0.8,-16.2 2,-24.1 2.7,-1.4 6.3,-3.3 5.8,-6.9 -0.2,-4.6 -0.3,-9.2 0.4,-13.7 0.3,0 1,0.1 1.3,0.2 -0.4,3.9 -0.8,7.8 -1.1,11.7 0.8,0 2.2,0.1 2.9,0.2 -0.5,-2.5 0.6,-4.7 2.2,-6.5 1.3,0.6 2.5,1.2 3.7,1.9 0.1,-0.7 0.3,-2 0.4,-2.7 1.2,0.3 2.3,0.6 3.4,0.9 -0.4,-2.7 -0.7,-5.5 -0.8,-8.3 1.9,3.6 2.7,7.6 3.3,11.6 -1.8,0.1 -3.5,0.2 -5.3,0.3 0,0.5 -0.1,1.4 -0.1,1.9 -0.3,3.4 -0.5,6.8 0.6,10.1 1.1,-1.8 2.4,-3.5 2.9,-5.6 -0.4,-1.7 -1.2,-3.3 -1.8,-4.9 l 0.7,-0.2 c 2.6,1.6 5,3.3 7.6,4.8 0.5,-3.6 0.2,-7.2 0.2,-10.8 2.6,6.4 1.6,13.5 3.5,20.2 -0.9,0.1 -2.7,0.2 -3.6,0.3 1,2.4 2.1,4.7 3.2,6.9 0.6,-2.4 1,-4.9 1.6,-7.4 0.2,-0.7 0.6,-2.3 0.8,-3.1 0.4,3.3 0.6,6.5 0.8,9.8 -1.3,0.5 -2.6,1.1 -3.8,1.7 0.7,4.5 1.7,9 2.3,13.5 -0.5,3.1 -1.9,6.1 -4.4,8 -3.6,3 -7.1,6.3 -10.1,9.9 -1.7,4 -1.3,8.9 1,12.7 -0.1,-1.1 -0.2,-2.1 -0.3,-3.2 4.7,-5.1 10.6,-9.2 14.1,-15.4 1.6,6.9 1,14.8 -3.1,20.7 -2,2.9 -2,6.5 -3.4,9.6 -1.8,2.5 -3.8,4.8 -6.1,6.8 -4.6,3.2 -10.7,5.2 -12.9,10.9 6.1,2.9 10.8,8.6 12,15.2 1.5,9 6.4,17 7.5,26 0.4,2.3 0.4,5.4 2.9,6.6 3.1,1.4 6.2,2.8 8.5,5.4 5.2,5.2 11.6,9.1 16.2,14.9 2.4,3 5.3,5.7 8.4,8.2 0.4,-0.6 1.1,-1.7 1.5,-2.2 -2.8,-2.6 -5.8,-5 -7.6,-8.3 -1.9,-3.5 -3.8,-7.1 -5.8,-10.5 0.4,-0.8 0.9,-1.5 1.3,-2.3 -1.2,-1.4 -3,-2.8 -2.6,-4.8 1.3,-11.6 4.2,-23.1 3,-34.7 -0.8,-6.8 -1.1,-14 -4.7,-19.9 -2.4,-4.2 -3.5,-9 -6.1,-13 -2.5,-3.5 -0.6,-7.8 -1.3,-11.8 2.9,-2 6.6,-2.3 9.9,-3.6 5.5,-3.1 11.3,-6 15.6,-10.8 -0.6,-1.4 -1.2,-2.7 -1.8,-4.1 1,0.9 2,1.7 3,2.6 4.4,-5 10.7,-9.1 17.6,-7.6 -0.1,-0.5 -0.2,-1.6 -0.2,-2.1 3.6,0 7.1,0.1 10.7,0.1 -0.7,0.9 -1.5,1.8 -2.2,2.7 2.4,-1.3 4.8,-2.5 7.3,-3.8 1.5,2.5 2.8,5.1 3.6,7.9 -4.5,3.2 -8.7,6.8 -13.5,9.5 -5.4,3 -7.4,9.2 -11.2,13.7 -3,3.6 -4.8,8.1 -4.8,12.8 3.2,7.3 4,15.3 5.8,23 0.3,-0.1 1,-0.2 1.3,-0.3 0.7,4.4 2.3,8.6 3.3,12.9 2,6.7 3.5,13.5 6.8,19.7 -0.5,1.1 -1.1,2.2 -1.7,3.4 2.4,3.5 0.9,7.9 2.8,11.6 2.1,5 3.2,10.3 4.7,15.5 1.4,4.9 1.3,10.4 4.3,14.8 3.2,4.5 3.8,10.6 2.6,15.9 -3.5,6.9 -8.8,14.8 -17.5,14.9 -5.1,-2.3 -10.3,-4.7 -16,-5.2 -11.8,-1.4 -23.4,-4.4 -35.1,-6.3 -12.5,-1.1 -23.4,-7.8 -34.6,-12.8 -3,-1.6 -7.5,-2.4 -7.7,-6.5 -0.6,0.3 -1.3,0.6 -1.9,0.9 -2.2,-2.2 -5.4,-2.5 -8.1,-3.8 -3.6,-1.8 -6.7,-4.6 -9.7,-7.3 -1.7,1 -4.1,1.5 -4.6,3.6 -0.8,2.6 -2.1,5.2 -1.9,7.9 1,4.6 4.6,7.9 8,10.9 -1.7,-0.2 -3.3,-0.4 -5,-0.6 1.4,2.8 3.2,5.7 6.5,6.4 5,1.2 10.2,2 14.8,4.6 -4.6,2.5 -9.8,3.6 -14.1,6.5 3.3,1.7 6.2,4.1 9.9,5 4.8,1.3 9.9,1.6 14.8,1.4 2.1,0.1 4.4,-0.2 6.3,0.7 6.5,2.9 12.4,6.7 18,11 -1.4,-0.1 -2.9,-0.3 -4.3,-0.4 2.1,2.8 4.9,4.9 7.1,7.6 1.4,2.8 2,6.3 4.5,8.4 2.2,1.1 4.5,2 6.6,3.2 -1.9,-0.5 -3.9,-1.1 -5.8,-1.5 1.3,4 5.7,5.1 8.1,8.3 -2,-0.6 -4,-1.5 -6,-2.4 -0.8,2.7 0.7,4.9 2.3,6.9 -2.4,-1.2 -4.6,-2.9 -6.8,-4.3 -3.8,0.3 -7.1,2 -10.2,3.9 -2.7,0.1 -4.1,-2.6 -5.5,-4.4 -1.5,0.6 -3,1.2 -4.4,1.9 0.7,1.1 1.5,2.3 2.3,3.5 -3.4,-1 -6.7,-2.3 -10.3,-2.3 -1.7,0.2 -2.1,-1.8 -2.8,-3 -1,0.1 -2,0.3 -2.9,0.4 -5.1,-5.2 -12.9,-10 -12.6,-18.2 -2.9,-2 -5.4,-4.5 -6.2,-8 -0.3,-2 -2,-3.1 -3.7,-3.8 -0.7,4.4 -0.7,9.1 -2.8,13.2 -0.3,0 -1,-0.1 -1.3,-0.1 C 415.8,371 410,362.8 404,355 c -0.9,-1.9 -2.8,-2.2 -4.7,-1.7 -1.4,0.3 -2.7,0.1 -3.8,-0.5 -0.2,-0.6 -0.6,-1.6 -0.7,-2.2 2.1,-0.8 4.3,-1.6 6.4,-2.6 -3.4,-0.7 -6.9,-0.9 -10.3,-1.7 -0.3,-1.2 -0.6,-2.4 -0.8,-3.7 -0.8,1.3 -1.5,2.6 -2.3,3.8 -1.6,-6.2 -1,-12.7 -0.5,-19 0.5,-2.3 -1.6,-3.8 -2.4,-5.6 -0.7,-3.2 0.2,-6.7 -0.9,-9.9 -3,-2.1 -6,-4.4 -8.1,-7.5 -4.6,2.1 -9,4.4 -13,7.5 -4.4,3.4 -9.8,4.7 -14.5,7.5 -2.4,1.5 -5.2,2 -7.8,3.1 -2.8,1.6 -5.4,3.5 -8.5,4.5 -4.3,1.7 -9,1.2 -13.4,2.5 -5.4,1.5 -11.8,0.7 -16.3,4.7 8.6,-0.9 17.5,-2.1 26,0.5 3.2,1.1 7.1,2 8.7,5.3 3.3,0.3 6.1,2.2 8.1,4.7 3.4,3.6 8,5.4 11.9,8.1 7.9,5.1 17.4,5.8 26,9 5.2,2.1 11,1.1 16.4,1.8 4.9,2.6 6.1,9.2 5.5,14.2 -2.3,5.3 -3.1,11 -3.1,16.6 0.9,0 1.7,0 2.5,0 1.5,7.5 3.4,15.8 -0.4,23 -1.2,0 -2.4,-0.1 -3.6,-0.1 0.7,0.9 1.3,1.7 2,2.6 -4.9,3.9 -3.4,12.3 -9.8,14.8 -2.6,1 -5.8,-0.8 -5.9,-3.7 -0.2,-5.4 -0.2,-10.8 -1.7,-16 -1,-4.1 -4.3,-7.2 -5.9,-11 -1.8,-4.5 -5,-8.3 -8.1,-11.9 0.3,-1.2 0.6,-2.4 0.9,-3.6 -1.1,0.8 -2.1,1.7 -3.1,2.5 -7,-4.3 -15.2,-5.4 -22.9,-8.1 -3.9,-1.4 -8.1,-1.7 -12.2,-2.4 -5.5,-0.9 -10.7,-3.2 -16.1,-4.4 -6.9,-2.8 -15.7,-2.3 -20.3,-9 -0.2,1 -0.5,2 -0.8,3 -5.2,-3.8 -11.7,-3.8 -17.6,-5.8 -7.9,-1.2 -16.3,-2.4 -22.8,-7.4 -3.2,-4.3 -5.5,-9.4 -6.4,-14.8 1.2,-4.2 3.1,-8.2 5.8,-11.6 3.4,-4.3 7.9,-7.5 11.2,-11.8 5.4,-4.9 9.3,-11.4 15.6,-15.2 0.6,-3.2 3,-5.4 5.3,-7.5 0,1.2 0,2.4 0,3.6 1.3,-2.3 1.9,-5.1 3.9,-7.1 8.1,-8.4 17.7,-15.2 27.6,-21.2 2.8,-2.7 6.6,-4 10.3,-5 0,-1.6 0,-3.3 -0.1,-5 0.7,-0.1 2.1,-0.4 2.7,-0.5 -0.7,-1.2 -1.5,-2.4 -2.2,-3.6 1.5,-2.7 2.8,-5.4 3.5,-8.4 -7.7,0.3 -13.1,6.5 -20.1,9 1.2,-4.8 3.8,-9 5,-13.8 -2.7,1.5 -5.7,2.5 -8.2,4.2 -2.2,3.7 -3.9,7.8 -7,10.9 -2.3,2.5 -5.8,3.3 -8.3,5.6 -2.9,2.5 -5.6,5.2 -8.7,7.5 0.7,-1.5 1.4,-2.9 2.1,-4.4 -2.1,0.3 -4.4,0.2 -6.4,0.9 -1.2,0.9 -2.2,2.1 -3.2,3.2 -2.4,-1 -4.7,-2.4 -7.3,-2.8 -1.2,0.8 -2.2,1.8 -3.3,2.8 -1.6,-1.2 -3.3,-2.5 -4.9,-3.7 -3.2,0.9 -6.5,1.7 -9.6,2.7 -1.7,-1.5 -3.5,-2.9 -5.3,-4.3 3.5,-2 5.7,-5.5 7.4,-9.1 1.1,-1.6 -0.6,-3.1 -1.3,-4.5 2.1,-1.1 4.4,-2 6.4,-3.3 1,-1.5 1.4,-3.2 2,-4.9 -1.6,-0.2 -3.2,-0.4 -4.9,-0.6 3.9,-2.1 8.3,-2.2 12.6,-1.6 1,-1.6 2.1,-3 3.1,-4.5 -3.1,-2.1 -7.2,-0.4 -10.7,-0.8 3.2,-1.5 6.7,-2.1 10.2,-1.9 5.3,0.4 10.5,-0.8 15.8,-0.9 -3.2,-1.3 -6.7,-1.7 -10,-2.6 10.4,-1 20.1,4.3 30.4,5.1 0,-0.7 0.1,-2 0.1,-2.7 -3.9,-1.6 -5.6,-5.5 -6.7,-9.2 11.7,3.2 24,1.8 36,1.1 5.8,0.1 11.6,1.8 17.4,2.1 5.4,-4.8 9,-11.2 14,-16.5 1.3,0.8 2.7,1.6 4.1,2.3 3.6,-7.3 -0.2,-15.4 2.1,-23 1.8,-6.3 2.5,-12.9 4.8,-19.1 2.8,-7.1 6.7,-14 7.4,-21.7 -1.9,1.3 -3.8,2.9 -4.6,5.2 -2.5,6.7 -6.2,12.9 -11.3,17.9 -7.4,6 -16.8,8.2 -25.5,11.6 -10.7,5.7 -19.4,14.7 -26.7,24.3 -1,-0.6 -2,-1.2 -3,-1.8 0.8,1.7 1.6,3.5 2.6,5.2 -3.6,2.5 -6.3,6 -10,8.3 -2.8,0.4 -5.8,0.6 -8.5,-0.2 -4.8,-3.2 -8.9,-7.5 -10.9,-13 0.1,1.1 0.3,2.2 0.4,3.3 -3.5,-1 -7,-2 -10.6,-2.8 -0.1,-1 -0.3,-2 -0.4,-3 -1.5,0.6 -3.1,1.5 -4.8,1.7 -2.7,-0.6 -5,-2.1 -7.1,-3.8 -4.7,-4.1 -9.9,-8.9 -9.5,-15.6 -1.3,-0.8 -2.7,-1.5 -4,-2.2 0.1,-2.1 -0.3,-4.4 0.6,-6.4 1.3,-2.2 3.3,-3.9 5,-5.8 0.9,0.6 1.8,1.2 2.7,1.8 0.9,2.7 2.7,4.9 5,6.4 1.8,0.4 3.6,0.4 5.3,0.6 8.1,2.2 17,0.6 24.6,4.7 0.3,-0.2 1,-0.6 1.3,-0.8 -0.9,-0.3 -2.6,-1 -3.4,-1.4 3.5,-1.4 7.4,-1.8 11,-3 2.5,-1.4 4.4,-3.8 6.5,-5.7 1.9,-1.7 4.4,-2.7 6.4,-4.4 2.1,-3 2.9,-6.8 5.5,-9.5 2,-2 4.5,-3.4 6.6,-5.4 2.9,-2.5 4.8,-5.8 7.4,-8.6 2.8,-2.9 6,-5.4 9.1,-7.9 2.7,-2.3 4.3,-5.6 7.2,-7.8 4.1,-3.1 8.8,-5.9 11.7,-10.3 2.7,-4.2 8.8,-4.5 10.7,-9.3 3.1,-5.1 7.2,-9.6 11.8,-13.4 z" /><path
         style="fill:#ffcb99;stroke:#ffcb99;stroke-width:0.09375"
         id="path10"
         d="m 372,123 c 7.5,-6.7 14.5,-13.9 21,-21.5 3.6,0.3 7.5,-0.1 11,1.4 2.6,1.1 2.9,4.2 3.8,6.6 0.9,0.2 1.7,0.3 2.6,0.5 0.1,4.7 1,10 4.8,13.2 -1.1,0.4 -2.2,0.9 -3.3,1.3 1.2,0.5 2.3,1 3.5,1.6 -0.5,0.9 -0.9,1.8 -1.3,2.7 1,0.4 1.9,0.9 2.9,1.3 -0.6,0.8 -1.2,1.6 -1.9,2.3 0.8,0.6 2.2,1.6 3,2.2 -2.1,0.1 -4.2,0 -6.3,-0.1 2.4,1.2 5,2 7.2,3.5 1.4,1.7 2.2,3.9 3.2,5.8 -0.8,0.1 -2.5,0.4 -3.3,0.6 1,1 2.1,2 3.1,3 -1,0.8 -2,1.5 -3,2.3 1.2,0.2 2.5,0.4 3.8,0.6 0.6,2.4 1.1,4.8 1.7,7.2 -2.1,-0.4 -4.3,-0.8 -6.5,-1.2 3.6,1.8 7,4.2 9.1,7.8 -0.3,0.9 -0.7,1.9 -1.1,2.9 1.1,1.4 2.2,2.8 3.2,4.2 -1.4,-0.1 -2.9,-0.3 -4.4,-0.5 2.7,2.8 4.2,6.4 4.6,10.2 -0.9,0 -2.7,0.1 -3.7,0.1 1.6,1.4 3.1,2.7 4.1,4.6 -2.3,-0.4 -4.6,-1.1 -6.9,-1.6 2.1,1.7 4.5,2.9 6.6,4.4 -0.3,2.3 0,4.7 0.9,6.9 -1,1.4 -1.7,2.9 -2.7,4.3 1.3,2.4 1.5,5 1.5,7.6 -5.5,0.8 -12.5,1.4 -16.4,-3.5 -3.3,0.7 -6.5,1.8 -9.9,2.6 -4.1,0.7 -7.9,-1.5 -11.8,-2.2 -3.6,0.9 -6.8,2.8 -10.1,4.5 0.5,-9.7 0.7,-19.6 3.4,-29 0.7,-2.1 0.5,-4.3 0.1,-6.4 2.5,-3.6 3.5,-8 6.1,-11.5 1.1,-4 2.7,-7.8 3.8,-11.7 0.8,-3 -1.9,-5.1 -3.5,-7.2 -2.3,0.8 -4.5,1.6 -6.8,2.4 -2.1,6.5 -5,12.6 -8.6,18.4 -1.9,1.7 -3.8,3.4 -3.8,6.2 -3.1,1.3 -6.1,3.1 -8.5,5.4 -2.3,2.3 -5.8,1.5 -8.6,2.4 -3.4,2 -6.9,4.8 -11.2,4.1 -3.2,3.5 -7.5,5.6 -10.9,8.8 -3.2,2.9 -8.4,4.4 -8.8,9.4 -1,0.2 -2.1,0.4 -3.2,0.6 -3.3,5 -6.3,10.3 -9.6,15.4 -3.9,-0.3 -7.9,-0.4 -11.8,-1.2 1,-1.7 1.9,-3.5 2.2,-5.5 -1.1,0.7 -2.2,1.3 -3.3,1.9 -0.5,-1.4 -0.9,-2.7 -1.3,-4.1 -0.9,0.3 -1.8,0.6 -2.6,0.9 0.8,-1 1.7,-1.9 2.5,-2.9 -3.6,-0.1 -7.5,0 -10.4,-2.6 -0.7,0.9 -1.5,1.8 -2.3,2.8 -4.6,-3.8 -10.8,-5.6 -16.7,-4.8 1,-0.7 2,-1.4 3,-2.1 -2.2,-1.8 -3.9,-4.2 -5.8,-6.3 0.5,-1.1 1.2,-2 1.8,-3 -2.5,-2.5 -5.2,-4.8 -8.1,-6.7 0.7,-2.4 1.8,-4.7 2.7,-7.1 0.3,0.2 0.9,0.6 1.2,0.8 -0.1,1.6 -0.3,3.1 -0.4,4.7 6.3,2.6 12.3,6.7 19.3,7 7.6,0.2 15.5,1.9 22.8,-1 4.4,-1.5 7.5,-5.3 11.5,-7.6 3.4,-1.8 5.4,-5.3 7.4,-8.5 1.8,-3.2 5.8,-4.1 7.6,-7.3 2.1,-3.5 5.7,-5.8 8,-9.1 1.6,-2.1 3.4,-4.1 5.9,-5.2 0.5,-1.3 0.5,-3.1 2.1,-3.8 3.3,-1.9 5.4,-5.2 8.3,-7.7 1.8,-0.7 3.6,-1 5.4,-1.7 0.8,-1.3 1.1,-2.9 1.6,-4.3 4.2,-1.8 9.3,-3.6 10.5,-8.5 z" /><path
         style="fill:#f1c63c;stroke:#f1c63c;stroke-width:0.09375"
         id="path12"
         d="m 464.3,142.5 c 0.4,-0.1 1.3,-0.3 1.7,-0.4 0.6,1.6 1.4,3.2 1.8,4.9 -0.5,2.1 -1.8,3.8 -2.9,5.6 -1.1,-3.3 -0.9,-6.7 -0.6,-10.1 z" /><path
         style="fill:#dcac34;stroke:#dcac34;stroke-width:0.09375"
         id="path14"
         d="m 458.1,145.2 c 2.4,-1 1.5,3.1 -0.4,2.8 -1.6,-0.2 -0.9,-2.5 0.4,-2.8 z" /><path
         style="fill:#f1c63c;stroke:#f1c63c;stroke-width:0.09375"
         id="path16-1"
         d="m 452.6,151.6 c 0.7,-1 1.8,-2 3.2,-1.5 2.5,1.1 4.3,3.2 6.2,5.1 1.7,-0.6 3.4,-1.2 5.2,-1.8 2.9,2.8 5.8,5.8 6.4,10.1 0.8,0 1.6,0.1 2.4,0.1 -0.1,3.3 -0.5,6.6 -1.9,9.6 -1.4,-0.9 -2.7,-1.9 -4.1,-2.8 -1.5,3.4 -2.4,7.3 -0.8,10.8 0.9,-1.7 1.1,-3.9 2.6,-5.4 1.3,-0.4 2.7,-0.5 4,-0.8 -0.3,2.6 -0.6,5.1 -1,7.6 -4.6,2 -7,6.4 -10.1,10 -3.6,4 -3.2,9.7 -4.6,14.6 -1,5.4 -4.2,10 -8.2,13.8 -2,3.1 -5.2,6.5 -3.9,10.4 4.5,-5 9,-10 14.5,-13.9 2,-1.5 3.4,-3.5 4.9,-5.4 -0.3,-0.5 -0.9,-1.4 -1.2,-1.9 1.1,0.1 2.3,0.1 3.4,0.2 1.4,-3 3.3,-5.9 6.6,-7 -1,2.3 -2.1,4.5 -3.1,6.7 -1.5,4.2 -4.9,7.3 -6.6,11.4 -3.6,2.4 -6.8,5.2 -10.2,7.8 -3.4,2.7 -7.4,4.1 -11.4,5.8 -0.3,-5.2 1,-10.2 3.4,-14.7 -1.3,-0.1 -2.6,-0.2 -3.8,-0.3 1.8,-0.8 3.8,-1.1 5.5,-2.2 1.4,-1.5 1.7,-3.6 2.3,-5.5 1.4,-1 3,-1.8 3.6,-3.4 2.6,-5.8 2.7,-12.3 4.1,-18.4 -3.7,-1.1 -5.6,-4.9 -8.1,-7.6 0.5,-1 1.1,-2 1.6,-3 -3.7,-1.3 -5,-5.3 -4.6,-9 -0.2,-2.1 2,-3.2 2.6,-5 -0.3,-1.8 -0.9,-3.6 -1.1,-5.5 1.6,-2.1 3.7,-3.7 6.1,-4.6 0,-1.6 0.1,-3.2 0.1,-4.8 -1.4,0.2 -2.7,0.3 -4,0.5 z" /><path
         style="fill:#020200;stroke:#020200;stroke-width:0.09375"
         id="path20"
         d="m 466,159.7 c 0.3,-1.6 0.1,-3.5 2,-4.2 -0.1,1.4 -0.1,2.8 -0.2,4.2 -0.4,0 -1.3,0 -1.8,0 z" /><path
         style="fill:#b20000;stroke:#b20000;stroke-width:0.09375"
         id="path22"
         d="m 474.4,156.4 c 0.9,-0.1 2.7,-0.2 3.6,-0.3 l 1.2,-0.2 c -0.6,2.5 -1,5 -1.6,7.4 -1.1,-2.2 -2.2,-4.5 -3.2,-6.9 z" /><path
         style="fill:#020200;stroke:#020200;stroke-width:0.09375"
         id="path24"
         d="m 413.9,160.4 c 3.2,0.1 7,-0.3 9.3,2.3 -3.2,-0.4 -6.3,-1.2 -9.3,-2.3 z" /><path
         style="fill:#020100;stroke:#020100;stroke-width:0.09375"
         id="path26"
         d="m 453.1,168.8 c 0.8,-2.9 1.9,-5.8 4,-8 -0.5,2.7 -1.7,5.3 -1.8,8.1 -0.6,0 -1.7,-0.1 -2.2,-0.1 z" /><path
         style="fill:#131005;stroke:#131005;stroke-width:0.09375"
         id="path28"
         d="m 458.8,166.2 c -0.5,-2.8 1.3,-5.3 4.3,-5.4 0.5,2.9 -1.5,4.9 -4.3,5.4 z" /><path
         style="fill:#020100;stroke:#020100;stroke-width:0.09375"
         id="path30"
         d="m 465.2,161.8 c 2.1,2 4.1,4.2 5.2,7 -1.1,-0.7 -2.2,-1.4 -3.3,-2.2 -0.7,1.6 -1.4,3.2 -2.1,4.7 -0.5,-3.1 -0.2,-6.3 0.2,-9.5 z" /><path
         style="fill:#020100;stroke:#020100;stroke-width:0.09375"
         id="path32"
         d="m 481.9,173.9 c -1,-2.5 -0.7,-5.2 1,-7.3 0.6,2.5 0.5,5.1 -1,7.3 z" /><path
         style="fill:#010100;stroke:#010100;stroke-width:0.09375"
         id="path34"
         d="m 453.8,175.6 c 1.9,-1.3 4.1,-2.1 6.3,-2.5 1.8,0.1 3.3,1.4 4.9,2.2 -1.3,0.1 -2.6,0.3 -3.8,0.5 -1.9,1.6 -1.5,4.2 -1.8,6.3 -1.6,-2.4 -3.2,-4.8 -5.6,-6.5 z" /><path
         style="fill:#020200;stroke:#020200;stroke-width:0.09375"
         id="path36"
         d="m 418.9,173.9 c 2.8,0.2 5.2,1.5 7.3,3.1 -2.7,-0.2 -5.7,-0.6 -7.3,-3.1 z" /><path
         style="fill:#f5ca00;stroke:#f5ca00;stroke-width:0.09375"
         id="path38"
         d="m 262.7,175 c 3.5,2.3 6.9,4.6 10.3,7 -1.7,-0.2 -3.5,-0.2 -5.3,-0.6 -2.3,-1.5 -4.1,-3.7 -5,-6.4 z" /><path
         style="fill:#020100;stroke:#020100;stroke-width:0.09375"
         id="path40"
         d="m 463.1,188.5 c 0,-3.8 -0.3,-8 2.1,-11.2 0.6,3.4 -0.6,6.6 -1.2,9.9 2.3,-1.1 4.3,-2.8 6.3,-4.3 -0.9,3.3 -3.8,5.5 -7.2,5.6 z" /><path
         style="fill:#ffcb99;stroke:#ffcb99;stroke-width:0.09375"
         id="path42"
         d="m 519.4,189.9 c 2.9,-0.5 5.2,-2.6 7.7,-4.1 0.6,0.7 1.2,1.4 1.8,2.1 3,-3.3 7.4,-0.6 11.1,-0.8 2.7,-0.5 5.3,-1.4 8,-1.8 -5.2,7.7 -17.5,8.5 -19.8,18.5 -0.5,-0.5 -1.5,-1.4 -2.1,-1.9 0.1,1.8 0.7,3.6 0.1,5.4 -1.8,0.9 -3.6,-0.8 -5.3,-1.3 0.8,1.2 1.7,2.4 2.5,3.7 -1,1.2 -2.2,2.3 -3,3.7 -0.5,2.1 -0.1,4.6 -1.7,6.3 -1,1.7 -3.2,1.4 -4.8,1.8 1.7,1.8 3.6,3.5 5.9,4.7 -0.8,3.3 -0.7,6.7 -0.6,10.1 -1.5,-0.5 -3,-0.9 -4.5,-1.2 1.7,1.3 3.5,2.5 5.4,3.6 0.9,4.6 3.4,8.7 5.5,12.8 -0.8,0 -2.3,0 -3,0 1.5,1.8 3.1,3.6 4.5,5.6 -1.8,-0.3 -3.6,-0.7 -5.3,-1 2.3,2 5,3.8 6.8,6.4 1,2.4 1,5 1.8,7.5 -0.6,0 -1.9,-0.1 -2.5,-0.1 3.2,3.2 3.8,7.8 6.2,11.6 -2.2,-1.2 -4.3,-2.4 -6.6,-3.4 2,3.9 5.9,6.3 8,10.1 -2,-0.5 -3.9,-1.3 -5.9,-2 2.3,2.8 4.7,5.6 6.6,8.7 -1.8,-0.8 -3.6,-1.7 -5.5,-2.5 2,2.2 4.2,4.3 6,6.6 -0.7,1.1 -1.4,2.2 -2,3.3 0.9,0.3 2.7,0.7 3.6,0.9 -0.4,1.2 -0.9,2.3 -1.3,3.5 0.9,1 2.3,1.8 2.2,3.3 0,3.4 1.6,6.3 2.4,9.5 -1.3,-0.7 -2.6,-1.4 -3.8,-2.1 2.6,2.6 5.2,5.2 7.5,8.1 -0.7,0.3 -2,1 -2.7,1.3 1.6,2.4 3.1,4.8 4.6,7.3 -2,-1.3 -3.9,-2.9 -6.3,-3.3 2.6,2.8 6,5.4 6.5,9.5 -1.5,-1 -2.9,-2.1 -4.3,-3.2 0.7,1.7 1.4,3.4 2.1,5.2 -1.1,-0.4 -2.2,-0.8 -3.4,-1.2 0.8,1.2 1.5,2.4 2.2,3.6 -2.8,2 -5.6,4.4 -9,5.3 -8.2,-1.8 -16.5,-2.8 -24.5,-5.3 -6.8,-2.1 -14.2,-0.8 -21,-3.3 -4.3,-1.4 -9.1,-0.6 -13,-2.9 -1.5,-0.8 -3.1,-1.4 -4.6,-2.1 0.6,-1.1 1.2,-2.3 1.9,-3.5 -2.1,1.3 -4.3,2.6 -6.5,3.8 -1.2,-1.8 -2.1,-4.3 -4.5,-4.5 -3.2,-0.4 -6.4,-0.9 -9.6,-1.4 0.3,-1.5 0.6,-2.9 0.9,-4.3 -2.4,1 -4.4,3.5 -7.2,2.8 1.8,-2.1 3.7,-4.2 5.3,-6.4 -2.8,1.1 -5.1,3 -7.4,4.7 -0.5,-1.4 -0.9,-2.9 -1.3,-4.3 2.6,-0.9 5.5,-1.7 7,-4.3 -4.2,1 -8.4,3.7 -12.7,2.3 -0.6,-1 -0.9,-2.1 -1,-3.2 -1.3,0.4 -2.6,0.9 -3.9,1.3 0,-4.6 5.1,-5.3 7.1,-8.6 -4.2,0.9 -7.3,4.2 -11.6,5.1 0.3,-0.9 0.9,-2.7 1.2,-3.5 -1,0 -3.1,0.1 -4.1,0.2 1.5,-2.7 4.2,-4.5 6,-6.9 -3.4,1.5 -6.2,5.3 -10.3,3.9 1,-1.3 2.1,-2.5 3.2,-3.7 -2.1,0.3 -4.1,0.9 -6.2,1.1 2.3,-2 5.9,-2.4 7.5,-5.2 2.9,-4.4 7.1,-7.6 11.1,-10.8 -1.1,-0.1 -3.3,-0.3 -4.4,-0.4 1.1,-1.3 2.3,-2.6 3.6,-3.9 -0.6,-0.4 -1.2,-0.9 -1.8,-1.3 4.1,-0.3 4.5,-5 7.5,-7 2.6,2.5 5.8,3.9 9.2,4.7 -0.2,0.5 -0.7,1.5 -0.9,2 4.6,0.4 8.5,3.1 13.1,3.9 3,3 7.6,5.5 11.6,2.7 0.3,1.2 0.5,2.3 0.7,3.4 0.8,-0.7 1.6,-1.5 2.4,-2.2 0.1,0.5 0.4,1.4 0.5,1.9 0.4,-0.6 0.8,-1.2 1.3,-1.7 4.3,2.3 7.1,6.5 11.2,9.1 5.7,3.7 11.1,8.7 12.6,15.7 0.8,-0.6 1.6,-1.1 2.4,-1.6 1.3,1.2 2.6,2.4 3.9,3.6 1.7,-1.7 3.4,-3.5 5.1,-5.2 -0.8,-2.8 -1.5,-5.8 -3.5,-8.1 -2.5,-2.9 -4.3,-6.6 -7.6,-8.8 0.3,-2.5 -0.6,-4.8 -1.6,-7.1 -3.2,-13.5 2.3,-27.1 1,-40.7 -0.6,-9.8 -4.4,-18.9 -8.5,-27.6 -1.7,-4.2 -4.1,-8.5 -3.6,-13.2 2.6,-3.3 7.4,-1.5 10.8,-3.3 5.6,-2.2 12.4,-6 12.4,-12.8 1,0.6 1.9,1.2 2.8,1.7 0.9,-1.6 1.6,-3.2 2.4,-4.9 z" /><path
         style="fill:#020200;stroke:#020200;stroke-width:0.09375"
         id="path44"
         d="m 311.6,201.4 c 0.9,-3.3 3.1,-6.1 6,-7.7 0,0.7 -0.1,2 -0.1,2.7 -0.6,0.2 -1.7,0.7 -2.3,0.9 -0.1,2.2 -1,4 -3.6,4.1 z" /><path
         style="fill:#010101;stroke:#010101;stroke-width:0.09375"
         id="path46"
         d="m 309.4,201.6 c 1.9,-0.9 2.7,1.7 4,2.7 -3,0.2 -5.9,0 -8.8,-0.7 1.2,-1.4 3.1,-1.6 4.8,-2 z" /><path
         style="fill:#f1c63c;stroke:#f1c63c;stroke-width:0.09375"
         id="path48"
         d="m 385.3,211.2 c 1.8,-0.7 3.6,-1.6 5.6,-1.8 3.8,0.5 7.6,2.9 8.7,6.7 1.5,-1.5 2.5,-3.4 2.6,-5.6 4.2,1.2 8.6,-1.2 12.8,0.6 0.6,2.3 -2.4,2.7 -3.7,3.9 1.7,1.2 3.6,1.9 5.7,2.2 -0.8,-0.7 -1.6,-1.5 -2.5,-2.2 6.2,-6.1 17.2,0.6 16.3,8.7 -0.4,1.4 -0.4,4 -2.5,3 -0.9,-2.7 -0.7,-5.6 -1.4,-8.4 -1.9,-1.2 -3.8,-2.4 -5.9,-3 -2.3,0.8 -3.5,3.4 -5.4,4.8 0.9,1.5 1.8,3.1 2.7,4.6 2.5,-1.1 4.8,-3 7.7,-2.6 -0.1,2.2 -1.7,3.6 -3.2,5 2.1,1.4 3.1,3.7 4.2,5.9 -8,1.9 -16.4,2.1 -24.5,0.9 3.1,-3.8 8.3,-2.2 12.2,-0.8 -0.1,-0.5 -0.4,-1.6 -0.5,-2.2 1.2,0 2.4,0 3.6,-0.1 0,-0.4 0,-1.2 0,-1.7 -2.9,0 -5.7,0.1 -8.6,0.2 -1,-3.1 -3.7,-5 -5.7,-7.4 3.2,0.8 6,2.5 9.1,3.7 -1,-1.5 -2.1,-2.9 -3.2,-4.2 0.5,-0.3 1.5,-0.9 2,-1.3 -1.4,-1.8 -2.8,-3.5 -4.3,-5.2 -3,4.4 -5.6,9 -9,13.2 -1,1.5 -2.8,1.9 -4.4,2.4 0.9,-3.2 1.5,-6.5 3.8,-9 1,-1 1.1,-2.4 1.4,-3.6 -2.7,2 -5.2,4 -8,5.8 0.7,0.2 2.3,0.4 3.1,0.5 -3.6,1.3 -6.4,4 -8.3,7.4 2.1,0.1 4.2,0.1 6.3,0.4 2.7,0.3 5.2,1.9 8,1.4 2.4,2.6 4.5,5.5 6.2,8.6 3.7,-2.5 8.2,-3.5 12.7,-3.3 0.1,0.6 0.4,1.9 0.6,2.5 0.7,-1 1.5,-2 2.3,-3 -0.1,-0.7 -0.4,-2.1 -0.6,-2.7 0.9,1.1 1.8,2.4 2.7,3.6 2.7,-2.3 4.6,-5.2 5.6,-8.7 2.6,-3.3 3,-7.6 5.2,-11.2 1,1 2,2.1 3,3.2 -1.8,4.2 -2,9.3 0.6,13.3 1.7,-2.3 1.1,-5 0,-7.3 1.9,0.8 2.9,2.7 3.6,4.6 -0.5,0.9 -1.1,1.8 -1.6,2.7 1.5,2.2 3.4,3.9 5.1,6 -1.4,0.9 -2.8,1.7 -4.2,2.5 0.2,-1 0.3,-2 0.5,-3 -2.8,-2.9 -5.8,-5.5 -8.7,-8.3 -2.1,2.5 -4.1,5.1 -5.9,7.7 2.5,2.4 4,6.4 7.9,6.7 -2,-3.2 -4.9,-6.3 -4.1,-10.4 1.6,1.8 2.6,4.3 5,5.1 3.7,1.5 6.7,4.5 10.9,4.3 -0.7,1.8 -1.4,3.7 -1.9,5.6 -1.2,0 -2.4,0 -3.6,0.1 -0.7,3.1 -1.5,6.3 -3,9.3 -1.9,1.3 -4.5,0.7 -6.4,-0.3 -2.2,-0.9 -2.2,-3.8 -3,-5.7 2.9,1 5.6,2.5 8.6,3.4 -2.5,-2.2 -5.2,-5.3 -8.9,-4.6 -0.4,0.8 -1,2.3 -1.4,3.1 -1.2,-4.2 -2.3,-8.7 -5.5,-11.9 -3,-0.3 -6.5,-0.5 -7.4,-4 -1.8,0.3 -3.5,0.6 -5.3,0.8 3.2,1.9 6.7,3.6 8.6,6.8 -6.7,-1.9 -13.5,-4.8 -17.8,-10.7 -1.2,-2.1 -3.8,-2.6 -5.9,-3.6 0.3,1.1 0.7,2.3 1,3.5 -1.3,-0.1 -2.6,-0.1 -3.9,-0.1 0.4,-1.3 0.8,-2.7 1.1,-4 -5.4,1.8 -11.2,1.6 -16.7,2.9 0.6,-1.1 1.1,-2.2 1.7,-3.3 2.9,0.5 5.5,-1 7.1,-3.4 -2,0.7 -4,1.7 -5.9,2.5 1.6,-2.4 4.2,-4.6 3.5,-7.9 -2.7,0.8 -3.7,3.6 -5.5,5.5 -2.8,1.5 -5.8,2.8 -9,1.7 1.6,-1.6 3,-3.5 4.5,-5.1 2.7,-1.1 5.7,-2 6.8,-5.1 -3.7,-1.5 -7.7,0.4 -9.1,4 -1.1,-0.3 -2.2,-0.7 -3.3,-1 0.6,1.3 1.2,2.5 1.8,3.7 -1.5,-0.9 -5.1,-2.6 -3.1,-4.6 2.7,-2.5 6.1,-4.2 9.2,-6.1 1.9,-0.1 3.7,0.1 5.6,0.2 1.5,-2.5 2.7,-5.6 5.6,-6.8 z" /><path
         style="fill:#010000;stroke:#010000;stroke-width:0.09375"
         id="path50"
         d="m 382.8,219 c 1.9,-2.9 4.5,-5.9 8.3,-5.9 2.9,-0.3 5.1,2 6.8,4 -1.9,0.6 -3.7,1.1 -5.5,1.6 0.4,-0.7 1.1,-2.1 1.4,-2.8 -3.1,2.5 -7.3,2.5 -11,3.1 z" /><path
         style="fill:#010101;stroke:#010101;stroke-width:0.09375"
         id="path52"
         d="m 499.5,222 c 0.3,-2.7 1.4,-5.5 3.6,-7.2 -0.2,2.8 -2.2,5.3 -1.7,8.2 0.7,1.5 1.7,2.9 2.5,4.4 -2,-1.1 -4.4,-2.8 -4.4,-5.4 z" /><path
         style="fill:#020100;stroke:#020100;stroke-width:0.09375"
         id="path54"
         d="m 381,223.3 c 0.5,-1.2 1.1,-2.3 1.7,-3.5 2,1.3 4.3,2.2 6.4,3.4 0.5,2.2 -1.1,3.7 -2.8,4.8 -1.4,-2 -3.3,-3.5 -5.3,-4.7 z" /><path
         style="fill:#f1c63c;stroke:#f1c63c;stroke-width:0.09375"
         id="path56"
         d="m 360.9,228.1 c 0.8,0 2.5,0.1 3.3,0.1 -0.5,3 -1.4,6.1 -0.5,9.1 3.7,1.2 7.6,2.3 10.7,4.7 1.5,-4.5 7.1,-3.7 10.9,-3.6 0.1,0.8 0.1,1.6 0.2,2.4 1.4,0.7 2.7,1.5 3.9,2.5 -3.8,1.3 -8.2,1.3 -11.9,3.1 -0.2,0.4 -0.6,1.2 -0.9,1.6 3.3,-0.7 6.6,-1.8 10,-2.2 -0.2,0.5 -0.7,1.4 -0.9,1.8 -3.9,0.6 -8.2,2 -11.7,-0.4 0,0.6 0,2 -0.1,2.7 -0.8,0.5 -1.7,1 -2.5,1.6 0,2.5 -0.1,5 -0.3,7.5 -3.3,-1.7 -6.3,-3.8 -9.7,-5.4 1.1,1.7 1.5,3.8 3,5.1 2.2,0.9 4.7,1.2 7,1.8 -2.2,1.2 -4.6,2.1 -6.9,3.1 -2.7,-5.8 -6.6,-10.9 -10.7,-15.7 0.6,-1.1 1.3,-2.1 2,-3.1 -0.7,-0.4 -2,-1.2 -2.7,-1.6 0.5,-3.6 2.3,-6.7 5,-9.1 0.9,1 1.9,2 2.8,3 -0.1,-3 -0.1,-6 0,-9 z" /><path
         style="fill:#f1c63c;stroke:#f1c63c;stroke-width:0.09375"
         id="path58"
         d="m 305.5,228.3 c 4,0.3 7.3,3.7 11.5,3.2 8.9,-0.2 17.9,-0.7 26.8,0 2.8,0.3 5.9,0.4 8,2.5 -1.7,2.2 -4.8,2.3 -7.3,1.4 -4.4,-1.6 -9.1,-1.4 -13.8,-1.3 1.1,0.9 2.2,1.7 3.2,2.5 -4.5,2.9 -10.2,0.6 -14.7,3.6 -4.1,2.3 -10.2,1.6 -12.6,6.3 -1.6,2 -1.7,4.5 -2.2,6.9 -1.3,-3.8 -2.2,-7.8 -3.7,-11.5 -3.9,0.6 -7.8,0.9 -11.5,2.2 -2,0.6 -2.5,2.8 -3.4,4.4 -3,0 -6,0 -9,-0.2 1.4,-1.8 2.8,-3.5 4.2,-5.4 -4.2,-0.2 -5.8,3.7 -7.7,6.6 0.4,0.3 1.4,1 1.9,1.4 -0.2,2.3 -0.3,4.7 -0.5,7 2.5,-1.8 5.1,-0.4 7.4,1 2.3,-2.1 5,-4.1 8.4,-4.1 -0.1,3.4 -3.5,4.7 -5.6,6.6 3.2,-0.5 6.1,-2.4 9.5,-2.4 -2,3.2 -5.2,5.2 -8.5,6.7 -0.3,-0.7 -0.9,-2.1 -1.2,-2.8 -2.9,1.5 -5.7,3.1 -8.6,4.8 -0.9,-1.1 -1.9,-2.1 -2.8,-3.2 3,-1.4 6.9,-1.8 9.1,-4.7 -2.7,0.1 -4.8,1.9 -7.3,2.5 -2.2,-0.9 -4.6,-1.3 -7.1,-1 1.2,0.9 2.5,1.8 3.7,2.7 -1,1.4 -2.1,2.8 -3.2,4.1 -2.3,-1.4 -4,-3.9 -3.3,-6.7 1.7,-2 3.6,-3.8 4.9,-6.1 -4.3,-1.1 -6.5,3.7 -10.7,3.1 0.3,-3 2.1,-5.4 3.7,-7.8 1.8,1 3.6,2.1 5.4,3.2 -0.9,-1.8 -2,-3.5 -3.1,-5.1 2.2,-2.1 4.8,-3.6 7.8,-4.4 3,-0.6 3.5,-4.3 5.9,-5.7 2.1,-0.1 4.2,0.2 6.4,0.5 -0.7,2.1 -2.1,3.8 -3.5,5.4 5.1,0.4 6.7,-4.9 10.2,-7.4 1.9,0.3 3.2,2.2 4.7,3.2 1.4,-0.6 2.7,-1.3 4.1,-1.9 1.5,1.1 2.8,3.3 5,2.8 4.6,-0.8 9,-2.4 13.4,-3.8 -3.7,-4.4 -11.2,-3.4 -13.9,-9.1 z" /><path
         style="fill:#010000;stroke:#010000;stroke-width:0.09375"
         id="path60"
         d="m 318.2,234.1 c 3.4,0.1 7,-0.1 10.4,1 -2.4,1.8 -5.4,2.1 -8.3,2.8 -0.7,-1.3 -1.4,-2.5 -2.1,-3.8 z" /><path
         style="fill:#f1c63c;stroke:#f1c63c;stroke-width:0.09375"
         id="path62"
         d="m 336,237.1 c 2.5,-1.6 5.6,-1.3 8.4,-1.3 -2.4,3.1 -5.2,6.1 -8.8,7.8 -6,1.7 -11,5.5 -16.9,7.3 4.9,-5.6 11.2,-9.7 17.3,-13.8 z" /><path
         style="fill:#d3a231;stroke:#d3a231;stroke-width:0.09375"
         id="path64"
         d="m 406.4,236.4 c 0.8,-0.9 3.2,-1.5 3.5,0.2 -0.3,1.8 -4.9,2.2 -3.5,-0.2 z" /><path
         style="fill:#f1c53c;stroke:#f1c53c;stroke-width:0.09375"
         id="path66"
         d="m 388.7,247.2 c 2.1,-3.7 4.6,-7.1 8,-9.6 0.6,1.1 1.2,2.3 1.8,3.4 -4,0.8 -6.6,3.9 -9.8,6.2 z" /><path
         style="fill:#f1c63c;stroke:#f1c63c;stroke-width:0.09375"
         id="path68"
         d="m 338.2,249.2 c 2.6,-4.3 6.7,-8 11.8,-8.6 0.8,4.2 1,8.9 4,12.3 -5.6,1.7 -10.7,4.5 -15.8,7.2 -2.2,1 0.8,3.2 0.2,4.9 -2.5,6.8 -6.2,13 -8.4,19.9 -0.5,1.8 -1.7,3.1 -2.8,4.5 -1.3,-0.5 -2.6,-1 -3.9,-1.4 0.9,1.7 2,3.4 3.6,4.7 -0.4,0.1 -1.2,0.2 -1.5,0.3 -1.1,-1.5 -2.2,-2.8 -3.4,-4.2 2.6,-3.4 5,-7.1 6.9,-11 1,-4.3 2.8,-8.4 4.4,-12.5 1,-5.6 2.5,-11.1 4.9,-16.1 z" /><path
         style="fill:#000000;stroke:#000000;stroke-width:0.09375"
         id="path70"
         d="m 358.3,241.2 c 0.6,0 1.8,0 2.4,0 1.8,3.1 4,6 4.5,9.7 -2.5,-2.2 -5.4,-3.8 -8.8,-3 0.6,-2.2 1.3,-4.5 1.9,-6.7 z" /><path
         style="fill:#f1c63c;stroke:#f1c63c;stroke-width:0.09375"
         id="path72"
         d="m 447.6,242.3 c 4.2,-3.1 9.1,-0.1 12,3.2 1.5,2.7 3.6,5.3 3.6,8.5 0.6,6 3.9,11.8 3,17.9 0.3,-0.2 1.1,-0.5 1.5,-0.6 -0.2,1.4 -0.8,2.9 -0.5,4.4 1,2.1 3,3.9 3.2,6.3 0.4,2.5 0,4.9 -0.4,7.4 -5.2,-1.5 -6.1,-7.5 -6.7,-12 -1.5,-5 -3.1,-9.9 -5.4,-14.6 -0.7,-2.2 0,-4.7 -1.2,-6.7 -2.4,-0.1 -4.9,0.2 -7.3,0.6 -0.6,-0.7 -1.3,-1.5 -2,-2.2 2.1,-3.7 3.1,-8.6 0.2,-12.2 z" /><path
         style="fill:#020200;stroke:#020200;stroke-width:0.09375"
         id="path74"
         d="m 364,241.9 c 2.6,1.3 5.3,2.3 8.3,2.5 -1.2,2.9 -3.1,5.5 -5.3,7.8 0.2,-1.7 0.5,-3.4 0.8,-5.1 -1.4,-1.7 -2.7,-3.4 -3.8,-5.2 z" /><path
         style="fill:#020200;stroke:#020200;stroke-width:0.09375"
         id="path76"
         d="m 374.7,244.2 c 2,-1.3 4.3,-2 6.7,-2.1 -1.9,1.7 -4.3,2.1 -6.7,2.1 z" /><path
         style="fill:#020200;stroke:#020200;stroke-width:0.09375"
         id="path78"
         d="m 423.1,241.8 c 3.7,2.3 6.6,6 7.8,10.4 -2,-0.2 -2.3,-2.4 -3.2,-3.8 -1.3,-2.4 -3.2,-4.3 -4.6,-6.6 z" /><path
         style="fill:#f1c63c;stroke:#f1c63c;stroke-width:0.09375"
         id="path80"
         d="m 288.6,251 c 1.7,-4.1 5.7,-7.3 10.4,-6.4 0.1,1.8 0.3,3.6 0.5,5.4 -3.6,0.6 -7.2,1.9 -10.9,1 z" /><path
         style="fill:#ffcb99;stroke:#ffcb99;stroke-width:0.09375"
         id="path82"
         d="m 378.7,252.7 c 6.8,-3.5 15.2,-3.1 21.4,-8 2.4,1.9 4.9,3.8 8,4 7.6,0.7 14,6.1 17.7,12.6 0.7,6.3 0,12.9 -1.5,19.1 -4.1,8.7 -10.5,16 -15.9,24 -2.7,1.4 -5.2,3.7 -8.5,3.6 -3.6,0.1 -7,-1.5 -10.3,-2.9 -1.2,2.7 -4.8,2.8 -6.1,0.1 1.6,-0.1 3.3,-0.1 4.9,-0.1 -2.6,-4.6 -6.2,-8.3 -9.4,-12.4 -0.8,0.1 -2.4,0.2 -3.2,0.3 0.9,-1.1 1.7,-2.1 2.6,-3.2 -1.4,-1.4 -2.9,-2.7 -4.4,-4 -0.5,-5.8 -0.5,-11.6 -0.4,-17.3 1.1,-0.5 2.2,-0.9 3.4,-1.1 -0.1,3.1 1.5,5.7 3.7,7.7 -0.5,-1.5 -1,-3 -1.4,-4.5 3,-0.8 3.9,2.1 5.3,4 2.1,1.2 4.5,1.8 6.5,3.1 1.3,-0.8 2.5,-1.7 3.7,-2.7 -1.2,0.1 -3.5,0.3 -4.7,0.3 0.8,-1.8 3.3,-3.8 1.9,-6 -1.8,-2.5 -5.2,-2.8 -8,-2.4 -2.1,0.1 -5.5,1.3 -5.8,-1.9 1.1,0.2 2.2,0.3 3.3,0.5 1.4,-1.5 3.2,-3.1 5.4,-2.7 2.5,1.3 4.9,3 7.7,3.4 -1.4,-5.6 -8,-5.5 -12.6,-4.5 -3.8,0.2 -6,3.6 -8.4,6.1 -0.1,-3.3 -0.1,-6.6 -0.1,-9.9 1.8,-1.7 3.5,-3.5 5.2,-5.2 z" /><path
         style="fill:#020200;stroke:#020200;stroke-width:0.09375"
         id="path84"
         d="m 434.1,252.1 c 0.8,-2.6 1.7,-5.2 2.8,-7.6 0.8,1.6 2.1,3.3 2,5.2 -1.1,1.6 -3.1,1.8 -4.8,2.4 z" /><path
         style="fill:#f1c63c;stroke:#f1c63c;stroke-width:0.09375"
         id="path86"
         d="m 277.8,254.6 c 0.7,-4 5.6,-4.2 8.5,-5.9 -0.5,2.2 0.1,5.2 -1.9,6.8 -2.2,0.5 -4.5,-0.5 -6.6,-0.9 z" /><path
         style="fill:#f0c63c;stroke:#f0c63c;stroke-width:0.09375"
         id="path88"
         d="m 293.9,256.8 c -0.3,-3 1.8,-4.9 4.1,-6.3 1.9,1.8 1.5,4.2 0.8,6.4 -1.7,0 -3.3,-0.1 -4.9,-0.1 z" /><path
         style="fill:#f1c63c;stroke:#f1c63c;stroke-width:0.09375"
         id="path90"
         d="m 349.6,259.2 c 1.2,-2 3.1,-3.5 5.2,-4.5 1.1,2 2.2,4 3.4,6.1 -2.6,-1.7 -5.7,-1.8 -8.6,-1.6 z" /><path
         style="fill:#f1c53c;stroke:#f1c53c;stroke-width:0.09375"
         id="path92"
         d="m 450.7,258.9 c 1.7,-0.3 3.5,-0.4 5.2,0 -0.6,0.2 -1.9,0.7 -2.5,0.9 2.3,4 2.6,8.8 4.9,12.9 1.3,2.6 2.3,5.5 3.6,8.1 -0.7,0.6 -1.5,1.2 -2.2,1.9 -4.3,-7.4 -6.4,-15.7 -9,-23.8 z" /><path
         style="fill:#f1c63c;stroke:#f1c63c;stroke-width:0.09375"
         id="path94"
         d="m 254.8,261.4 c 3.2,-0.6 6.3,-1.5 9.4,-2.3 -0.7,3.7 -3.7,6.2 -7.3,7.1 -0.7,-1.6 -1.4,-3.2 -2.1,-4.8 z" /><path
         style="fill:#f1c63c;stroke:#f1c63c;stroke-width:0.09375"
         id="path96"
         d="m 342.5,261.4 c 0.6,-0.2 2,-0.7 2.7,-0.9 -0.2,3.1 0.2,6.5 -1.5,9.3 -1.8,3.4 -3.1,7.1 -4,10.9 -1.7,0.4 -3.5,0.8 -5.2,1.4 1.8,-2.2 1.6,-5 1.9,-7.6 3,-3.9 5.1,-8.3 6.1,-13.1 z" /><path
         style="fill:#f1c63c;stroke:#f1c63c;stroke-width:0.09375"
         id="path98"
         d="m 346.7,266.8 c 0.5,-2.2 0.3,-5.6 3.3,-6 1.6,2.3 -0.3,5 -0.8,7.4 -1.9,4.4 -2.6,10.2 -7,13 1.5,-4.8 4,-9.3 4.5,-14.4 z" /><path
         style="fill:#000000;stroke:#000000;stroke-width:0.09375"
         id="path100"
         d="m 401,267 c 3.2,-2.1 6.2,-5.2 10.2,-5.5 2.4,-0.1 4.8,-0.4 7.1,0.2 2.6,3 3.9,7.2 2.3,11 -1.3,3.7 -6.2,5.1 -9.7,3.4 -0.8,-1.4 -1.2,-2.9 -1.8,-4.4 -1.1,0.2 -5.1,0.2 -3.3,2.1 1.2,1.4 2.5,2.8 3.5,4.4 -2.3,-0.6 -4.4,-1.8 -6.6,-2.6 2.3,3.5 2.8,7.7 2.2,11.8 -2.4,-3.4 -3,-7.4 -3.3,-11.4 0.2,-1.6 -1,-3.8 0.4,-5 5.7,-2.8 12.3,-2.1 18.5,-2.6 -1.7,-2.5 -4.9,-2.7 -7.6,-2.9 -2.2,0 -4.7,-0.8 -6.3,1.1 -1.5,1 -2.5,3.1 -4.4,3.3 -0.3,-0.7 -0.9,-2.2 -1.2,-2.9 z" /><path
         style="fill:#f1c63c;stroke:#f1c63c;stroke-width:0.09375"
         id="path102"
         d="m 349.9,277.5 c 0.6,-5.4 1.6,-11.2 5,-15.8 -0.1,5.6 -1.6,11.3 -5,15.8 z" /><path
         style="fill:#f1c53c;stroke:#f1c53c;stroke-width:0.09375"
         id="path104"
         d="m 441,261.4 c 3.5,3.5 4.8,8.5 5.3,13.2 -3.7,-3.3 -4.1,-8.6 -5.3,-13.2 z" /><path
         style="fill:#f1c63c;stroke:#f1c63c;stroke-width:0.09375"
         id="path106"
         d="m 447,261.8 c 3.2,5.3 4.3,11.7 7.8,16.7 -0.3,0.8 -0.6,1.5 -0.8,2.3 -1.3,-0.4 -2.6,-0.8 -3.9,-1.1 0,-6.2 -3.4,-11.8 -3.1,-17.9 z" /><path
         style="fill:#f1c63c;stroke:#f1c63c;stroke-width:0.09375"
         id="path108"
         d="m 355.9,276.1 c 0.6,-4.6 0.9,-10.5 5,-13.5 0.2,2 1.3,4.2 -0.2,5.9 -1.8,2.4 -3.4,5 -4.8,7.6 z" /><path
         style="fill:#f1c63c;stroke:#f1c63c;stroke-width:0.09375"
         id="path110"
         d="m 360.8,273.6 c 0.6,-3.6 2.5,-9.3 7.2,-7.9 -2.2,3.8 -5,7.1 -7.8,10.3 -0.5,-0.8 -0.9,-1.6 -1.3,-2.4 0.4,0 1.4,0 1.9,0 z" /><path
         style="fill:#f1c53c;stroke:#f1c53c;stroke-width:0.09375"
         id="path112"
         d="m 437.3,264.7 c 1,1.3 1.9,2.6 2.8,3.9 -1.4,1 -2.7,2 -4.1,2.9 0.5,0.8 1.1,1.7 1.7,2.5 1.1,-0.5 2.2,-0.8 3.3,-1.2 0.1,0.6 0.3,1.7 0.4,2.3 -1.9,-0.3 -3.8,-0.4 -5.7,-0.9 -1.2,-1.5 -2,-3.2 -2.9,-4.8 -1.3,0.7 -2.5,1.4 -3.8,2 1.3,-2.3 3.1,-4.3 5,-6.1 0.8,1.5 1.5,3.2 3,4.3 0.1,-1.6 0.2,-3.3 0.3,-4.9 z" /><path
         style="fill:#f1c63c;stroke:#f1c63c;stroke-width:0.09375"
         id="path114"
         d="m 366.2,270.8 c 2.4,1.9 4.3,4.4 5.1,7.4 -3.1,-1.2 -4.3,-4.4 -5.1,-7.4 z" /><path
         style="fill:#f4c392;stroke:#f4c392;stroke-width:0.09375"
         id="path116"
         d="m 416.4,272.5 c 1.2,-1.7 3.5,0.3 1.6,1.6 -1.2,1.8 -3.4,-0.4 -1.6,-1.6 z" /><path
         style="fill:#ffcb99;stroke:#ffcb99;stroke-width:0.09375"
         id="path118"
         d="m 317.5,276.6 c 3.2,-1.3 6.1,-3.2 9.4,-4 -2.7,4.7 -3.5,10.3 -6.7,14.7 -2.3,3.4 1.9,6.7 5.2,5.7 0.3,-0.1 1.1,-0.2 1.5,-0.3 4.1,-3.3 9.1,-5.1 14,-6.6 2.4,-0.3 3.7,-2.5 5.8,-3.3 2.6,-1 5.3,-1.3 8,-1.4 2.7,0.1 4.6,-2.1 7,-2.9 0.3,3.3 -0.1,6.8 1,9.9 3.4,4.4 5.6,9.6 7.2,14.9 -3,-0.3 -4.5,-2.9 -5.8,-5.3 0.2,2.3 0.3,4.6 0.1,6.9 -1,-0.2 -1.9,-0.4 -2.9,-0.6 0.3,1.3 0.6,2.5 0.9,3.7 -3,-0.8 -5.9,-0.9 -8.2,1.4 -0.8,-2.7 -0.3,-6.2 -3.1,-7.9 0.1,3.7 1.4,7.3 1.2,11 -2.2,-3 -1.8,-7.5 -5.2,-9.8 0.1,3.2 1.2,6.2 2.3,9.2 -1.7,1.4 -3.3,2.8 -5.1,4.1 -1.3,-2.3 -2.4,-4.7 -3.6,-7 0,3.4 0.8,7.2 -1.5,10.1 -0.7,-2.5 -1.3,-5 -2.3,-7.3 -0.2,2.6 -0.3,5.3 -0.6,8 -0.6,-0.8 -1.2,-1.7 -1.8,-2.6 -0.1,2.5 -1.6,4.1 -4.2,3.1 0.7,1.2 1.4,2.4 2.1,3.6 -2.8,-0.8 -5.8,-1 -8.7,-1 0.2,-3.6 -0.3,-7.2 -2.3,-10.1 0.1,3.9 1.1,7.8 0.2,11.7 -2,-0.1 -4,-0.3 -5.9,-0.5 -0.6,-2.5 -1.1,-4.9 -2,-7.2 -0.4,3.3 0.9,7.3 -2,9.7 -0.1,-1.7 -0.3,-3.5 -0.5,-5.2 -1.5,0.8 -1.9,2.5 -2.5,4 -0.7,-1.5 -1.4,-3 -2.2,-4.5 0.2,3 -0.5,6 -2.5,8.3 -1.2,-1.4 -2.3,-2.8 -3.3,-4.2 -0.4,4.1 -4.2,6.4 -5.6,10 0.9,1.6 2,3.1 2.9,4.7 6.7,-0.5 13.9,-0.2 20,-3.4 4.4,5.3 12.2,3.8 17.8,7.2 4.5,4.1 9.4,7.7 15.1,9.9 2.3,2.1 4.3,4.3 6.6,6.4 0.9,-0.5 1.9,-1 2.8,-1.5 2.7,2.9 6.8,3.2 10.3,4.3 2.4,2 5.9,1 8.3,2.9 3.1,2.1 7,1.3 10.4,0.8 2.6,0.4 5.1,1.1 7.6,1.8 1.5,1 2.3,2.7 3.4,4.1 -1,2.4 -1.8,4.9 -3.4,6.9 0.8,1.5 1.5,3.2 1.1,4.9 -1.4,-0.5 -2.7,-1.1 -4,-1.7 0.3,1.6 0.7,3.1 1.2,4.6 0.4,-0.5 1.4,-1.3 1.9,-1.7 1.1,1.8 -0.1,3.9 0,5.9 0.3,1.4 1.8,2.2 2.7,3.2 -0.1,3.3 -0.1,6.7 -1.3,9.8 0.7,0 2.2,0 3,0 0,2.9 0,5.8 0,8.7 -0.5,0 -1.4,-0.2 -1.9,-0.3 -1,5.1 -3.8,9.6 -5.6,14.5 -0.6,1.7 -2.1,2.9 -3.4,4.2 0.2,-5.7 0.8,-11.4 -0.3,-17 -1.1,-3.3 -3.1,-6.2 -4.9,-9.2 -2.2,-3.9 -3,-9.2 -7.5,-11.2 0,-0.6 0.2,-1.8 0.2,-2.4 -0.8,0.2 -1.7,0.3 -2.5,0.4 -0.7,-1.3 -1.3,-2.7 -1.9,-4 -4.8,-0.8 -8.6,-4 -13.3,-5 -2.8,-0.5 -4.6,-4.1 -7.8,-3.1 -0.7,-0.8 -1.3,-2.1 -2.7,-2 -5.5,-0.7 -11.4,-0.5 -16.6,-2.7 -1.3,-0.5 -2,-1.8 -3,-2.8 -0.9,1.2 -1.7,2.4 -2.5,3.6 -1.8,-1.5 -3.7,-2.8 -5.3,-4.5 -0.5,0.6 -0.9,1.2 -1.3,1.8 -1.4,-1 -2.7,-2.1 -4.2,-2.8 -1.7,-0.4 -3.3,0.6 -4.9,1 -2.3,-2.3 -5,-4.2 -8,-5.4 -1.6,0 -2.7,1.4 -4,2.1 0.4,-1.1 0.8,-2.2 1.2,-3.3 -6.3,1.1 -11.5,-3.5 -17.5,-3.9 -3.3,-0.3 -6.5,-0.4 -9.6,-1.5 -4.4,-1.7 -9.6,-0.8 -13.6,-3.6 -4.5,-5.3 -6.4,-13.2 -3.8,-19.8 0.3,-3.9 5.4,-4.9 5.8,-8.7 3.7,-1.6 6.9,-4.3 9.3,-7.5 1.2,-1.4 1,-3.4 2,-4.9 2.2,-1.6 5.7,-1.4 6.9,-4.2 1.6,-4.4 6.3,-6.3 8.9,-10 3.2,-5.7 10.4,-7.7 13,-13.9 3.4,-0.5 5.7,-3 5.9,-6.4 3.7,2 6.7,-1.2 9.1,-3.6 z" /><path
         style="fill:#e8bb39;stroke:#e8bb39;stroke-width:0.09375"
         id="path120"
         d="m 427.3,278.1 c 1.4,-2 3.5,-3.2 6,-3.3 0.2,3.6 -3.3,3.6 -6,3.3 z" /><path
         style="fill:#f0c63c;stroke:#f0c63c;stroke-width:0.09375"
         id="path122"
         d="m 364.9,275.6 c 2.4,2.2 5.2,4 7.2,6.5 0.2,2.5 -2.4,3.2 -4,4.4 2.5,1.8 6.3,2.4 7.5,5.5 -0.7,1 -1.4,1.8 -2.1,2.7 4.6,1.1 7.8,4.9 11.1,8.1 -2.5,0.3 -5.1,0.5 -7.7,0.2 1.1,-0.9 2.2,-1.8 3.3,-2.8 -3,-1.4 -6.9,-1.6 -9.2,-4.3 0.2,-1 0.5,-2 0.7,-2.9 -1.9,-2.1 -4,-4.1 -6.2,-6 0.5,-1.4 1,-2.8 1.4,-4.2 -1.3,-2.2 -2.1,-4.6 -2,-7.2 z" /><path
         style="fill:#f1c53c;stroke:#f1c53c;stroke-width:0.09375"
         id="path124"
         d="m 424.9,284.9 c 2.5,-2.9 6,-4.7 9.6,-5.9 -1.5,2.3 -3.1,4.6 -4.4,7 -1.7,-0.4 -3.5,-0.8 -5.2,-1.1 z" /><path
         style="fill:#010101;stroke:#010101;stroke-width:0.09375"
         id="path126"
         d="m 390.9,282.8 c 1.5,1.6 2.7,3.6 4.5,5 2.2,1.4 4.6,-0.1 6.9,-0.5 -2.1,1.9 -4.9,3.4 -7.6,2 -2.9,-0.8 -3.8,-3.9 -3.8,-6.5 z" /><path
         style="fill:#010101;stroke:#010101;stroke-width:0.09375"
         id="path128"
         d="m 443.9,283.8 c 2.2,0.2 3.9,1.6 5.1,3.4 -2.2,-0.2 -4.2,-1.3 -5.1,-3.4 z" /><path
         style="fill:#f1c63c;stroke:#f1c63c;stroke-width:0.09375"
         id="path130"
         d="m 422.5,289 c 2.6,-1.1 5.5,-1.5 8.3,-1.9 -1.3,2.1 -2.9,4 -4.7,5.7 -1.4,-1.1 -4,-1.5 -3.6,-3.8 z" /><path
         style="fill:#f1c63c;stroke:#f1c63c;stroke-width:0.09375"
         id="path132"
         d="m 420.3,293.2 c 1.9,-0.5 5.9,-0.1 5.5,2.6 -2.3,0.9 -6.5,2.3 -7.6,-0.8 0.5,-0.5 1.5,-1.4 2.1,-1.8 z" /><path
         style="fill:#000000;stroke:#000000;stroke-width:0.09375"
         id="path134"
         d="m 390.7,295.3 c 3.9,-0.2 7.9,-0.2 11.7,0.2 -2.7,4.4 -8.2,1.7 -11.7,-0.2 z" /><path
         style="fill:#010101;stroke:#010101;stroke-width:0.09375"
         id="path136"
         d="m 391,298.9 c 2.4,0.7 4.7,1.8 6.9,2.9 2.1,-1 4.3,-1.9 6.5,-2.7 -1.4,4 -6.3,3.9 -9.7,3.2 -1.9,-0.3 -2.7,-2 -3.7,-3.4 z" /><path
         style="fill:#f1c63c;stroke:#f1c63c;stroke-width:0.09375"
         id="path138"
         d="m 417.2,304.2 c -1.2,-1.5 -4.8,-3.6 -2.2,-5.5 2.4,0.1 4.8,0.6 7.2,1 -1.6,1.6 -3.3,3.1 -5,4.5 z" /><path
         style="fill:#a58463;stroke:#a58463;stroke-width:0.09375"
         id="path140"
         d="m 484.1,300.1 c 0.5,0 1.5,-0.1 2,-0.1 -0.1,1.3 -0.1,2.6 -0.1,3.9 -0.5,0 -1.4,0 -1.9,-0.1 0,-1.2 0,-2.4 0,-3.7 z" /><path
         style="fill:#010101;stroke:#010101;stroke-width:0.09375"
         id="path142"
         d="m 426.5,305.3 c 1.2,-2 3.3,-3.2 5.7,-3.5 -1.5,1.8 -3.4,3 -5.7,3.5 z" /><path
         style="fill:#f1c63c;stroke:#f1c63c;stroke-width:0.09375"
         id="path144"
         d="m 410.7,304.5 c 1.5,-0.1 3.1,-0.1 4.6,0 -0.7,1 -1.4,2.7 -3,2.2 -0.6,-0.7 -1.1,-1.4 -1.6,-2.2 z" /><path
         style="fill:#020200;stroke:#020200;stroke-width:0.09375"
         id="path146"
         d="m 346.1,314.3 c -2.7,-1 -1.5,-4.1 -0.2,-5.7 0.2,1.9 0.3,3.8 0.2,5.7 z" /><path
         style="fill:#f1c63c;stroke:#f1c63c;stroke-width:0.09375"
         id="path148"
         d="m 388,310.8 c 2.3,-1 4.8,-2.1 7.2,-1.2 -1.1,1.6 -2.2,3 -3.3,4.6 1.5,-0.6 2.9,-1.4 4.3,-2.2 2.8,2.7 5.7,5.3 8.1,8.4 -2,0.3 -4.2,0.6 -5.8,-0.9 -3.3,-3.2 -7.7,-5 -10.5,-8.7 z" /><path
         style="fill:#f1c63c;stroke:#f1c63c;stroke-width:0.09375"
         id="path150"
         d="m 397.7,310.2 c 3.1,-0.4 6.3,-0.7 9.4,-0.7 2.4,3 3.5,7 3.1,10.8 -1.4,-0.3 -3.7,0.5 -4.2,-1.2 -0.6,-1.2 -0.9,-2.5 -1.3,-3.8 -2.5,-1.4 -4.9,-3.1 -7,-5.1 z" /><path
         style="fill:#010101;stroke:#010101;stroke-width:0.09375"
         id="path152"
         d="m 438.8,316.2 c 1.6,-1.8 3.5,-3.3 5.6,-4.3 -1.3,2 -3.2,3.6 -5.6,4.3 z" /><path
         style="fill:#f1c63c;stroke:#f1c63c;stroke-width:0.09375"
         id="path154"
         d="m 385.5,319.4 c 1.4,-1.2 2.9,-2.4 4.5,-3.5 2.2,2.2 2.6,6.8 -0.8,8.1 -1.7,-1.2 -0.9,-3.3 -1,-5.1 -0.7,0.2 -2,0.4 -2.7,0.5 z" /><path
         style="fill:#f0c63c;stroke:#f0c63c;stroke-width:0.09375"
         id="path156"
         d="m 401.2,324.5 c 1.4,-1.2 2.5,-3.1 4.5,-3.4 2.9,3.1 5.3,6.6 5.3,10.9 -1.8,0.2 -3.6,0.3 -5.4,0.5 0.2,-1.5 0.3,-2.9 0.3,-4.3 -1.1,-1.7 -3.1,-2.5 -4.7,-3.7 z" /><path
         style="fill:#f1c63c;stroke:#f1c63c;stroke-width:0.09375"
         id="path158"
         d="m 395.6,322.7 c 1.1,-0.2 2.2,-0.3 3.3,-0.5 -0.2,3.9 -0.7,7.8 -1,11.7 1.9,1.5 4.4,2.6 5.2,5 1,2.6 3.7,3.8 4.6,6.4 3.4,6.8 9.8,12.7 10.2,20.6 -0.5,0.1 -1.3,0.2 -1.7,0.3 -3.4,-6.4 -7.6,-12.4 -12.4,-17.8 -3.5,-5.6 -7.1,-11.5 -7.8,-18.2 -1,-2.5 -2,-5 -0.4,-7.5 z" /><path
         style="fill:#f1c63c;stroke:#f1c63c;stroke-width:0.09375"
         id="path160"
         d="m 389.9,327.9 c 1.6,1.1 3.5,2.2 4,4.2 -0.2,1.2 -0.5,2.4 -1,3.6 -1.8,-2.2 -3,-4.9 -3,-7.8 z" /><path
         style="fill:#f1c63c;stroke:#f1c63c;stroke-width:0.09375"
         id="path162"
         d="m 401.2,330.8 c 2.4,1.4 4.1,3.6 5,6.3 -3.3,-0.3 -4.6,-3.4 -5,-6.3 z" /><path
         style="fill:#f1c63c;stroke:#f1c63c;stroke-width:0.09375"
         id="path164"
         d="m 408.1,332.6 c 3.2,0.8 3.5,4.6 5.5,6.7 2.8,2.4 5.9,4.5 9.2,5.9 1.2,0.4 1.9,1.5 2.5,2.5 -3.9,0.5 -7.8,-0.8 -11.6,-1.5 -2.4,-4.3 -5,-8.6 -5.6,-13.6 z" /><path
         style="fill:#f1c63c;stroke:#f1c63c;stroke-width:0.09375"
         id="path166"
         d="m 390.8,340.4 c 2.9,0.3 6.1,0.3 8.1,2.6 -2.6,2.2 -6.3,-0.2 -8.1,-2.6 z" /><path
         style="fill:#f5ca00;stroke:#f5ca00;stroke-width:0.09375"
         id="path168"
         d="m 390.9,346.3 c 3.4,0.8 6.9,1 10.3,1.7 -2.1,1 -4.3,1.8 -6.4,2.6 0.1,0.6 0.5,1.6 0.7,2.2 1.1,0.6 2.4,0.8 3.8,0.5 -2.5,1.1 -5.8,1 -6.4,-2.3 -0.6,-1.3 -1.2,-2.6 -1.7,-4 l -0.3,-0.7 z" /><path
         style="fill:#020200;stroke:#020200;stroke-width:0.09375"
         id="path170"
         d="m 388.1,347.5 c 0.8,-0.1 2.3,-0.4 3.1,-0.5 0.5,1.4 1.1,2.7 1.7,4 -1.3,-0.6 -2.7,-1.2 -4.1,-1.8 -0.2,-0.4 -0.5,-1.3 -0.7,-1.7 z" /><path
         style="fill:#f1c63c;stroke:#f1c63c;stroke-width:0.09375"
         id="path172"
         d="m 413.9,350.4 c 4,2.2 6.8,5.9 10.8,8 3.3,1.5 5.8,4.6 9.5,5.5 2.1,0.9 4.3,-0.1 6.4,-0.5 3.3,2.4 7.6,2 11.3,3.2 -0.2,1.4 -0.5,2.8 -0.7,4.3 1.2,-0.1 2.4,-0.1 3.6,-0.1 1.2,1.2 2.3,2.4 3.6,3.6 0.3,-0.8 1.1,-2.3 1.5,-3 2.9,1.4 5.7,3.2 8.2,5.3 -1.8,0.1 -3.6,0.2 -5.4,0.3 2.9,3.5 4.8,8 3.7,12.6 -2.2,-0.7 -4.3,-1.5 -6.4,-2.2 0.6,1.5 1.4,3 1.9,4.6 -0.5,1 -1.5,1.6 -2.3,2.3 -0.3,-0.7 -1,-2.1 -1.3,-2.8 -1.9,0.8 -3.9,2.4 -6.1,1.6 -0.8,-0.9 -1.4,-1.9 -2.1,-2.9 1.8,0.2 3.6,0.5 5.4,0.8 -0.1,-1.1 -0.3,-2.1 -0.4,-3.2 3.3,-1.3 5.7,-4.4 9.4,-4.6 -1.5,-0.6 -3,-1.2 -4.5,-1.8 -0.2,-1.3 -0.5,-2.7 -0.7,-4.1 -3.9,-0.5 -7.7,-2.4 -11.7,-1.7 0,-1.5 0.1,-3 0.2,-4.5 -3,-1 -5.8,-2.6 -7.1,-5.6 -4,1.9 -5,7 -8.9,8.8 -1.3,-5.6 -5.2,-9.9 -8.7,-14.1 -0.9,0.6 -1.8,1.2 -2.7,1.8 -0.5,-4.6 -4.3,-7.7 -6.5,-11.6 z" /><path
         style="fill:#f1c63c;stroke:#f1c63c;stroke-width:0.09375"
         id="path174"
         d="m 452.8,365.7 c 3.3,-0.6 5.7,1.9 6.7,4.7 -3.1,0.1 -5.5,-1.9 -6.7,-4.7 z" /><path
         style="fill:#f1c63c;stroke:#f1c63c;stroke-width:0.09375"
         id="path176"
         d="m 437.7,369 c 3.8,0.9 7.4,2.9 9.6,6.2 1.4,1.5 -0.8,2.9 -2.2,2.8 -3.7,-1.6 -6.9,-4.8 -7.4,-9 z" /><path
         style="fill:#010101;stroke:#010101;stroke-width:0.09375"
         id="path178"
         d="m 374.4,370.9 c 3.6,-0.4 7.1,-0.4 10.7,-0.4 1.4,1.9 2.8,3.9 3.1,6.2 -0.7,0 -2.2,0 -2.9,-0.1 -0.8,-1.3 -1.6,-2.6 -2.4,-3.9 -2.9,-0.1 -6.1,0.3 -8.5,-1.8 z" /><path
         style="fill:#f1c63c;stroke:#f1c63c;stroke-width:0.09375"
         id="path180"
         d="m 434.5,374.6 c 3.9,-0.2 6.7,2.8 7.7,6.2 1.2,3.8 4.3,6.4 6.1,9.8 -1.3,0.2 -2.7,0.3 -4,0.4 -1,-2.5 -3.1,-4.1 -5.3,-5.5 0.9,-0.6 1.8,-1.2 2.8,-1.8 -4.4,-0.8 -7.1,-5 -7.3,-9.1 z" /><path
         style="fill:#f1c63c;stroke:#f1c63c;stroke-width:0.09375"
         id="path182"
         d="m 443.9,382 c 2.5,-1.1 4.9,-2.4 7.3,-3.7 3.5,0.4 6.2,3.3 7.1,6.6 -3.2,0.7 -5.9,-1.2 -8.6,-2.8 1.3,2.1 2.8,4.1 3.8,6.3 -4.3,0.5 -7.8,-2.8 -9.6,-6.4 z" /><path
         style="fill:#f1c63c;stroke:#f1c63c;stroke-width:0.09375"
         id="path184"
         d="m 470.1,382.3 c 4.4,1.7 3.7,7.3 6.2,10.8 -3.2,1.9 -7.4,1.8 -10.8,0.5 -1.5,-0.4 -2.1,-1.5 -1.8,-3.1 2.2,-0.3 4.3,0.8 6.3,1.5 -0.7,-1.3 -1.3,-2.5 -1.9,-3.8 1.5,-1.6 1.6,-3.9 2,-5.9 z" /><path
         style="fill:#020100;stroke:#020100;stroke-width:0.09375"
         id="path186"
         d="m 472,401.3 c 2.4,0 4.9,0.3 6.1,2.8 -2.3,-0.3 -4.4,-1.3 -6.1,-2.8 z" /></g></g></svg>