<?xml version="1.0" encoding="UTF-8"?>
<svg xmlns="http://www.w3.org/2000/svg" xmlns:xlink="http://www.w3.org/1999/xlink" width="360" height="216">
	<rect width="360" height="216" fill="#009"/>
	<g id="r">
		<g id="f" fill="#ffd700">
			<path d="M 34.97,28.56 C 39.001,26.965 40.985,24.55 41.198,21.14 C 41.335,19.09 39.289,16.686 37.099,16.631 C 30.257,16.446 27.97,27.601 28.011,30.324 C 28.3,30.323 29.723,30.294 30.076,30.308 C 30.388,28.589 30.12,26.482 32.306,24.706 C 34.493,22.929 35.459,24.283 35.733,25.376 C 36.006,26.469 34.723,28.671 34.97,28.56 z"/>
			<path d="M 16.696,28.56 C 12.664,26.965 10.68,24.55 10.467,21.14 C 10.33,19.09 12.376,16.686 14.566,16.631 C 21.408,16.446 23.696,27.601 23.654,30.324 C 23.365,30.323 21.942,30.294 21.589,30.308 C 21.277,28.589 21.545,26.482 19.359,24.706 C 17.172,22.929 16.206,24.283 15.933,25.376 C 15.659,26.469 16.942,28.671 16.696,28.56 z"/>
			<path d="M 25.889,3.62 C 30.539,8.454 31.787,13.371 28.687,21.247 C 27.624,23.877 27.174,27.034 27.218,30.315 C 26.768,30.325 24.852,30.303 24.398,30.271 C 24.438,27.03 23.901,23.619 22.841,20.945 C 19.251,12.901 21.838,7.446 25.766,3.62 L 25.828,3.62 z"/>
			<path d="M 28.332,32.172 C 29.284,34.713 30.964,35.673 32.337,36.346 C 30.244,37.337 27.825,36.261 27.37,35.748 C 27.425,36.464 27.482,38.4 27.22,39.708 C 27.043,40.762 26.595,41.369 25.838,42.21 C 25.054,41.388 24.569,40.726 24.307,39.792 C 23.989,38.437 24.326,36.514 24.297,35.796 C 23.934,36.242 21.039,37.317 19.134,36.383 C 20.908,35.61 22.627,34.71 23.186,32.125 C 23.393,32.138 27.809,32.135 28.332,32.135 z"/>
			<rect x="20.266" y="30.391" width="11.016" height="1.639"/>
	    </g>
		<use xlink:href="#f" x="51.429"/>
		<use xlink:href="#f" x="102.857"/>
		<use xlink:href="#f" x="154.286"/>
		<use xlink:href="#f" x="205.714"/>
		<use xlink:href="#f" x="257.143"/>
		<use xlink:href="#f" x="308.571"/>
	</g>
	<use xlink:href="#r" x="25.714" y="43.2"/>
	<use xlink:href="#r" y="86.4"/>
	<use xlink:href="#r" x="25.714" y="129.6"/>
	<use xlink:href="#r" y="172.8"/>
	<rect x="12" y="12" width="336" height="192" fill="none" stroke="#fff" stroke-width="24"/>
	<g fill="#f00">
		<path d="M 0,0 v 42 h 24 v -18 z"/>
		<rect y="75" width="24" height="33"/>
		<rect y="141" width="24" height="33"/>
		<path d="M 0,216 h 63 v -24 h -39 z"/>
		<rect x="102" y="192" width="39" height="24"/>
		<rect x="180" y="192" width="39" height="24"/>
		<rect x="258" y="192" width="39" height="24"/>
		<path d="M 360,216 v -42 h -24 v 18 z"/>
		<rect x="336" y="108" width="24" height="33"/>
		<rect x="336" y="42" width="24" height="33"/>
		<path d="M 360,0 h -63 v 24 h 39 z"/>
		<rect x="219" width="39" height="24"/>
		<rect x="141" width="39" height="24"/>
		<rect x="63" width="39" height="24"/>
	</g>
</svg>