<?xml version="1.0" encoding="UTF-8"?>
<!DOCTYPE svg PUBLIC "-//W3C//DTD SVG 1.0//EN" "http://www.w3.org/TR/2001/REC-SVG-20010904/DTD/svg10.dtd">
<svg xmlns="http://www.w3.org/2000/svg" xmlns:xlink="http://www.w3.org/1999/xlink" xml:space="preserve" width="450px" height="300px" viewBox="0 0 450 300">
<rect fill="white" width="450" height="300" x="0" y="0"/>
<rect fill="#07f0fa" width="150" height="300" x="0" y="0"/>
<rect fill="#07f0fa" y="0" x="300" height="300" width="150"/>
<path fill="#fe0001" fill-rule="evenodd" d="M 206,265 C 207,262 209,259 212,257 C 213,259 215,259 217,258 C 219,268 224,285 230,292 C 237,288 247,269 251,269 C 254,268 257,273 257,276 C 268,266 278,247 278,234 C 280,235 281,236 283,238 C 289,229 287,209 288,200 C 289,199 291,199 292,200 C 291,187 285,175 282,166 C 280,159 284,159 287,159 C 284,146 276,129 266,124 C 258,132 245,133 245,130 C 245,127 258,128 263,121 C 260,117 256,114 251,111 C 277,92 258,47 262,28 C 257,33 257,39 252,44 C 246,33 230,29 219,7 C 216,19 222,24 220,32 C 216,33 213,31 207,33 C 218,44 243,51 244,80 C 243,79 241,77 239,77 C 239,85 239,101 228,101 C 215,102 194,77 187,87 C 191,89 194,92 192,96 C 185,97 176,102 174,109 C 182,110 210,104 208,112 C 207,118 165,128 159,132 C 152,136 160,145 167,149 C 167,160 180,157 196,163 C 197,169 201,181 203,183 C 205,181 208,180 212,179 C 214,184 216,190 218,196 C 221,193 225,188 228,187 C 234,191 246,200 243,203 C 240,206 233,196 228,194 C 226,195 221,199 218,202 C 215,196 212,189 209,185 C 207,185 203,188 202,189 C 198,183 195,174 193,168 C 191,166 188,165 186,163 C 181,173 180,196 185,209 C 186,207 188,206 191,206 C 189,218 189,229 192,237 C 193,235 196,232 199,231 C 198,244 202,258 206,265 Z M 207,126 C 213,125 217,125 220,126 C 226,128 224,121 218,121 C 214,121 211,122 207,126 Z"/>
</svg>