<svg xmlns="http://www.w3.org/2000/svg" width="750" height="750"><defs><linearGradient id="a"><stop offset="0" stop-color="#c8c8c8"/><stop offset="1" stop-color="#fff"/></linearGradient></defs><path fill="#fff" d="M0 0H750V750H0z"/><path fill="#254b99" d="M308.824 0H441.177V750H308.824z"/><path fill="#254b99" d="M0 308.824H750V441.177H0z"/><g fill="#fff"><g transform="matrix(1.1029412,0,0,1.1029412,1.1029412e-5,10e-7) translate(-1.0579427e-5) translate(0,-2.4414063e-6)"><circle r="7.5" cx="310" cy="100"/><circle r="7.5" cx="340" cy="100"/><circle r="7.5" cx="370" cy="100"/><circle r="7.5" cx="325" cy="120"/><circle r="7.5" cx="355" cy="120"/><circle r="7.5" cx="310" cy="140"/><circle r="7.5" cx="340" cy="140"/><circle r="7.5" cx="370" cy="140"/><circle r="7.5" cx="325" cy="160"/><circle r="7.5" cx="355" cy="160"/><circle r="7.5" cx="340" cy="180"/></g><g transform="matrix(1.1029412,0,0,1.1029412,1.1029412e-5,10e-7) translate(-1.0579427e-5) translate(0,200)"><circle r="7.5" cx="310" cy="100"/><circle r="7.5" cx="340" cy="100"/><circle r="7.5" cx="370" cy="100"/><circle r="7.5" cx="325" cy="120"/><circle r="7.5" cx="355" cy="120"/><circle r="7.5" cx="310" cy="140"/><circle r="7.5" cx="340" cy="140"/><circle r="7.5" cx="370" cy="140"/><circle r="7.5" cx="325" cy="160"/><circle r="7.5" cx="355" cy="160"/><circle r="7.5" cx="340" cy="180"/></g><g transform="matrix(1.1029412,0,0,1.1029412,1.1029412e-5,10e-7) translate(-1.0579427e-5) translate(0,400)"><circle r="7.5" cx="310" cy="100"/><circle r="7.5" cx="340" cy="100"/><circle r="7.5" cx="370" cy="100"/><circle r="7.5" cx="325" cy="120"/><circle r="7.5" cx="355" cy="120"/><circle r="7.5" cx="310" cy="140"/><circle r="7.5" cx="340" cy="140"/><circle r="7.5" cx="370" cy="140"/><circle r="7.5" cx="325" cy="160"/><circle r="7.5" cx="355" cy="160"/><circle r="7.5" cx="340" cy="180"/></g><g transform="matrix(1.1029412,0,0,1.1029412,1.1029412e-5,10e-7) rotate(-90,340,340)"><circle cy="100" cx="310" r="7.5"/><circle cy="100" cx="340" r="7.5"/><circle cy="100" cx="370" r="7.5"/><circle cy="120" cx="325" r="7.5"/><circle cy="120" cx="355" r="7.5"/><circle cy="140" cx="310" r="7.5"/><circle cy="140" cx="340" r="7.5"/><circle cy="140" cx="370" r="7.5"/><circle cy="160" cx="325" r="7.5"/><circle cy="160" cx="355" r="7.5"/><circle cy="180" cx="340" r="7.5"/></g><g transform="matrix(1.1029412,0,0,1.1029412,1.1029412e-5,10e-7) rotate(90,339.99999,339.99999)"><circle cy="100" cx="310" r="7.5"/><circle cy="100" cx="340" r="7.5"/><circle cy="100" cx="370" r="7.5"/><circle cy="120" cx="325" r="7.5"/><circle cy="120" cx="355" r="7.5"/><circle cy="140" cx="310" r="7.5"/><circle cy="140" cx="340" r="7.5"/><circle cy="140" cx="370" r="7.5"/><circle cy="160" cx="325" r="7.5"/><circle cy="160" cx="355" r="7.5"/><circle cy="180" cx="340" r="7.5"/></g></g></svg>