<?xml version="1.0" encoding="UTF-8" ?>
<!DOCTYPE svg PUBLIC "-//W3C//DTD SVG 1.1//EN" "http://www.w3.org/Graphics/SVG/1.1/DTD/svg11.dtd">
<svg width="374pt" height="169pt" viewBox="0 0 374 169" version="1.1" xmlns="http://www.w3.org/2000/svg">
<path fill="#ff0000" stroke="#ff0000" stroke-width="0.09375" d=" M 0.0 0.0 L 374.0 0.0 L 374.0 23.0 C 249.3 23.0 124.7 23.0 0.0 23.0 L 0.0 0.0 Z" />
<path fill="#ffcf00" stroke="#ffcf00" stroke-width="0.09375" d=" M 0.0 23.0 C 124.7 23.0 249.3 23.0 374.0 23.0 L 374.0 46.0 C 249.3 46.0 124.7 46.0 0.0 46.0 L 0.0 23.0 Z" />
<path fill="#ffffff" stroke="#ffffff" stroke-width="0.09375" d=" M 0.0 46.0 C 124.7 46.0 249.3 46.0 374.0 46.0 L 374.0 68.0 C 249.3 68.0 124.7 68.0 0.0 68.0 L 0.0 46.0 Z" />
<path fill="#008000" stroke="#008000" stroke-width="0.09375" d=" M 0.0 68.0 C 124.7 68.0 249.3 68.0 374.0 68.0 L 374.0 98.0 C 249.3 98.0 124.7 98.0 0.0 98.0 L 0.0 68.0 Z" />
<path fill="#ffffff" stroke="#ffffff" stroke-width="0.09375" d=" M 0.0 98.0 C 124.7 98.0 249.3 98.0 374.0 98.0 L 374.0 123.0 C 249.3 123.0 124.7 123.0 0.0 123.0 L 0.0 98.0 Z" />
<path fill="#0000ff" stroke="#0000ff" stroke-width="0.09375" d=" M 0.0 123.0 C 124.7 123.0 249.3 123.0 374.0 123.0 L 374.0 146.0 C 249.3 146.0 124.7 146.0 0.0 146.0 L 0.0 123.0 Z" />
<path fill="#800080" stroke="#800080" stroke-width="0.09375" d=" M 0.0 146.0 C 124.7 146.0 249.3 146.0 374.0 146.0 L 374.0 169.0 L 0.0 169.0 L 0.0 146.0 Z" />
</svg>
