<?xml version="1.0" encoding="UTF-8" standalone="no"?>
<!-- Created with Inkscape (http://www.inkscape.org/) -->
<svg
   xmlns:dc="http://purl.org/dc/elements/1.1/"
   xmlns:cc="http://web.resource.org/cc/"
   xmlns:rdf="http://www.w3.org/1999/02/22-rdf-syntax-ns#"
   xmlns:svg="http://www.w3.org/2000/svg"
   xmlns="http://www.w3.org/2000/svg"
   xmlns:sodipodi="http://sodipodi.sourceforge.net/DTD/sodipodi-0.dtd"
   xmlns:inkscape="http://www.inkscape.org/namespaces/inkscape"
   width="750"
   height="500"
   id="svg2"
   sodipodi:version="0.32"
   inkscape:version="0.44"
   version="1.0"
   sodipodi:docbase="C:\flags"
   sodipodi:docname="Flag_of_Western_Abenaki.svg">
  <defs
     id="defs4" />
  <sodipodi:namedview
     id="base"
     pagecolor="#ffffff"
     bordercolor="#666666"
     borderopacity="1.0"
     gridtolerance="10000"
     guidetolerance="10"
     objecttolerance="10"
     inkscape:pageopacity="0.0"
     inkscape:pageshadow="2"
     inkscape:zoom="0.754"
     inkscape:cx="362.07826"
     inkscape:cy="250"
     inkscape:document-units="px"
     inkscape:current-layer="layer1"
     showguides="true"
     inkscape:guide-bbox="true"
     width="750px"
     height="500px"
     inkscape:window-width="847"
     inkscape:window-height="579"
     inkscape:window-x="448"
     inkscape:window-y="109" />
  <metadata
     id="metadata7">
    <rdf:RDF>
      <cc:Work
         rdf:about="">
        <dc:format>image/svg+xml</dc:format>
        <dc:type
           rdf:resource="http://purl.org/dc/dcmitype/StillImage" />
      </cc:Work>
    </rdf:RDF>
  </metadata>
  <g
     inkscape:label="Layer 1"
     inkscape:groupmode="layer"
     id="layer1">
    <rect
       style="opacity:1;fill:#31735a;fill-opacity:1;stroke:none;stroke-width:1.26699996;stroke-miterlimit:4;stroke-dasharray:none;stroke-opacity:1"
       id="rect2760"
       width="750"
       height="500"
       x="0"
       y="0" />
    <g
       id="g3080"
       transform="matrix(1.070077,0,0,1.070077,-24.49896,-19.07784)">
      <path
         sodipodi:nodetypes="czzzzzszzzszzzzzz"
         id="rect1872"
         d="M 247.20193,112.65206 C 277.60971,79.697505 286.16524,113.08073 315.96107,111.01567 C 345.7569,108.95061 346.85242,94.704704 376.64825,94.704704 C 406.44408,94.704704 406.44408,107.85509 436.23991,109.92015 C 466.03574,111.98521 461.80255,81.9614 494.67788,109.13476 C 528.19966,136.84244 497.83157,151.04027 497.83157,177.45245 C 497.83157,205.19089 511.02578,220.3478 512.35203,252.40558 C 513.67804,284.45751 497.36078,294.55585 498.50531,324.09611 C 499.70115,354.96068 530.84403,365.78391 495.62917,395.84549 C 459.64117,426.56707 470.55096,390.21946 434.62139,391.31498 C 398.6418,392.41203 396.51214,406.00857 376.64825,406.00857 C 356.78436,406.00857 336.92048,389.48811 317.05659,389.48811 C 272.36285,389.48811 281.12944,420.84989 250.24951,394.02979 C 220.01672,367.77175 251.46493,347.85577 251.46493,321.44359 C 251.46493,293.70515 236.55956,290.20346 235.68823,252.6972 C 234.8169,216.28647 249.51192,212.76818 248.83363,181.31214 C 248.15534,148.76058 217.44889,144.89704 247.20193,112.65206 z "
         style="fill:#6b4a39;fill-opacity:1;stroke:white;stroke-width:8.23297119;stroke-miterlimit:4;stroke-dasharray:none;stroke-opacity:1" />
      <path
         sodipodi:nodetypes="ccccccccccccccccccccc"
         id="path2762"
         d="M 480.43491,207.55204 L 480.43491,193.92122 L 415.00699,187.06399 L 467.71282,162.52852 L 460.44305,147.98898 L 407.73722,168.88956 L 426.82037,126.17966 L 410.46338,118.00118 L 386.83663,160.71107 L 379.56686,116.18373 L 363.20988,116.18373 L 355.94011,159.80235 L 330.49592,123.4535 L 315.95637,132.54071 L 335.03952,167.07212 L 284.15114,147.08025 L 278.69881,161.61979 L 326.86103,186.15527 L 267.79415,197.55611 L 268.70287,207.55204 L 480.43491,207.55204 z "
         style="fill:#9c3142;fill-opacity:1;fill-rule:evenodd;stroke:white;stroke-width:4.93300962;stroke-linecap:butt;stroke-linejoin:miter;stroke-miterlimit:4;stroke-dasharray:none;stroke-opacity:1" />
      <path
         sodipodi:nodetypes="ccccccccccccc"
         id="path2766"
         d="M 258.61923,227.07507 C 271.24912,237.69947 287.04969,239.66694 298.88691,227.07507 C 310.87134,237.22351 323.64842,237.14108 334.84019,225.64724 C 348.57604,239.02611 360.33021,237.84562 373.66973,225.64724 C 387.57165,240.60009 401.86992,237.45212 415.37553,225.64724 C 429.11138,238.23911 444.03623,238.63262 454.20507,225.64724 C 464.29087,240.99358 479.13269,237.45212 491.5965,225.64724 C 479.31387,246.0828 468.61658,249.99153 454.74861,245.63684 C 442.54148,257.09694 429.14535,253.6042 416.93822,245.78299 C 402.50862,256.70987 387.47861,255.30623 373.9981,246.42383 C 361.12287,256.86834 346.6623,257.86894 332.9944,247.06467 C 321.6894,259.65654 305.62838,256.90207 296.70139,247.06467 C 282.81834,254.17383 265.7646,244.36267 258.61923,227.07507 z "
         style="fill:#18296b;fill-opacity:1;fill-rule:evenodd;stroke:white;stroke-width:5.83420038;stroke-linecap:butt;stroke-linejoin:round;stroke-miterlimit:4;stroke-dasharray:none;stroke-opacity:1" />
      <path
         sodipodi:nodetypes="ccccccccccc"
         id="path2768"
         d="M 277.27729,268.53491 C 291.93818,277.3611 308.27757,280.67093 320.25281,268.53491 C 332.65417,279.04573 348.41258,277.42053 359.47114,268.29307 C 372.3201,278.08249 388.52611,278.60442 398.01803,268.53491 C 411.62883,279.56765 421.21117,278.02306 432.80774,268.53491 C 443.07224,280.00189 458.03658,278.67091 469.64389,267.18979 C 460.67924,284.72744 445.33623,289.0258 432.67882,286.70451 C 421.51913,294.79519 408.3452,295.16293 398.19261,287.14581 C 385.36511,296.56041 369.1806,296.26621 357.69592,286.92516 C 345.21489,297.22238 330.04821,295.16294 320.25281,287.36647 C 304.58482,291.2394 281.86705,281.21109 277.27729,268.53491 z "
         style="fill:#18296b;fill-opacity:1;fill-rule:evenodd;stroke:white;stroke-width:5.1370368;stroke-linecap:butt;stroke-linejoin:round;stroke-miterlimit:4;stroke-dasharray:none;stroke-opacity:1" />
      <path
         sodipodi:nodetypes="ccczczccccccccccccccczczccczc"
         id="path2770"
         d="M 284.95227,352.25753 L 298.8749,352.25753 L 298.8749,344.72432 C 298.8749,344.72432 288.79571,336.373 288.94705,327.96565 C 289.09838,319.55831 302.78432,307.79907 302.78432,307.79907 C 302.78432,307.79907 316.66097,319.32648 316.67351,327.66299 C 316.68604,335.99467 307.95633,344.71805 307.95633,344.71805 L 307.95633,351.95485 L 348.81479,351.95485 L 348.81479,346.34291 L 337.31348,346.34291 L 355.20113,313.70855 L 362.89958,327.04263 L 374.15722,307.54381 L 385.27457,326.79965 L 393.39254,312.73893 L 411.10075,346.16119 L 398.14934,346.16119 L 398.14934,351.65219 L 442.22513,351.65219 L 442.22513,345.10557 C 442.22513,345.10557 432.89339,337.12053 433.02358,328.03231 C 433.15376,318.9441 446.04996,308.75273 446.04996,308.75273 C 446.04996,308.75273 461.27852,319.40993 461.02201,328.12607 C 460.76551,337.13862 451.41855,345.39571 451.41855,345.39571 L 451.41855,351.64593 L 468.9732,351.54015 C 468.9732,351.54015 423.57329,385.37144 377.56806,385.55078 C 331.56282,385.73012 284.95227,352.25753 284.95227,352.25753 z "
         style="fill:#31735a;fill-opacity:1;fill-rule:evenodd;stroke:white;stroke-width:6.02501202;stroke-linecap:butt;stroke-linejoin:miter;stroke-miterlimit:4;stroke-dasharray:none;stroke-opacity:1" />
      <rect
         y="342.96393"
         x="358.46127"
         height="11.97613"
         width="11.574566"
         id="rect2774"
         style="fill:white;fill-opacity:1;stroke:none;stroke-width:7.19399977;stroke-linejoin:miter;stroke-miterlimit:4;stroke-dasharray:none;stroke-opacity:1" />
      <rect
         y="343.00592"
         x="376.81659"
         height="12.09589"
         width="11.608274"
         id="rect2776"
         style="fill:white;fill-opacity:1;stroke:none;stroke-width:7.19399977;stroke-linejoin:miter;stroke-miterlimit:4;stroke-dasharray:none;stroke-opacity:1" />
    </g>
  </g>
</svg>
