<?xml version="1.0" encoding="utf-8"?>
<!-- Generator: Adobe Illustrator 24.0.1, SVG Export Plug-In . SVG Version: 6.00 Build 0)  -->
<svg version="1.1"
	 id="Layer_1" image-rendering="optimizeQuality" shape-rendering="geometricPrecision" text-rendering="geometricPrecision" xmlns:odm="http://product.corel.com/CGS/11/cddns/"
	 xmlns="http://www.w3.org/2000/svg" xmlns:xlink="http://www.w3.org/1999/xlink" x="0px" y="0px" viewBox="0 0 1024 683"
	 style="enable-background:new 0 0 1024 683;" xml:space="preserve">
<style type="text/css">
	.st0{fill-rule:evenodd;clip-rule:evenodd;fill:#00923F;}
	.st1{fill-rule:evenodd;clip-rule:evenodd;fill:#DA251D;}
	.st2{fill-rule:evenodd;clip-rule:evenodd;fill:#FFF500;}
</style>
<g>
	<path class="st0" d="M0,0.5h1024v682H0V0.5z"/>
	<g id="Layer_1_1_">
		<rect y="229.5" class="st1" width="1024" height="226"/>
		<path class="st2" d="M202.5,272.5l17,53h56l-45,33l17,54l-45-33l-46,33l18-54l-46-33h56L202.5,272.5z"/>
		<path class="st2" d="M512,272.5l17,53h56l-45,33l17,54l-45-33l-45,33l17-54l-45-33h56L512,272.5z"/>
		<path class="st2" d="M822.5,272.5l17,53h56l-45,33l17,54l-45-33l-46,33l18-54l-46-33h56L822.5,272.5z"/>
	</g>
</g>
</svg>
