<?xml version="1.0" encoding="UTF-8" standalone="no"?>
<svg
   xmlns:dc="http://purl.org/dc/elements/1.1/"
   xmlns:cc="http://creativecommons.org/ns#"
   xmlns:rdf="http://www.w3.org/1999/02/22-rdf-syntax-ns#"
   xmlns:svg="http://www.w3.org/2000/svg"
   xmlns="http://www.w3.org/2000/svg"
   xmlns:sodipodi="http://sodipodi.sourceforge.net/DTD/sodipodi-0.dtd"
   xmlns:inkscape="http://www.inkscape.org/namespaces/inkscape"
   version="1.0"
   width="324.000000pt"
   height="216.000000pt"
   viewBox="0 0 324.000000 216.000000"
   preserveAspectRatio="xMidYMid meet"
   id="svg2"
   inkscape:version="0.48.4 r9939"
   sodipodi:docname="Interlingue from FOTW.svg">
  <defs
     id="defs12" />
  <sodipodi:namedview
     pagecolor="#ffffff"
     bordercolor="#666666"
     borderopacity="1"
     objecttolerance="10"
     gridtolerance="10"
     guidetolerance="10"
     inkscape:pageopacity="0"
     inkscape:pageshadow="2"
     inkscape:window-width="833"
     inkscape:window-height="480"
     id="namedview10"
     showgrid="false"
     inkscape:zoom="0.85679012"
     inkscape:cx="202.5"
     inkscape:cy="135"
     inkscape:window-x="0"
     inkscape:window-y="0"
     inkscape:window-maximized="0"
     inkscape:current-layer="svg2" />
  <metadata
     id="metadata4">
Created by potrace 1.11, written by Peter Selinger 2001-2013
<rdf:RDF>
  <cc:Work
     rdf:about="">
    <dc:format>image/svg+xml</dc:format>
    <dc:type
       rdf:resource="http://purl.org/dc/dcmitype/StillImage" />
  </cc:Work>
</rdf:RDF>
</metadata>
  <rect
     style="fill:#ffffff;fill-opacity:1;stroke:none"
     id="rect2989"
     width="324"
     height="216"
     x="5.6985666e-016"
     y="7.6293945e-006" />
  <g
     transform="translate(0.000000,216.000000) scale(0.100000,-0.100000)"
     fill="#FF0000"
     stroke="none"
     id="g6">
    <path
       d="M1476 1784 c-194 -43 -358 -157 -462 -319 -229 -359 -94 -841 290 -1029 329 -161 724 -50 922 259 162 255 147 579 -39 828 -82 109 -242 214 -382 252 -88 24 -245 28 -329 9z m327 -153 c125 -44 234 -127 272 -208 63 -131 -6 -301 -140 -346 -98 -34 -186 -15 -275 58 -135 111 -288 133 -436 64 -47 -23 -132 -97 -168 -149 -16 -24 -17 -23 -12 65 8 148 63 272 167 376 79 79 197 141 309 163 57 11 226 -3 283 -23z m394 -588 c-16 -244 -170 -439 -407 -519 -77 -26 -263 -26 -340 0 -129 43 -246 131 -285 213 -63 131 6 301 140 346 98 34 186 15 275 -58 134 -110 288 -133 432 -65 57 27 129 88 158 135 12 19 24 35 27 35 3 0 3 -39 0 -87z"
       id="path8" />
  </g>
</svg>
