<?xml version="1.0" encoding="UTF-8" standalone="no"?>
<svg xmlns="http://www.w3.org/2000/svg" xmlns:dc="http://purl.org/dc/elements/1.1/" xmlns:cc="http://creativecommons.org/ns#" xmlns:rdf="http://www.w3.org/1999/02/22-rdf-syntax-ns#" version="1.1" width="642" height="600" viewBox="-0.956 0 642 600">
<metadata><rdf:RDF><cc:Work rdf:about="">
<dc:format>image/svg+xml</dc:format><dc:type rdf:resource="http://purl.org/dc/dcmitype/StillImage"/>
</cc:Work></rdf:RDF></metadata>
<path d="M302.006,20.998c71.726-7.26,134.733,40.484,140.982,106.986 4.546,48.375-18.553,86.059-52.993,102.987-37.139,18.255-77.43,6.8-96.988-13.999-31.249-33.231-15.92-96.87,27.997-92.988 7.261,0.642,24.237,6.716,21.997,22.997-1.781,12.944-18.06,5.356-19.997,18.998-1.818,12.794,10.758,21.715,20.997,22.997 21.091,2.639,33.709-10.689,39.995-21.998 20.604-37.064-8.478-77.328-39.995-88.989-63.613-23.534-125.618,33.88-120.985,102.987 3.494,52.117,36.388,86.55,78.99,102.987 23.792,9.18,52.211,11.99,78.99,6 24.613-5.507,47.526-15.888,74.991-15.998 52.459-0.21,86.603,18.219,111.985,40.995 30.594,27.45,56.235,69.701,51.994,127.983-3.933,54.025-40.122,96.892-83.99,113.986-74.454,29.014-153.154-18.427-153.98-91.989-0.596-53.047,45.952-99.658,97.987-80.989 16.781,6.021,30.724,21.791,33.996,36.995 7.403,34.389-22.818,49.9-35.995,39.995-10.94-8.225,3.47-17.445-5-26.997-13.483-15.207-37.79,4.833-38.995,25.997-1.527,26.854,20.624,43.878,33.996,48.994 27.281,10.438,53.606-1.534,67.991-12.999 15.935-12.699,29.044-34.541,30.996-57.992 3.021-36.269-13.877-64.904-32.995-81.99-20.825-18.609-47.512-30.752-85.989-27.996-56.749,4.065-96.253,45.565-110.986,88.989-9.774,28.808-12.047,51.66-24.997,74.99-32.222,58.047-110.723,112.233-200.975,74.99-40.103-16.548-81.583-55.782-85.989-112.985-4.479-58.141,26.205-102.745,64.992-120.985 52.439-24.66,105.46-1.162,125.984,32.996 15.6,25.962,13.89,70.233-8.999,91.988-17.306,16.448-43.748,19.243-60.992,9.999-19.665-10.542-23.781-43.602-6-47.994 14.014-3.461,10.988,10.783,23.997,8.999 21.731-2.981,13.192-40.494-7.999-49.994-38.486-17.252-73.924,18.962-77.99,50.994-4.444,35.013,13.425,59.872,30.996,73.99 14.575,11.712,35.922,22.326,61.992,21.998 62.56-0.788,114.729-55.287,108.986-130.984-3.467-45.701-28.243-70.237-57.993-99.987-25.589-25.588-48.443-59.359-51.994-104.987-4.002-51.436,12.238-88.87,33.996-115.985C225.232,47.554,259.917,25.257,302.006,20.998z"/>
</svg>
