<?xml version="1.0" encoding="UTF-8" standalone="no"?>
<!-- Created with Inkscape (http://www.inkscape.org/) -->

<svg
   xmlns:dc="http://purl.org/dc/elements/1.1/"
   xmlns:cc="http://creativecommons.org/ns#"
   xmlns:rdf="http://www.w3.org/1999/02/22-rdf-syntax-ns#"
   xmlns:svg="http://www.w3.org/2000/svg"
   xmlns="http://www.w3.org/2000/svg"
   xmlns:sodipodi="http://sodipodi.sourceforge.net/DTD/sodipodi-0.dtd"
   xmlns:inkscape="http://www.inkscape.org/namespaces/inkscape"
   id="svg2"
   version="1.1"
   inkscape:version="0.91 r13725"
   width="1500"
   height="750"
   viewBox="0 0 1500 750"
   sodipodi:docname="K of Iberia.svg">
  <metadata
     id="metadata8">
    <rdf:RDF>
      <cc:Work
         rdf:about="">
        <dc:format>image/svg+xml</dc:format>
        <dc:type
           rdf:resource="http://purl.org/dc/dcmitype/StillImage" />
        <dc:title></dc:title>
      </cc:Work>
    </rdf:RDF>
  </metadata>
  <defs
     id="defs6" />
  <sodipodi:namedview
     pagecolor="#ffffff"
     bordercolor="#666666"
     borderopacity="1"
     objecttolerance="10"
     gridtolerance="10"
     guidetolerance="10"
     inkscape:pageopacity="0"
     inkscape:pageshadow="2"
     inkscape:window-width="1920"
     inkscape:window-height="1017"
     id="namedview4"
     showgrid="false"
     inkscape:zoom="1"
     inkscape:cx="1029.1089"
     inkscape:cy="285.52021"
     inkscape:window-x="-8"
     inkscape:window-y="-8"
     inkscape:window-maximized="1"
     inkscape:current-layer="svg2" />
  <g
     id="g4138">
    <path
       style="fill:#fdfcfc"
       d="M 0,375 0,0 l 750,0 750,0 0,375 0,375 -750,0 -750,0 0,-375 z"
       id="path4142"
       inkscape:connector-curvature="0" />
    <path
       style="fill:#980202"
       d="M 665.39358,604.92187 665.15625,459.84375 332.57812,459.60807 0,459.37238 0,375 0,290.62762 332.57812,290.39193 665.15625,290.15625 665.39358,145.07812 665.63092,0 l 84.83783,0 84.83783,0 0.23734,145.07812 0.23733,145.07813 332.10935,0.23569 332.1094,0.23568 0,84.37238 0,84.37238 -332.1094,0.23568 -332.10935,0.23569 -0.23733,145.07812 L 835.30658,750 l -84.83783,0 -84.83783,0 z"
       id="path4140"
       inkscape:connector-curvature="0"
       sodipodi:nodetypes="ccccccccccccccccccccccccc" />
  </g>
</svg>
